<?xml version="1.0" encoding="UTF-8"?>
<!DOCTYPE svg PUBLIC "-//W3C//DTD SVG 1.1//EN" "http://www.w3.org/Graphics/SVG/1.1/DTD/svg11.dtd">
<!-- Creator: CorelDRAW 2021 (64-Bit) -->
<svg xmlns="http://www.w3.org/2000/svg" xml:space="preserve" width="144px" height="97px" version="1.1" style="shape-rendering:geometricPrecision; text-rendering:geometricPrecision; image-rendering:optimizeQuality; fill-rule:evenodd; clip-rule:evenodd"
viewBox="0 0 12.53 8.42"
 xmlns:xlink="http://www.w3.org/1999/xlink"
 xmlns:xodm="http://www.corel.com/coreldraw/odm/2003">
 <defs>
  <style type="text/css">
   <![CDATA[
    .fil0 {fill:none}
    .fil5 {fill:#2B2A29;fill-rule:nonzero}
    .fil1 {fill:#0085CC;fill-rule:nonzero}
    .fil3 {fill:url(#id0)}
    .fil2 {fill:url(#id1)}
    .fil4 {fill:url(#id2)}
   ]]>
  </style>
  <linearGradient id="id0" gradientUnits="userSpaceOnUse" x1="4.57" y1="2.21" x2="7.33" y2="2.47">
   <stop offset="0" style="stop-opacity:1; stop-color:#CF4C26"/>
   <stop offset="0.768627" style="stop-opacity:1; stop-color:#E69D46"/>
   <stop offset="1" style="stop-opacity:1; stop-color:#E67E2D"/>
  </linearGradient>
  <linearGradient id="id1" gradientUnits="userSpaceOnUse" xlink:href="#id0" x1="4.29" y1="1.47" x2="7.25" y2="1.73">
  </linearGradient>
  <linearGradient id="id2" gradientUnits="userSpaceOnUse" xlink:href="#id0" x1="4.85" y1="3.21" x2="7.2" y2="3.5">
  </linearGradient>
 </defs>
 <g id="Layer_x0020_1">
  <metadata id="CorelCorpID_0Corel-Layer"/>
  <g id="_2242321050416">
   <rect class="fil0" width="12.53" height="8.42"/>
   <g>
    <path class="fil1" d="M0.93 5.95l-0.31 0 0 1.23 -0.21 0 0 -1.23 -0.31 0 0 -0.2 0.83 0 0 0.2zm0.76 0.95c0,0.08 -0.02,0.15 -0.08,0.2 -0.05,0.05 -0.11,0.08 -0.18,0.08l-0.36 0c-0.06,0 -0.12,-0.03 -0.18,-0.08 -0.06,-0.05 -0.09,-0.12 -0.09,-0.21l0 -0.13c0,-0.11 0.02,-0.19 0.07,-0.25 0.05,-0.05 0.11,-0.08 0.2,-0.08l0.44 0 0 -0.07c0,-0.05 -0.02,-0.07 -0.06,-0.07l-0.65 0 0 -0.18 0.63 0c0.07,0 0.14,0.02 0.19,0.06 0.05,0.04 0.07,0.09 0.07,0.16l0 0.57zm-0.18 0.01l0 -0.21c0,-0.05 -0.04,-0.08 -0.12,-0.1l-0.29 0c-0.03,0 -0.06,0.01 -0.09,0.03 -0.02,0.02 -0.03,0.04 -0.03,0.07l0 0.21c0,0.04 0.01,0.07 0.04,0.08 0.02,0.01 0.06,0.01 0.1,0.01l0.24 0c0.1,0 0.15,-0.03 0.15,-0.09zm0.77 -0.63l-0.18 0 0 0.9 -0.18 0 0 -1.43 0.18 0 0 0.36 0.18 0 0 0.17zm1.06 0.9l-0.25 0 -0.45 -0.46c-0.02,-0.03 -0.04,-0.06 -0.04,-0.09 0,-0.04 0.01,-0.07 0.04,-0.1l0.42 -0.42 0.25 0 -0.51 0.51 0.54 0.56zm-0.75 0l-0.18 0 0 -1.43 0.18 0 0 1.43zm1.77 -0.28c0,0.08 -0.02,0.15 -0.08,0.2 -0.05,0.05 -0.11,0.08 -0.18,0.08l-0.36 0c-0.06,0 -0.13,-0.03 -0.18,-0.08 -0.06,-0.05 -0.09,-0.12 -0.09,-0.21l0 -0.13c0,-0.11 0.02,-0.19 0.07,-0.25 0.05,-0.05 0.11,-0.08 0.2,-0.08l0.44 0 0 -0.07c0,-0.05 -0.02,-0.07 -0.07,-0.07l-0.64 0 0 -0.18 0.63 0c0.07,0 0.14,0.02 0.19,0.06 0.05,0.04 0.07,0.09 0.07,0.16l0 0.57zm-0.18 0.01l0 -0.21c0,-0.05 -0.04,-0.08 -0.12,-0.1l-0.29 0c-0.03,0 -0.06,0.01 -0.09,0.03 -0.02,0.02 -0.03,0.04 -0.03,0.07l0 0.21c0,0.04 0.01,0.07 0.04,0.08 0.02,0.01 0.05,0.01 0.1,0.01l0.24 0c0.1,0 0.15,-0.03 0.15,-0.09zm0.59 0.27l-0.18 0 0 -1.43 0.18 0 0 1.43zm1.75 -0.37c0,0.09 -0.02,0.17 -0.08,0.24 -0.06,0.08 -0.14,0.13 -0.25,0.13l-0.7 0 0 -1.43 0.73 0c0.08,0 0.15,0.03 0.21,0.09 0.06,0.05 0.09,0.13 0.09,0.21l0 0.17c0,0.07 -0.01,0.12 -0.03,0.16 -0.02,0.02 -0.05,0.05 -0.09,0.08 0.08,0.03 0.12,0.11 0.12,0.22l0 0.13zm-0.21 -0.59l0 -0.13c0,-0.04 -0.01,-0.07 -0.03,-0.1 -0.02,-0.02 -0.05,-0.04 -0.09,-0.04l-0.49 0 0 0.41 0.47 0c0.04,0 0.07,-0.01 0.1,-0.03 0.03,-0.03 0.04,-0.06 0.04,-0.11zm0 0.62l0 -0.13c0,-0.03 -0.01,-0.07 -0.04,-0.09 -0.02,-0.03 -0.06,-0.05 -0.1,-0.05l-0.47 0 0 0.4 0.46 0c0.05,0 0.08,-0.01 0.11,-0.03 0.03,-0.03 0.04,-0.06 0.04,-0.1zm1.32 0.06c0,0.08 -0.02,0.15 -0.08,0.2 -0.05,0.05 -0.11,0.08 -0.18,0.08l-0.36 0c-0.06,0 -0.12,-0.03 -0.18,-0.08 -0.06,-0.05 -0.09,-0.12 -0.09,-0.21l0 -0.13c0,-0.11 0.02,-0.19 0.07,-0.25 0.05,-0.05 0.12,-0.08 0.2,-0.08l0.44 0 0 -0.07c0,-0.05 -0.02,-0.07 -0.06,-0.07l-0.65 0 0 -0.18 0.63 0c0.08,0 0.14,0.02 0.19,0.06 0.05,0.04 0.07,0.09 0.07,0.16l0 0.57zm-0.18 0.01l0 -0.21c0,-0.05 -0.04,-0.08 -0.12,-0.1l-0.29 0c-0.03,0 -0.06,0.01 -0.09,0.03 -0.02,0.02 -0.03,0.04 -0.03,0.07l0 0.21c0,0.04 0.01,0.07 0.04,0.08 0.02,0.01 0.06,0.01 0.1,0.01l0.24 0c0.1,0 0.15,-0.03 0.15,-0.09zm1.28 0.27l-0.18 0 0 -0.79c0,-0.07 -0.04,-0.1 -0.12,-0.1l-0.29 0c-0.04,0 -0.07,0.01 -0.09,0.02 -0.02,0.02 -0.03,0.05 -0.03,0.09l0 0.78 -0.18 0 0 -0.8c0,-0.18 0.1,-0.27 0.3,-0.27l0.28 0c0.21,0 0.31,0.09 0.31,0.27l0 0.8zm1.16 0l-0.25 0 -0.44 -0.46c-0.03,-0.03 -0.05,-0.06 -0.05,-0.09 0,-0.04 0.02,-0.07 0.05,-0.1l0.41 -0.42 0.26 0 -0.52 0.51 0.54 0.56zm-0.74 0l-0.18 0 0 -1.43 0.18 0 0 1.43zm1.11 -1.33c0,0.04 -0.02,0.07 -0.04,0.09 -0.03,0.03 -0.06,0.04 -0.09,0.04 -0.04,0 -0.07,-0.01 -0.09,-0.04 -0.03,-0.02 -0.04,-0.05 -0.04,-0.09 0,-0.03 0.01,-0.06 0.04,-0.09 0.02,-0.02 0.05,-0.04 0.09,-0.04 0.03,0 0.06,0.02 0.09,0.04 0.02,0.03 0.04,0.06 0.04,0.09zm-0.04 1.33l-0.18 0 0 -1.07 0.18 0 0 1.07zm1.12 0l-0.18 0 0 -0.79c0,-0.07 -0.04,-0.1 -0.12,-0.1l-0.29 0c-0.04,0 -0.07,0.01 -0.09,0.02 -0.02,0.02 -0.03,0.05 -0.03,0.09l0 0.78 -0.18 0 0 -0.8c0,-0.18 0.1,-0.27 0.3,-0.27l0.28 0c0.21,0 0.31,0.09 0.31,0.27l0 0.8zm1.11 0.13c0,0.15 -0.1,0.22 -0.31,0.22l-0.58 0 0 -0.18 0.58 0c0.09,0 0.13,-0.03 0.13,-0.1l0 -0.07 -0.43 0c-0.07,0 -0.14,-0.03 -0.19,-0.07 -0.05,-0.06 -0.08,-0.13 -0.08,-0.22l0 -0.51c0,-0.08 0.02,-0.14 0.07,-0.2 0.05,-0.05 0.11,-0.07 0.18,-0.07l0.38 0c0.07,0 0.13,0.02 0.18,0.06 0.05,0.04 0.07,0.09 0.07,0.16l0 0.98zm-0.18 -0.42l0 -0.49c0,-0.08 -0.03,-0.12 -0.1,-0.12l-0.32 0c-0.04,0 -0.06,0.01 -0.08,0.04 -0.02,0.02 -0.03,0.05 -0.03,0.08l0 0.49c0,0.03 0.01,0.06 0.03,0.08 0.03,0.02 0.05,0.03 0.09,0.03l0.31 0c0.07,0 0.1,-0.04 0.1,-0.11z"/>
    <g>
     <path class="fil1" d="M6.9 2.64l1.66 0 0 0c-0.1,0.15 -0.16,0.23 -0.17,0.24l-0.44 0c0.06,0.07 0.1,0.16 0.12,0.26l0.47 0c0.01,0 0.01,0.01 0.01,0.01 -0.1,0.16 -0.16,0.24 -0.16,0.24l-0.31 0c0,0.08 -0.04,0.18 -0.11,0.29 -0.1,0.12 -0.19,0.19 -0.27,0.23 -0.16,0.07 -0.32,0.11 -0.46,0.11l0 0.01c0,0.01 0.03,0.06 0.1,0.14l0.82 0.98 0 0.05c0,0.01 0,0.01 -0.01,0.01l-0.36 0c-0.64,-0.76 -0.97,-1.13 -0.97,-1.14l0 -0.23 0.01 -0.01c0.05,0.01 0.12,0.02 0.2,0.02 0.36,0 0.59,-0.12 0.67,-0.36 0.02,-0.03 0.03,-0.07 0.03,-0.1l-0.99 0c0,0 -0.01,0 -0.01,-0.01 0.11,-0.16 0.17,-0.24 0.17,-0.24l0.78 0 0 0c-0.04,-0.09 -0.13,-0.16 -0.26,-0.21 -0.09,-0.03 -0.17,-0.05 -0.25,-0.05l-0.43 0 0 -0.01c0.1,-0.15 0.16,-0.23 0.16,-0.23z"/>
     <path class="fil2" d="M7.08 0.05l0.18 0.49c-1.09,0.52 -2.46,1.36 -2.8,2.6l-0.17 -0.39c-0.06,-0.14 -0.03,-0.32 0.02,-0.46 0.31,-0.9 1.77,-1.85 2.77,-2.24z"/>
     <path class="fil3" d="M7.12 0.76l0.22 0.56c-0.64,0.29 -1.33,0.69 -1.84,1.18 -0.42,0.41 -0.71,0.89 -0.75,1.42l-0.18 -0.45c-0.06,-0.16 -0.04,-0.32 0.03,-0.47 0.47,-1.02 1.43,-1.73 2.52,-2.24l0 0z"/>
     <path class="fil4" d="M7.01 1.63l0.2 0.48c-0.36,0.2 -0.78,0.48 -1.14,0.79 -0.37,0.32 -0.6,0.62 -0.72,0.89 -0.34,0.75 0.29,1.33 1.55,1.3 -0.67,0.08 -1.21,0 -1.56,-0.2 -0.36,-0.21 -0.5,-0.54 -0.5,-0.86 -0.01,-0.48 0.29,-0.97 0.63,-1.31 0.18,-0.17 0.35,-0.33 0.53,-0.47 0.31,-0.24 0.65,-0.43 1.01,-0.62l0 0z"/>
    </g>
    <polygon class="fil1" points="0.1,7.43 11.34,7.43 11.34,7.53 0.1,7.53 "/>
    <path class="fil5" d="M0.26 8.24c-0.04,0 -0.07,-0.01 -0.1,-0.02 -0.04,-0.01 -0.06,-0.02 -0.08,-0.04l0.03 -0.06c0.02,0.01 0.04,0.02 0.07,0.03 0.02,0.01 0.05,0.02 0.08,0.02 0.04,0 0.06,-0.01 0.08,-0.02 0.02,-0.01 0.02,-0.03 0.02,-0.04 0,-0.02 0,-0.03 -0.01,-0.04 -0.01,-0.01 -0.02,-0.01 -0.04,-0.02 -0.01,0 -0.03,-0.01 -0.06,-0.01 -0.03,-0.01 -0.06,-0.02 -0.08,-0.03 -0.02,-0.01 -0.04,-0.02 -0.06,-0.04 -0.02,-0.02 -0.02,-0.04 -0.02,-0.07 0,-0.03 0,-0.05 0.02,-0.07 0.01,-0.02 0.03,-0.04 0.06,-0.05 0.03,-0.01 0.06,-0.02 0.1,-0.02 0.03,0 0.06,0 0.09,0.01 0.03,0.01 0.05,0.02 0.07,0.03l-0.03 0.07c-0.02,-0.01 -0.04,-0.02 -0.06,-0.03 -0.02,-0.01 -0.05,-0.01 -0.07,-0.01 -0.03,0 -0.06,0.01 -0.07,0.02 -0.02,0.01 -0.03,0.03 -0.03,0.04 0,0.02 0.01,0.03 0.02,0.04 0.01,0.01 0.02,0.01 0.03,0.02 0.02,0 0.04,0.01 0.06,0.01 0.04,0.01 0.07,0.02 0.09,0.03 0.02,0.01 0.04,0.02 0.06,0.04 0.01,0.02 0.02,0.04 0.02,0.07 0,0.03 -0.01,0.05 -0.02,0.07 -0.02,0.02 -0.04,0.04 -0.07,0.05 -0.02,0.01 -0.06,0.02 -0.1,0.02zm0.27 -0.36l0.08 0 0 0.35 -0.08 0 0 -0.35zm0.04 -0.06c-0.02,0 -0.03,-0.01 -0.04,-0.02 -0.01,-0.01 -0.01,-0.02 -0.01,-0.03 0,-0.02 0,-0.03 0.01,-0.04 0.01,-0.01 0.02,-0.01 0.04,-0.01 0.01,0 0.03,0 0.04,0.01 0.01,0.01 0.01,0.02 0.01,0.04 0,0.01 0,0.02 -0.01,0.03 -0.01,0.01 -0.03,0.02 -0.04,0.02zm0.6 0.05c0.04,0 0.08,0.02 0.1,0.04 0.03,0.03 0.04,0.07 0.04,0.12l0 0.2 -0.08 0 0 -0.19c0,-0.03 -0.01,-0.06 -0.02,-0.07 -0.01,-0.02 -0.03,-0.03 -0.06,-0.03 -0.03,0 -0.05,0.01 -0.07,0.03 -0.01,0.02 -0.02,0.05 -0.02,0.08l0 0.18 -0.09 0 0 -0.19c0,-0.03 0,-0.06 -0.02,-0.07 -0.01,-0.02 -0.03,-0.03 -0.06,-0.03 -0.02,0 -0.05,0.01 -0.06,0.03 -0.02,0.02 -0.03,0.05 -0.03,0.08l0 0.18 -0.08 0 0 -0.35 0.08 0 0 0.04c0.01,-0.01 0.03,-0.03 0.05,-0.04 0.02,0 0.04,-0.01 0.06,-0.01 0.03,0 0.05,0.01 0.08,0.02 0.02,0.01 0.03,0.02 0.04,0.04 0.02,-0.02 0.04,-0.03 0.06,-0.04 0.02,-0.01 0.05,-0.02 0.08,-0.02zm0.45 0c0.03,0 0.06,0.01 0.09,0.02 0.03,0.02 0.05,0.04 0.06,0.07 0.02,0.03 0.03,0.06 0.03,0.09 0,0.04 -0.01,0.07 -0.03,0.1 -0.01,0.03 -0.03,0.05 -0.06,0.06 -0.03,0.02 -0.06,0.03 -0.09,0.03 -0.05,0 -0.09,-0.02 -0.12,-0.05l0 0.17 -0.08 0 0 -0.48 0.08 0 0 0.04c0.01,-0.01 0.03,-0.03 0.05,-0.04 0.02,0 0.04,-0.01 0.07,-0.01zm-0.01 0.3c0.03,0 0.05,-0.02 0.07,-0.04 0.02,-0.02 0.03,-0.04 0.03,-0.08 0,-0.03 -0.01,-0.06 -0.03,-0.08 -0.02,-0.02 -0.04,-0.03 -0.07,-0.03 -0.02,0 -0.04,0.01 -0.06,0.02 -0.01,0.01 -0.03,0.02 -0.03,0.04 -0.01,0.01 -0.02,0.03 -0.02,0.05 0,0.03 0.01,0.05 0.02,0.06 0,0.02 0.02,0.03 0.03,0.04 0.02,0.01 0.04,0.02 0.06,0.02zm0.27 -0.43l0.08 0 0 0.49 -0.08 0 0 -0.49zm0.52 0.32c0,0 0,0.01 0,0.02l-0.28 0c0.01,0.03 0.02,0.05 0.04,0.06 0.02,0.02 0.05,0.03 0.08,0.03 0.04,0 0.07,-0.02 0.09,-0.04l0.05 0.05c-0.02,0.02 -0.04,0.03 -0.06,0.04 -0.03,0.01 -0.05,0.02 -0.08,0.02 -0.04,0 -0.08,-0.01 -0.11,-0.03 -0.03,-0.01 -0.05,-0.03 -0.07,-0.06 -0.01,-0.03 -0.02,-0.06 -0.02,-0.1 0,-0.03 0.01,-0.06 0.02,-0.09 0.02,-0.03 0.04,-0.05 0.07,-0.06 0.03,-0.02 0.06,-0.03 0.09,-0.03 0.04,0 0.07,0.01 0.1,0.03 0.02,0.01 0.04,0.03 0.06,0.06 0.01,0.03 0.02,0.06 0.02,0.1zm-0.18 -0.12c-0.02,0 -0.05,0.01 -0.07,0.02 -0.01,0.02 -0.02,0.04 -0.03,0.07l0.2 0c0,-0.03 -0.01,-0.05 -0.03,-0.07 -0.02,-0.01 -0.04,-0.02 -0.07,-0.02zm0.8 0.3l-0.06 -0.06c-0.04,0.04 -0.09,0.06 -0.15,0.06 -0.03,0 -0.06,-0.01 -0.09,-0.02 -0.02,-0.01 -0.05,-0.02 -0.06,-0.04 -0.01,-0.02 -0.02,-0.04 -0.02,-0.07 0,-0.02 0.01,-0.05 0.02,-0.07 0.02,-0.02 0.05,-0.05 0.09,-0.07 -0.02,-0.02 -0.04,-0.03 -0.04,-0.05 -0.01,-0.02 -0.02,-0.03 -0.02,-0.05 0,-0.03 0.02,-0.06 0.04,-0.08 0.03,-0.02 0.06,-0.03 0.1,-0.03 0.04,0 0.07,0.01 0.09,0.03 0.02,0.02 0.03,0.04 0.03,0.07 0,0.03 0,0.05 -0.02,0.07 -0.01,0.02 -0.04,0.03 -0.07,0.05l0.1 0.1c0.01,-0.02 0.02,-0.05 0.02,-0.08l0.07 0.02c-0.01,0.04 -0.02,0.08 -0.04,0.11l0.06 0.06 -0.05 0.05zm-0.19 -0.42c-0.02,0 -0.03,0 -0.04,0.01 -0.01,0.01 -0.02,0.02 -0.02,0.04 0,0.01 0,0.02 0.01,0.03 0,0.01 0.02,0.02 0.03,0.04 0.03,-0.02 0.05,-0.03 0.06,-0.04 0.01,-0.01 0.01,-0.02 0.01,-0.04 0,-0.01 0,-0.02 -0.01,-0.03 -0.01,-0.01 -0.02,-0.01 -0.04,-0.01zm-0.02 0.35c0.04,0 0.08,-0.01 0.1,-0.03l-0.12 -0.12c-0.02,0.01 -0.04,0.03 -0.05,0.04 -0.02,0.01 -0.02,0.03 -0.02,0.05 0,0.01 0.01,0.03 0.03,0.04 0.01,0.01 0.04,0.02 0.06,0.02zm0.66 0.07c-0.03,0 -0.07,-0.01 -0.1,-0.02 -0.04,-0.01 -0.06,-0.02 -0.08,-0.04l0.03 -0.06c0.02,0.01 0.04,0.02 0.07,0.03 0.03,0.01 0.05,0.02 0.08,0.02 0.04,0 0.06,-0.01 0.08,-0.02 0.02,-0.01 0.02,-0.03 0.02,-0.04 0,-0.02 0,-0.03 -0.01,-0.04 -0.01,-0.01 -0.02,-0.01 -0.04,-0.02 -0.01,0 -0.03,-0.01 -0.06,-0.01 -0.03,-0.01 -0.06,-0.02 -0.08,-0.03 -0.02,-0.01 -0.04,-0.02 -0.06,-0.04 -0.01,-0.02 -0.02,-0.04 -0.02,-0.07 0,-0.03 0,-0.05 0.02,-0.07 0.01,-0.02 0.03,-0.04 0.06,-0.05 0.03,-0.01 0.06,-0.02 0.11,-0.02 0.02,0 0.05,0 0.08,0.01 0.03,0.01 0.05,0.02 0.07,0.03l-0.03 0.07c-0.02,-0.01 -0.04,-0.02 -0.06,-0.03 -0.02,-0.01 -0.04,-0.01 -0.07,-0.01 -0.03,0 -0.06,0.01 -0.07,0.02 -0.02,0.01 -0.03,0.03 -0.03,0.04 0,0.02 0.01,0.03 0.02,0.04 0.01,0.01 0.02,0.01 0.03,0.02 0.02,0 0.04,0.01 0.06,0.01 0.04,0.01 0.07,0.02 0.09,0.03 0.02,0.01 0.04,0.02 0.06,0.04 0.01,0.02 0.02,0.04 0.02,0.07 0,0.03 -0.01,0.05 -0.02,0.07 -0.02,0.02 -0.04,0.04 -0.07,0.05 -0.02,0.01 -0.06,0.02 -0.1,0.02zm0.6 -0.18c0,0 0,0.01 0,0.02l-0.28 0c0.01,0.03 0.02,0.05 0.04,0.06 0.02,0.02 0.05,0.03 0.08,0.03 0.04,0 0.07,-0.02 0.09,-0.04l0.05 0.05c-0.02,0.02 -0.04,0.03 -0.06,0.04 -0.03,0.01 -0.06,0.02 -0.09,0.02 -0.03,0 -0.07,-0.01 -0.1,-0.03 -0.03,-0.01 -0.05,-0.03 -0.07,-0.06 -0.01,-0.03 -0.02,-0.06 -0.02,-0.1 0,-0.03 0.01,-0.06 0.02,-0.09 0.02,-0.03 0.04,-0.05 0.07,-0.06 0.02,-0.02 0.06,-0.03 0.09,-0.03 0.04,0 0.07,0.01 0.09,0.03 0.03,0.01 0.05,0.03 0.07,0.06 0.01,0.03 0.02,0.06 0.02,0.1zm-0.18 -0.12c-0.03,0 -0.05,0.01 -0.07,0.02 -0.01,0.02 -0.03,0.04 -0.03,0.07l0.2 0c0,-0.03 -0.01,-0.05 -0.03,-0.07 -0.02,-0.01 -0.04,-0.02 -0.07,-0.02zm0.42 0.3c-0.03,0 -0.07,-0.01 -0.1,-0.03 -0.02,-0.01 -0.05,-0.03 -0.06,-0.06 -0.02,-0.03 -0.03,-0.06 -0.03,-0.1 0,-0.03 0.01,-0.06 0.03,-0.09 0.01,-0.03 0.04,-0.05 0.06,-0.06 0.03,-0.02 0.07,-0.03 0.1,-0.03 0.04,0 0.07,0.01 0.1,0.02 0.02,0.02 0.04,0.04 0.06,0.06l-0.07 0.04c-0.01,-0.01 -0.02,-0.03 -0.04,-0.03 -0.01,-0.01 -0.03,-0.02 -0.05,-0.02 -0.03,0 -0.05,0.01 -0.07,0.03 -0.02,0.02 -0.03,0.05 -0.03,0.08 0,0.04 0.01,0.06 0.03,0.08 0.02,0.03 0.04,0.04 0.07,0.04 0.02,0 0.04,-0.01 0.05,-0.02 0.02,-0.01 0.03,-0.02 0.04,-0.03l0.07 0.03c-0.02,0.03 -0.04,0.05 -0.06,0.06 -0.03,0.02 -0.06,0.03 -0.1,0.03zm0.57 -0.36l0 0.35 -0.08 0 0 -0.04c-0.01,0.01 -0.03,0.02 -0.05,0.03 -0.02,0.01 -0.04,0.02 -0.06,0.02 -0.05,0 -0.09,-0.02 -0.11,-0.04 -0.03,-0.03 -0.05,-0.07 -0.05,-0.12l0 -0.2 0.09 0 0 0.19c0,0.03 0.01,0.05 0.02,0.07 0.01,0.02 0.03,0.02 0.06,0.02 0.03,0 0.05,-0.01 0.07,-0.02 0.02,-0.02 0.03,-0.05 0.03,-0.08l0 -0.18 0.08 0zm0.19 0.05c0.02,-0.04 0.07,-0.06 0.13,-0.06l0 0.08c-0.01,0 -0.02,0 -0.02,0 -0.04,0 -0.06,0.01 -0.08,0.03 -0.02,0.02 -0.03,0.04 -0.03,0.08l0 0.17 -0.08 0 0 -0.35 0.08 0 0 0.05zm0.53 0.13c0,0 0,0.01 0,0.02l-0.28 0c0,0.03 0.01,0.05 0.04,0.06 0.02,0.02 0.04,0.03 0.07,0.03 0.04,0 0.07,-0.02 0.1,-0.04l0.04 0.05c-0.01,0.02 -0.03,0.03 -0.06,0.04 -0.02,0.01 -0.05,0.02 -0.08,0.02 -0.04,0 -0.07,-0.01 -0.1,-0.03 -0.03,-0.01 -0.06,-0.03 -0.07,-0.06 -0.02,-0.03 -0.03,-0.06 -0.03,-0.1 0,-0.03 0.01,-0.06 0.03,-0.09 0.01,-0.03 0.04,-0.05 0.06,-0.06 0.03,-0.02 0.06,-0.03 0.1,-0.03 0.03,0 0.06,0.01 0.09,0.03 0.03,0.01 0.05,0.03 0.06,0.06 0.02,0.03 0.03,0.06 0.03,0.1zm-0.18 -0.12c-0.03,0 -0.05,0.01 -0.07,0.02 -0.02,0.02 -0.03,0.04 -0.03,0.07l0.2 0c-0.01,-0.03 -0.02,-0.05 -0.03,-0.07 -0.02,-0.01 -0.05,-0.02 -0.07,-0.02zm0.64 -0.17c0.04,0 0.08,0 0.11,0.02 0.03,0.01 0.05,0.03 0.06,0.05 0.02,0.03 0.03,0.06 0.03,0.09 0,0.04 -0.01,0.06 -0.03,0.09 -0.01,0.02 -0.03,0.04 -0.06,0.06 -0.03,0.01 -0.07,0.02 -0.11,0.02l-0.1 0 0 0.13 -0.09 0 0 -0.46 0.19 0zm0 0.25c0.03,0 0.06,0 0.08,-0.02 0.02,-0.02 0.03,-0.04 0.03,-0.07 0,-0.03 -0.01,-0.05 -0.03,-0.07 -0.02,-0.01 -0.05,-0.02 -0.08,-0.02l-0.1 0 0 0.18 0.1 0zm0.41 -0.15c0.05,0 0.09,0.01 0.12,0.04 0.03,0.03 0.04,0.06 0.04,0.11l0 0.21 -0.08 0 0 -0.04c-0.01,0.01 -0.02,0.03 -0.04,0.03 -0.02,0.01 -0.04,0.02 -0.07,0.02 -0.03,0 -0.05,-0.01 -0.07,-0.02 -0.02,-0.01 -0.03,-0.02 -0.05,-0.04 -0.01,-0.01 -0.01,-0.03 -0.01,-0.05 0,-0.03 0.01,-0.06 0.03,-0.08 0.03,-0.02 0.06,-0.03 0.12,-0.03l0.09 0 0 0c0,-0.03 -0.01,-0.05 -0.02,-0.06 -0.02,-0.01 -0.04,-0.02 -0.07,-0.02 -0.02,0 -0.04,0 -0.06,0.01 -0.02,0.01 -0.04,0.02 -0.05,0.03l-0.03 -0.06c0.02,-0.02 0.04,-0.03 0.07,-0.04 0.02,0 0.05,-0.01 0.08,-0.01zm-0.01 0.31c0.02,0 0.04,-0.01 0.05,-0.02 0.02,-0.01 0.03,-0.02 0.04,-0.04l0 -0.04 -0.09 0c-0.05,0 -0.07,0.01 -0.07,0.05 0,0.01 0.01,0.02 0.02,0.03 0.01,0.01 0.03,0.02 0.05,0.02zm0.6 -0.3l-0.16 0.38c-0.02,0.04 -0.04,0.07 -0.06,0.08 -0.02,0.02 -0.05,0.03 -0.08,0.03 -0.02,0 -0.04,-0.01 -0.05,-0.01 -0.02,-0.01 -0.03,-0.02 -0.05,-0.03l0.04 -0.06c0.01,0.01 0.02,0.02 0.03,0.02 0.01,0 0.02,0.01 0.03,0.01 0.01,0 0.03,-0.01 0.04,-0.02 0.01,0 0.01,-0.02 0.02,-0.03l0.01 -0.02 -0.16 -0.35 0.09 0 0.11 0.26 0.11 -0.26 0.08 0zm0.5 -0.01c0.05,0 0.08,0.02 0.11,0.04 0.03,0.03 0.04,0.07 0.04,0.12l0 0.2 -0.08 0 0 -0.19c0,-0.03 -0.01,-0.06 -0.02,-0.07 -0.02,-0.02 -0.04,-0.03 -0.06,-0.03 -0.03,0 -0.05,0.01 -0.07,0.03 -0.02,0.02 -0.03,0.05 -0.03,0.08l0 0.18 -0.08 0 0 -0.19c0,-0.03 -0.01,-0.06 -0.02,-0.07 -0.01,-0.02 -0.03,-0.03 -0.06,-0.03 -0.03,0 -0.05,0.01 -0.07,0.03 -0.01,0.02 -0.02,0.05 -0.02,0.08l0 0.18 -0.08 0 0 -0.35 0.07 0 0 0.04c0.02,-0.01 0.03,-0.03 0.05,-0.04 0.02,0 0.05,-0.01 0.07,-0.01 0.03,0 0.05,0.01 0.07,0.02 0.02,0.01 0.04,0.02 0.05,0.04 0.02,-0.02 0.03,-0.03 0.06,-0.04 0.02,-0.01 0.05,-0.02 0.07,-0.02zm0.59 0.19c0,0 0,0.01 0,0.02l-0.28 0c0.01,0.03 0.02,0.05 0.04,0.06 0.02,0.02 0.05,0.03 0.08,0.03 0.04,0 0.07,-0.02 0.09,-0.04l0.05 0.05c-0.02,0.02 -0.04,0.03 -0.06,0.04 -0.03,0.01 -0.05,0.02 -0.08,0.02 -0.04,0 -0.08,-0.01 -0.11,-0.03 -0.03,-0.01 -0.05,-0.03 -0.07,-0.06 -0.01,-0.03 -0.02,-0.06 -0.02,-0.1 0,-0.03 0.01,-0.06 0.02,-0.09 0.02,-0.03 0.04,-0.05 0.07,-0.06 0.03,-0.02 0.06,-0.03 0.09,-0.03 0.04,0 0.07,0.01 0.1,0.03 0.02,0.01 0.04,0.03 0.06,0.06 0.02,0.03 0.02,0.06 0.02,0.1zm-0.18 -0.12c-0.02,0 -0.05,0.01 -0.06,0.02 -0.02,0.02 -0.03,0.04 -0.04,0.07l0.2 0c0,-0.03 -0.01,-0.05 -0.03,-0.07 -0.02,-0.01 -0.04,-0.02 -0.07,-0.02zm0.46 -0.07c0.05,0 0.09,0.02 0.11,0.04 0.03,0.03 0.04,0.07 0.04,0.12l0 0.2 -0.08 0 0 -0.19c0,-0.03 -0.01,-0.06 -0.02,-0.07 -0.02,-0.02 -0.04,-0.03 -0.06,-0.03 -0.04,0 -0.06,0.01 -0.08,0.03 -0.02,0.02 -0.02,0.05 -0.02,0.08l0 0.18 -0.09 0 0 -0.35 0.08 0 0 0.04c0.02,-0.01 0.03,-0.03 0.05,-0.04 0.02,0 0.05,-0.01 0.07,-0.01zm0.47 0.34c-0.01,0.01 -0.02,0.02 -0.03,0.02 -0.02,0 -0.03,0.01 -0.05,0.01 -0.04,0 -0.07,-0.01 -0.09,-0.03 -0.02,-0.02 -0.03,-0.05 -0.03,-0.09l0 -0.17 -0.06 0 0 -0.07 0.06 0 0 -0.08 0.08 0 0 0.08 0.1 0 0 0.07 -0.1 0 0 0.16c0,0.02 0.01,0.04 0.02,0.04 0,0.01 0.02,0.02 0.03,0.02 0.02,0 0.04,-0.01 0.05,-0.02l0.02 0.06zm0.45 -0.44c0.04,0 0.08,0 0.11,0.02 0.03,0.01 0.05,0.03 0.07,0.05 0.01,0.03 0.02,0.06 0.02,0.09 0,0.04 -0.01,0.06 -0.02,0.09 -0.02,0.02 -0.04,0.04 -0.07,0.06 -0.03,0.01 -0.07,0.02 -0.11,0.02l-0.1 0 0 0.13 -0.09 0 0 -0.46 0.19 0zm0 0.25c0.04,0 0.07,0 0.09,-0.02 0.02,-0.02 0.02,-0.04 0.02,-0.07 0,-0.03 0,-0.05 -0.02,-0.07 -0.02,-0.01 -0.05,-0.02 -0.09,-0.02l-0.1 0 0 0.18 0.1 0zm0.36 -0.09c0.02,-0.04 0.06,-0.06 0.12,-0.06l0 0.08c0,0 -0.01,0 -0.02,0 -0.03,0 -0.05,0.01 -0.07,0.03 -0.02,0.02 -0.03,0.04 -0.03,0.08l0 0.17 -0.08 0 0 -0.35 0.08 0 0 0.05zm0.35 0.31c-0.04,0 -0.07,-0.01 -0.1,-0.03 -0.03,-0.01 -0.05,-0.03 -0.07,-0.06 -0.01,-0.03 -0.02,-0.06 -0.02,-0.1 0,-0.03 0.01,-0.06 0.02,-0.09 0.02,-0.03 0.04,-0.05 0.07,-0.06 0.03,-0.02 0.06,-0.03 0.1,-0.03 0.04,0 0.07,0.01 0.1,0.03 0.03,0.01 0.05,0.03 0.06,0.06 0.02,0.03 0.03,0.06 0.03,0.09 0,0.04 -0.01,0.07 -0.03,0.1 -0.01,0.03 -0.03,0.05 -0.06,0.06 -0.03,0.02 -0.06,0.03 -0.1,0.03zm0 -0.07c0.03,0 0.06,-0.02 0.08,-0.04 0.02,-0.02 0.03,-0.04 0.03,-0.08 0,-0.03 -0.01,-0.06 -0.03,-0.08 -0.02,-0.02 -0.05,-0.03 -0.08,-0.03 -0.03,0 -0.06,0.01 -0.08,0.03 -0.02,0.02 -0.03,0.05 -0.03,0.08 0,0.04 0.01,0.06 0.03,0.08 0.02,0.02 0.05,0.04 0.08,0.04zm0.43 0.07c-0.03,0 -0.07,-0.01 -0.1,-0.03 -0.03,-0.01 -0.05,-0.03 -0.07,-0.06 -0.01,-0.03 -0.02,-0.06 -0.02,-0.1 0,-0.03 0.01,-0.06 0.02,-0.09 0.02,-0.03 0.04,-0.05 0.07,-0.06 0.03,-0.02 0.06,-0.03 0.1,-0.03 0.04,0 0.07,0.01 0.09,0.02 0.03,0.02 0.05,0.04 0.06,0.06l-0.06 0.04c-0.01,-0.01 -0.02,-0.03 -0.04,-0.03 -0.01,-0.01 -0.03,-0.02 -0.05,-0.02 -0.03,0 -0.06,0.01 -0.08,0.03 -0.02,0.02 -0.03,0.05 -0.03,0.08 0,0.04 0.01,0.06 0.03,0.08 0.02,0.03 0.05,0.04 0.08,0.04 0.02,0 0.04,-0.01 0.05,-0.02 0.02,-0.01 0.03,-0.02 0.04,-0.03l0.06 0.03c-0.01,0.03 -0.03,0.05 -0.06,0.06 -0.02,0.02 -0.05,0.03 -0.09,0.03zm0.55 -0.18c0,0 0,0.01 0,0.02l-0.28 0c0.01,0.03 0.02,0.05 0.04,0.06 0.02,0.02 0.05,0.03 0.08,0.03 0.04,0 0.07,-0.02 0.1,-0.04l0.04 0.05c-0.02,0.02 -0.04,0.03 -0.06,0.04 -0.02,0.01 -0.05,0.02 -0.08,0.02 -0.04,0 -0.08,-0.01 -0.11,-0.03 -0.03,-0.01 -0.05,-0.03 -0.06,-0.06 -0.02,-0.03 -0.03,-0.06 -0.03,-0.1 0,-0.03 0.01,-0.06 0.02,-0.09 0.02,-0.03 0.04,-0.05 0.07,-0.06 0.03,-0.02 0.06,-0.03 0.09,-0.03 0.04,0 0.07,0.01 0.1,0.03 0.02,0.01 0.05,0.03 0.06,0.06 0.02,0.03 0.02,0.06 0.02,0.1zm-0.18 -0.12c-0.02,0 -0.04,0.01 -0.06,0.02 -0.02,0.02 -0.03,0.04 -0.04,0.07l0.2 0c0,-0.03 -0.01,-0.05 -0.03,-0.07 -0.02,-0.01 -0.04,-0.02 -0.07,-0.02zm0.37 0.3c-0.03,0 -0.05,-0.01 -0.08,-0.02 -0.03,0 -0.05,-0.01 -0.07,-0.02l0.04 -0.07c0.01,0.01 0.03,0.02 0.05,0.03 0.03,0.01 0.05,0.01 0.07,0.01 0.05,0 0.07,-0.01 0.07,-0.04 0,-0.01 0,-0.02 -0.02,-0.03 -0.01,0 -0.03,-0.01 -0.06,-0.01 -0.03,-0.01 -0.05,-0.01 -0.07,-0.02 -0.02,0 -0.03,-0.01 -0.05,-0.03 -0.01,-0.01 -0.02,-0.03 -0.02,-0.06 0,-0.03 0.02,-0.06 0.05,-0.08 0.02,-0.02 0.06,-0.03 0.11,-0.03 0.02,0 0.05,0.01 0.07,0.01 0.03,0.01 0.05,0.01 0.06,0.02l-0.03 0.07c-0.03,-0.02 -0.06,-0.03 -0.1,-0.03 -0.02,0 -0.04,0 -0.06,0.01 -0.01,0.01 -0.01,0.02 -0.01,0.03 0,0.01 0,0.02 0.02,0.03 0.01,0 0.03,0.01 0.06,0.01 0.03,0.01 0.05,0.01 0.07,0.02 0.02,0 0.03,0.01 0.05,0.03 0.01,0.01 0.01,0.03 0.01,0.06 0,0.03 -0.01,0.06 -0.04,0.08 -0.03,0.02 -0.07,0.03 -0.12,0.03zm0.35 0c-0.03,0 -0.06,-0.01 -0.09,-0.02 -0.03,0 -0.05,-0.01 -0.06,-0.02l0.03 -0.07c0.01,0.01 0.03,0.02 0.06,0.03 0.02,0.01 0.04,0.01 0.06,0.01 0.05,0 0.08,-0.01 0.08,-0.04 0,-0.01 -0.01,-0.02 -0.02,-0.03 -0.02,0 -0.04,-0.01 -0.06,-0.01 -0.03,-0.01 -0.06,-0.01 -0.08,-0.02 -0.01,0 -0.03,-0.01 -0.04,-0.03 -0.02,-0.01 -0.02,-0.03 -0.02,-0.06 0,-0.03 0.01,-0.06 0.04,-0.08 0.03,-0.02 0.06,-0.03 0.11,-0.03 0.03,0 0.05,0.01 0.08,0.01 0.02,0.01 0.04,0.01 0.06,0.02l-0.04 0.07c-0.03,-0.02 -0.06,-0.03 -0.1,-0.03 -0.02,0 -0.04,0 -0.05,0.01 -0.02,0.01 -0.02,0.02 -0.02,0.03 0,0.01 0,0.02 0.02,0.03 0.01,0 0.03,0.01 0.06,0.01 0.03,0.01 0.05,0.01 0.07,0.02 0.02,0 0.03,0.01 0.05,0.03 0.01,0.01 0.02,0.03 0.02,0.06 0,0.03 -0.02,0.06 -0.05,0.08 -0.02,0.02 -0.06,0.03 -0.11,0.03zm0.39 0c-0.04,0 -0.07,-0.01 -0.1,-0.03 -0.03,-0.01 -0.05,-0.03 -0.07,-0.06 -0.01,-0.03 -0.02,-0.06 -0.02,-0.1 0,-0.03 0.01,-0.06 0.02,-0.09 0.02,-0.03 0.04,-0.05 0.07,-0.06 0.03,-0.02 0.06,-0.03 0.1,-0.03 0.04,0 0.07,0.01 0.1,0.03 0.03,0.01 0.05,0.03 0.06,0.06 0.02,0.03 0.03,0.06 0.03,0.09 0,0.04 -0.01,0.07 -0.03,0.1 -0.01,0.03 -0.03,0.05 -0.06,0.06 -0.03,0.02 -0.06,0.03 -0.1,0.03zm0 -0.07c0.03,0 0.05,-0.02 0.07,-0.04 0.02,-0.02 0.03,-0.04 0.03,-0.08 0,-0.03 -0.01,-0.06 -0.03,-0.08 -0.02,-0.02 -0.04,-0.03 -0.07,-0.03 -0.03,0 -0.06,0.01 -0.08,0.03 -0.02,0.02 -0.03,0.05 -0.03,0.08 0,0.04 0.01,0.06 0.03,0.08 0.02,0.02 0.05,0.04 0.08,0.04zm0.35 -0.24c0.02,-0.04 0.06,-0.06 0.12,-0.06l0 0.08c0,0 -0.01,0 -0.02,0 -0.03,0 -0.05,0.01 -0.07,0.03 -0.02,0.02 -0.03,0.04 -0.03,0.08l0 0.17 -0.08 0 0 -0.35 0.08 0 0 0.05z"/>
   </g>
  </g>
 </g>
</svg>
