<svg width="512" height="512" viewBox="0 0 512 512" fill="none" xmlns="http://www.w3.org/2000/svg">
<path d="M71.8228 459.988C71.8228 459.988 89.4635 438.153 85.6834 426.739C81.4832 414.829 69.7228 418.303 70.1428 408.378C70.1428 398.453 76.023 382.076 66.7826 372.648C57.5423 363.219 45.7818 372.648 41.5817 355.775C38.2215 342.376 31.5013 333.94 21.4209 338.903C12.1805 343.369 6.30027 353.79 9.24039 374.633C12.1805 396.468 -2.10006 392.994 0.420041 409.37C2.52012 425.747 13.4406 423.265 19.7408 433.687C22.2609 438.153 20.5808 460.98 36.5415 459.988H71.8228Z" fill="#C8CFFF"/>
<path d="M24.361 347.339C24.361 347.339 24.361 347.835 24.361 348.331C24.781 350.813 25.201 356.271 26.041 363.715C29.4012 385.054 41.5816 431.702 64.6825 459.492L63.0025 459.988C39.9016 431.702 27.7211 385.55 24.781 363.715C23.1009 353.79 22.6809 347.339 22.6809 347.339C22.6809 346.843 23.1009 346.346 23.5209 346.346C23.941 346.346 24.361 346.843 24.361 347.339Z" fill="white"/>
<path fill-rule="evenodd" clip-rule="evenodd" d="M410.356 96.2359C409.936 89.7847 405.736 83.3334 402.376 80.8521C393.135 73.4084 378.015 74.8971 370.454 85.3184C369.194 87.3034 367.934 90.7772 367.094 93.7547C366.254 99.7097 367.094 100.702 367.514 104.176C366.254 104.176 364.994 102.191 361.214 102.191C358.694 102.191 356.174 103.183 354.914 104.672C353.654 106.161 352.394 108.642 351.974 110.627C351.554 113.605 351.554 115.59 351.554 119.063C350.714 118.567 346.934 111.62 339.793 113.108C330.553 115.093 329.713 121.048 330.133 129.981H386.415H456.978C457.398 116.086 448.158 103.68 433.877 109.635C433.457 102.687 430.937 97.2284 426.317 94.7472C423.797 93.2584 420.856 92.2659 417.496 92.7622C413.296 93.7547 411.196 96.2359 410.356 96.2359V96.2359Z" fill="#ECECEC"/>
<path fill-rule="evenodd" clip-rule="evenodd" d="M105.478 126.507C105.058 120.552 101.278 115.093 98.3375 112.116C89.5172 105.665 76.0767 107.153 69.3564 116.582C68.0963 118.071 66.8363 121.545 66.4163 124.026C65.5762 129.981 66.4163 130.477 66.4163 133.951C65.5762 133.455 64.3162 131.47 60.5361 131.966C58.436 131.966 56.3359 132.958 55.0758 133.951C53.8158 135.44 52.5557 137.425 52.5557 139.41C52.1357 142.387 52.1357 144.372 52.1357 147.35C51.2957 146.853 47.5155 140.402 41.2153 141.891C32.815 143.38 32.395 148.838 32.395 157.275H83.637H147.899C148.319 144.372 139.919 132.958 126.899 138.417C126.479 132.462 124.379 127.5 120.178 125.018C117.658 123.53 115.138 122.537 111.778 123.53C108.418 124.026 106.318 126.507 105.478 126.507Z" fill="#ECECEC"/>
<path fill-rule="evenodd" clip-rule="evenodd" d="M238.569 29.3225C238.149 23.3675 234.369 17.9087 231.429 14.9312C222.609 8.47998 209.168 9.96873 202.448 19.3975C201.188 20.8862 199.928 24.36 199.508 26.8412C198.668 32.7963 199.508 33.2925 199.508 36.7663C198.668 36.27 197.408 34.285 193.628 34.7813C191.527 34.7813 189.427 35.7738 188.167 36.7663C186.907 38.255 185.647 40.24 185.647 42.225C185.227 45.2025 185.227 47.1875 185.227 50.165C184.387 49.6688 180.607 43.2175 174.307 44.7063C165.906 46.195 165.486 51.6538 165.486 60.09H216.728H280.991C281.411 47.1875 273.011 35.7738 259.99 41.2325C259.57 35.2775 257.47 30.315 253.27 27.8338C250.75 26.345 248.23 25.3525 244.87 26.345C241.509 26.8413 239.409 29.3225 238.569 29.3225Z" fill="#ECECEC"/>
<path fill-rule="evenodd" clip-rule="evenodd" d="M95.3438 290.766C94.0838 290.27 91.9837 290.766 88.6236 293.744C83.5834 297.714 83.5834 299.699 78.1232 297.217C73.083 295.232 68.0428 290.766 65.5227 294.24C64.6826 296.225 63.4226 301.187 64.6826 305.157C65.9427 309.624 69.7228 313.097 71.8229 316.571C76.4431 322.526 75.6031 324.015 74.343 328.481C67.2027 360.737 0.420117 454.033 77.7031 457.506C86.1035 458.003 92.4037 457.506 95.3438 457.01C101.644 457.506 120.545 458.003 125.585 456.514C178.927 441.626 123.065 358.752 116.345 328.481C115.505 324.015 114.665 322.526 118.865 316.571C121.385 313.097 124.745 309.624 126.005 305.157C127.265 301.187 126.425 296.225 125.165 294.24C122.645 290.766 118.025 295.232 112.564 297.217C107.524 299.699 107.524 297.714 102.484 293.744C98.704 290.766 97.0239 290.27 95.3438 290.766V290.766Z" fill="#009744"/>
<path fill-rule="evenodd" clip-rule="evenodd" d="M65.1025 296.225C64.2625 298.706 63.8425 302.18 64.6825 305.157C65.9426 309.624 69.7227 313.097 71.8228 316.571C76.443 322.526 75.6029 324.015 74.3429 328.481C67.6226 359.249 7.14027 445.1 68.4627 456.018C55.4422 437.16 55.4422 425.746 60.0623 405.896C64.6825 384.558 74.3429 354.286 81.9032 332.451C81.9032 332.451 83.1632 331.459 82.3232 325.007C81.4832 318.556 67.6226 305.654 65.5225 299.699C65.1025 298.706 65.1025 297.217 65.1025 296.225V296.225Z" fill="#00823D"/>
<path fill-rule="evenodd" clip-rule="evenodd" d="M117.605 322.526H71.4028V332.451H117.605V322.526Z" fill="#FDA500"/>
<path fill-rule="evenodd" clip-rule="evenodd" d="M111.724 332.451H117.605V322.526H111.724V332.451Z" fill="#FDA500"/>
<path fill-rule="evenodd" clip-rule="evenodd" d="M111.724 322.526H105.844V332.451H111.724V322.526Z" fill="#FFD115"/>
<path fill-rule="evenodd" clip-rule="evenodd" d="M105.844 322.526H84.4233V332.451H105.844V322.526Z" fill="#FBA700"/>
<path fill-rule="evenodd" clip-rule="evenodd" d="M115.084 332.451H73.5029V332.948H115.084V332.451Z" fill="#DF641D"/>
<path fill-rule="evenodd" clip-rule="evenodd" d="M118.865 405.4H389.355V438.649H118.865V405.4Z" fill="#00A0E8"/>
<path fill-rule="evenodd" clip-rule="evenodd" d="M133.565 396.964H175.987V405.4H133.565V396.964Z" fill="#2F59C8"/>
<path fill-rule="evenodd" clip-rule="evenodd" d="M197.828 241.141H239.829V250.074H197.828V241.141ZM262.09 241.141H304.092V250.074H262.09V241.141ZM326.353 241.141H368.354V250.074H326.353V241.141V241.141ZM133.565 241.141H175.987V250.074H133.565V241.141Z" fill="#2F59C8"/>
<path fill-rule="evenodd" clip-rule="evenodd" d="M137.765 250.074H170.947V396.964H137.765V250.074Z" fill="#00A0E8"/>
<path fill-rule="evenodd" clip-rule="evenodd" d="M112.984 220.795H389.355V241.141H112.984V220.795Z" fill="#00A0E8"/>
<path fill-rule="evenodd" clip-rule="evenodd" d="M118.445 214.344H383.475V220.795H118.445V214.344Z" fill="#2F59C8"/>
<path fill-rule="evenodd" clip-rule="evenodd" d="M112.564 201.441L251.59 110.131L389.355 201.441V214.344H112.564V201.441Z" fill="#5DC3F0"/>
<path fill-rule="evenodd" clip-rule="evenodd" d="M119.285 204.419V207.892H382.635V204.419L251.59 118.071L119.285 204.419Z" fill="#00A0E8"/>
<path fill-rule="evenodd" clip-rule="evenodd" d="M197.828 396.964H239.829V405.4H197.828V396.964Z" fill="#2F59C8"/>
<path fill-rule="evenodd" clip-rule="evenodd" d="M262.09 396.964H304.092V405.4H262.09V396.964Z" fill="#2F59C8"/>
<path fill-rule="evenodd" clip-rule="evenodd" d="M326.353 396.964H368.354V405.4H326.353V396.964Z" fill="#2F59C8"/>
<path fill-rule="evenodd" clip-rule="evenodd" d="M202.028 250.074H235.209V396.964H202.028V250.074Z" fill="#00A0E8"/>
<path fill-rule="evenodd" clip-rule="evenodd" d="M266.29 250.074H299.472V396.964H266.29V250.074Z" fill="#00A0E8"/>
<path fill-rule="evenodd" clip-rule="evenodd" d="M330.133 250.074H363.734V396.964H330.133V250.074Z" fill="#00A0E8"/>
<path fill-rule="evenodd" clip-rule="evenodd" d="M340.213 257.517C341.473 257.517 342.733 258.51 342.733 260.495V386.046C342.733 387.535 341.473 389.024 340.213 389.024C338.533 389.024 337.693 387.535 337.693 386.046V260.495C337.693 258.51 338.533 257.517 340.213 257.517ZM290.231 257.517C291.491 257.517 292.751 258.51 292.751 260.495V386.046C292.751 387.535 291.491 389.024 290.231 389.024C288.971 389.024 287.711 387.535 287.711 386.046V260.495C287.711 258.51 288.971 257.517 290.231 257.517ZM275.951 257.517C277.211 257.517 278.471 258.51 278.471 260.495V386.046C278.471 387.535 277.211 389.024 275.951 389.024C274.271 389.024 273.431 387.535 273.431 386.046V260.495C273.431 258.51 274.271 257.517 275.951 257.517ZM225.969 257.517C227.229 257.517 228.489 258.51 228.489 260.495V386.046C228.489 387.535 227.229 389.024 225.969 389.024C224.709 389.024 223.449 387.535 223.449 386.046V260.495C223.449 258.51 224.709 257.517 225.969 257.517ZM211.688 257.517C212.948 257.517 214.208 258.51 214.208 260.495V386.046C214.208 387.535 212.948 389.024 211.688 389.024C210.428 389.024 209.168 387.535 209.168 386.046V260.495C209.168 258.51 210.428 257.517 211.688 257.517ZM161.706 257.517C162.966 257.517 164.226 258.51 164.226 260.495V386.046C164.226 387.535 162.966 389.024 161.706 389.024C160.446 389.024 159.186 387.535 159.186 386.046V260.495C159.186 258.51 160.446 257.517 161.706 257.517ZM147.426 257.517C148.686 257.517 149.946 258.51 149.946 260.495V386.046C149.946 387.535 148.686 389.024 147.426 389.024C146.166 389.024 144.906 387.535 144.906 386.046V260.495C144.906 258.51 146.166 257.517 147.426 257.517ZM354.494 257.517C355.754 257.517 357.014 258.51 357.014 260.495V386.046C357.014 387.535 355.754 389.024 354.494 389.024C353.234 389.024 351.974 387.535 351.974 386.046V260.495C351.974 258.51 353.234 257.517 354.494 257.517Z" fill="#1880CA"/>
<path fill-rule="evenodd" clip-rule="evenodd" d="M108.784 437.657H399.016V448.574H108.784V437.657Z" fill="#2AB3E8"/>
<path fill-rule="evenodd" clip-rule="evenodd" d="M101.644 448.078H407.836V458.995H101.644V448.078Z" fill="#5DC3F0"/>
<path fill-rule="evenodd" clip-rule="evenodd" d="M13.4406 458.995H511.16C511.58 458.995 512 459.492 512 459.988V460.484C512 460.98 511.58 461.477 511.16 461.477H13.4406C13.0205 461.477 12.6005 460.98 12.6005 460.484V459.988C12.6005 459.492 13.0205 458.995 13.4406 458.995V458.995Z" fill="#19B4FC"/>
<path d="M493.939 390.017C493.099 388.528 492.259 387.039 490.999 386.047C490.159 387.535 489.739 389.024 489.319 390.513C488.899 392.002 488.899 393.49 489.319 394.483C489.319 395.972 489.319 396.964 489.739 397.957C490.579 398.949 491.419 399.445 492.679 399.445C493.939 398.949 494.779 397.46 494.779 395.475C494.779 393.987 494.779 392.002 493.939 390.017V390.017ZM477.559 388.032C476.719 388.528 475.879 388.528 475.459 387.535C475.039 387.039 475.459 385.55 475.879 385.054C481.759 380.092 486.799 379.595 490.159 381.58C491.419 380.092 493.519 379.099 495.619 378.603C502.34 376.618 507.8 387.039 506.54 390.513C505.28 388.528 503.18 380.092 496.039 382.077C494.779 382.077 493.939 382.573 493.099 383.565C494.359 385.054 495.619 386.543 496.459 388.528C497.299 391.009 497.719 393.49 497.719 395.972C497.299 398.949 496.039 401.927 493.099 402.919C490.579 403.415 488.479 401.927 487.639 399.445C486.799 398.453 486.379 396.964 486.379 394.979C486.379 393.49 486.379 391.505 486.379 390.017C486.799 388.032 487.639 386.047 488.479 384.558C485.539 383.565 481.759 384.062 477.559 388.032V388.032Z" fill="#DB4459"/>
<path d="M417.496 317.068C456.978 317.068 488.899 346.843 488.899 384.061C488.899 420.784 456.978 450.559 417.496 450.559C378.015 450.559 345.673 420.784 345.673 384.061C345.673 346.843 378.015 317.068 417.496 317.068V317.068Z" fill="url(#paint0_linear_38_259)"/>
<path fill-rule="evenodd" clip-rule="evenodd" d="M442.697 327.985C435.977 326 424.637 323.023 417.076 323.023C409.936 323.023 399.856 325.504 393.135 327.489L394.395 332.948C395.235 332.948 399.016 331.955 399.436 331.459C405.316 329.97 411.196 328.978 417.076 328.978C423.797 328.978 430.097 329.97 436.397 331.955C436.817 331.955 441.017 333.444 441.437 333.444L442.697 327.985V327.985Z" fill="#E40013"/>
<path fill-rule="evenodd" clip-rule="evenodd" d="M444.797 458.995V457.01V430.709L443.537 433.19C438.917 436.664 433.037 440.634 426.737 443.612L428.417 456.018L428.837 458.995H444.797Z" fill="#E26070"/>
<path fill-rule="evenodd" clip-rule="evenodd" d="M444.797 444.108V432.198C444.377 432.694 443.957 432.694 443.537 433.19C438.917 436.664 433.037 440.634 426.737 443.612L427.577 451.552C433.877 449.567 439.337 447.582 444.797 444.108V444.108Z" fill="#C63149"/>
<path fill-rule="evenodd" clip-rule="evenodd" d="M364.154 324.015C364.574 324.511 364.994 325.008 365.414 325.504C366.254 326 374.235 337.414 374.235 337.414C374.235 337.414 376.335 340.888 376.335 341.384C376.335 341.384 376.335 341.384 376.335 341.88C376.755 342.376 376.755 342.376 377.175 342.873V343.369C377.175 343.865 377.595 343.865 377.595 344.361V344.858C377.595 344.858 375.915 346.346 372.975 347.339C372.555 347.835 372.555 347.835 372.135 347.835C371.714 347.835 371.715 347.835 371.715 347.835C371.295 348.331 370.874 348.331 370.454 348.331C370.034 348.331 369.194 348.828 368.354 348.828C367.934 348.828 367.514 348.828 367.094 348.828H366.674C366.254 348.828 365.834 348.828 365.414 348.828H364.994C362.894 348.828 360.794 348.331 358.694 347.835L361.634 321.534C362.054 321.534 362.894 322.526 364.154 324.015V324.015Z" fill="#ED9EA8"/>
<path fill-rule="evenodd" clip-rule="evenodd" d="M372.975 458.995V457.01V430.709L374.235 433.19C378.435 436.664 384.315 440.634 391.035 443.612L389.355 456.018L388.935 458.995H372.975Z" fill="#E26070"/>
<path fill-rule="evenodd" clip-rule="evenodd" d="M372.975 441.627V432.198C373.395 432.694 373.815 432.694 374.235 433.19C378.435 436.664 384.315 440.634 391.035 443.612L389.775 450.559C383.895 448.574 378.015 445.1 372.975 441.627V441.627Z" fill="#C63149"/>
<path fill-rule="evenodd" clip-rule="evenodd" d="M369.614 316.075C370.034 316.571 370.454 317.564 371.294 318.06C371.714 318.556 380.115 329.474 379.695 329.97L381.795 333.444L382.215 333.94C382.215 334.436 382.635 334.932 382.635 335.429C383.055 335.925 383.055 336.421 383.055 336.421C383.055 336.917 383.475 336.917 383.475 336.917C383.475 336.917 381.375 338.406 378.435 339.895C378.435 339.895 378.015 339.895 377.595 339.895C377.595 340.391 377.175 340.391 377.175 340.391C376.755 340.391 376.335 340.391 376.335 340.391C375.495 340.887 374.655 340.887 373.815 340.887C373.395 340.887 373.395 341.384 372.975 341.384H372.555H372.134C371.714 341.384 371.294 341.384 370.874 341.384C370.874 341.384 370.874 341.384 370.454 341.384C368.774 341.384 366.674 340.887 364.574 339.895L367.514 313.594C367.514 314.09 368.354 314.586 369.614 316.075V316.075Z" fill="#ED9EA8"/>
<path fill-rule="evenodd" clip-rule="evenodd" d="M475.039 344.361C483.859 355.279 488.899 369.174 488.899 384.061C488.899 420.784 456.978 450.559 417.496 450.559C387.255 450.559 361.634 433.19 351.134 408.874C364.154 425.25 385.155 436.168 408.676 436.168C448.157 436.168 480.079 406.393 480.079 369.174C480.079 360.241 478.399 351.805 475.039 344.361V344.361Z" fill="#DB4459"/>
<path d="M362.894 358.753C362.474 359.249 361.634 359.745 360.794 359.249C359.954 358.753 359.954 357.76 360.374 357.264C361.634 355.279 363.314 353.79 365.414 353.294C366.674 352.798 367.934 352.301 369.194 352.798C370.875 352.798 372.135 353.294 372.975 353.79H373.395C374.655 354.783 375.495 355.775 375.915 357.264C376.335 358.256 375.915 359.249 375.075 359.249C374.655 359.745 373.815 359.249 373.395 358.753C372.975 357.76 372.135 356.768 371.715 356.271C370.875 355.775 370.034 355.775 369.194 355.279C368.354 355.279 367.094 355.775 366.254 355.775C364.994 356.272 363.734 357.264 362.894 358.753Z" fill="#C63149"/>
<path fill-rule="evenodd" clip-rule="evenodd" d="M337.693 397.957C340.213 378.107 335.593 361.234 335.593 360.738V361.73L335.173 362.227V362.723V363.219C335.173 363.219 335.173 363.219 335.173 363.715H334.753C334.753 363.715 334.753 363.715 334.753 364.212V364.708V365.204L334.333 365.7V366.197L333.913 367.685C333.913 368.182 333.913 368.182 333.913 368.678V369.174C333.913 369.67 333.913 369.67 333.913 369.67V370.167C333.493 370.167 333.493 370.167 333.493 370.167V371.159V372.152C333.493 372.648 333.073 373.64 333.073 374.137V375.625V376.618C333.073 377.114 333.073 377.114 333.073 377.114L332.653 378.603C332.653 380.092 332.653 381.58 332.653 383.069V384.558C332.653 392.498 333.493 400.438 335.593 408.874C336.433 404.904 337.273 401.43 337.693 397.957V397.957Z" fill="#E26272"/>
<path d="M435.557 321.037C435.557 309.127 427.157 299.202 416.656 299.202C406.156 299.202 397.756 309.127 397.756 321.534C397.756 325.007 398.596 328.481 399.856 331.459C405.736 329.97 411.196 329.474 417.496 329.474C422.957 329.474 428.417 329.97 433.457 331.459C434.717 328.481 435.557 325.007 435.557 321.037V321.037Z" fill="#E48926"/>
<path d="M436.817 319.549C436.817 307.639 428.417 297.714 417.916 297.714C407.416 297.714 399.016 307.639 399.016 320.045C399.016 324.015 399.856 327.985 401.536 330.962C406.576 329.97 412.036 329.474 417.496 329.474C422.957 329.474 428.837 329.97 433.877 331.459C435.557 327.985 436.817 324.015 436.817 319.549V319.549Z" fill="#FFEF95"/>
<path d="M435.977 320.541C435.977 308.135 427.577 298.21 417.076 298.21C406.576 298.21 398.176 308.135 398.176 320.541C398.176 324.511 399.436 327.985 400.696 331.459C406.156 329.97 411.616 329.474 417.496 329.474C422.957 329.474 428.417 329.97 433.877 331.459C435.137 327.985 435.977 324.511 435.977 320.541V320.541Z" fill="#FBCA0C"/>
<path d="M435.977 320.541C435.977 320.541 435.977 320.541 435.977 320.045L398.176 320.541C398.176 324.511 399.436 327.985 400.696 331.459C406.156 329.97 411.616 329.474 417.496 329.474C422.957 329.474 428.417 329.97 433.877 331.459C435.137 327.985 435.977 324.511 435.977 320.541V320.541Z" fill="#FFD815"/>
<path d="M433.457 320.541C433.457 310.12 425.897 301.684 417.076 301.684C408.256 301.684 401.116 310.12 401.116 320.541C401.116 324.511 401.956 327.985 403.636 330.466C408.256 329.97 412.876 329.474 417.496 329.474C422.116 329.474 426.317 329.97 430.937 330.466C432.197 327.489 433.457 324.015 433.457 320.541Z" fill="#FBA700"/>
<path d="M430.517 330.466H430.937H430.517ZM408.676 304.661C405.736 308.631 404.056 313.594 404.056 317.067C404.056 323.022 405.736 326.992 407.836 329.97C406.576 329.97 405.316 330.466 403.636 330.466C401.956 327.985 401.116 324.511 401.116 320.541C401.116 313.594 404.056 307.639 408.676 304.661V304.661Z" fill="#EB820E"/>
<path d="M430.517 322.03C430.517 313.097 424.217 305.654 416.236 305.654C411.616 305.654 407.836 308.135 404.896 312.105C407.416 307.142 412.036 303.669 417.496 303.669C425.057 303.669 431.357 311.112 431.357 320.541C431.357 324.015 430.517 327.489 428.837 330.466C429.677 327.985 430.517 325.007 430.517 322.03Z" fill="#FFD815"/>
<path d="M404.896 231.216C414.136 222.78 424.217 219.802 429.677 226.254C430.097 226.75 431.357 229.231 431.777 229.231C436.817 237.171 433.877 251.066 424.217 259.999C413.296 269.924 401.116 269.427 396.075 261.487C395.235 260.495 394.395 259.006 394.395 258.014C391.455 250.074 396.076 239.156 404.896 231.216V231.216Z" fill="#E48926"/>
<path d="M403.216 227.742C412.876 219.306 424.637 218.314 429.677 226.254C434.717 234.194 430.937 247.592 421.276 256.029C411.616 264.961 399.856 265.457 394.815 257.517C389.775 249.577 393.555 236.179 403.216 227.742V227.742Z" fill="#FFEF95"/>
<path d="M402.796 228.735C412.456 220.299 424.217 219.306 429.257 227.246C434.297 235.186 430.937 248.585 421.276 257.021C411.616 265.954 399.436 266.45 394.395 258.51C389.355 250.57 393.135 237.171 402.796 228.735Z" fill="#FBCA0C"/>
<path d="M402.796 228.735L421.276 257.021C411.616 265.954 399.436 266.45 394.395 258.51C389.355 250.57 393.135 237.171 402.796 228.735V228.735Z" fill="#FFD815"/>
<path d="M404.056 230.72C412.456 223.772 422.537 222.78 426.737 229.727C430.937 236.179 427.997 247.592 419.596 255.036C411.616 262.48 401.536 262.976 396.916 256.029C392.715 249.577 396.075 238.164 404.056 230.72V230.72Z" fill="#FBA700"/>
<path d="M404.056 230.72C412.456 223.772 422.537 222.78 426.737 229.727C430.937 236.179 427.997 247.592 419.596 255.036C411.616 262.48 401.536 262.976 396.916 256.029C392.715 249.577 396.075 238.164 404.056 230.72V230.72Z" stroke="#FBA700" stroke-width="0.738178" stroke-miterlimit="10"/>
<path d="M428.837 237.667C426.737 243.126 423.797 247.592 420.856 250.57C406.576 262.976 396.495 255.036 397.336 239.652C394.815 245.607 394.395 252.059 396.915 256.029C401.536 262.976 411.616 262.48 419.596 255.036C425.057 250.074 428.417 243.622 428.837 237.667V237.667Z" fill="#EB820E"/>
<path d="M404.056 234.194C411.196 227.742 420.436 227.246 424.217 233.201C426.317 236.675 426.317 241.637 424.637 246.104C427.157 240.645 427.577 235.186 425.057 231.216C421.276 225.261 412.456 225.757 404.896 232.209C401.956 234.69 399.856 238.164 398.596 241.637C399.856 238.66 401.956 236.179 404.056 234.194Z" fill="#FFD815"/>
<path fill-rule="evenodd" clip-rule="evenodd" d="M392.295 289.774L432.617 267.939L435.137 273.894L394.395 295.729L392.295 289.774Z" fill="#FDA500"/>
<path fill-rule="evenodd" clip-rule="evenodd" d="M399.856 293.247L394.395 295.729L392.295 289.774L397.336 287.292L399.856 293.247Z" fill="#FDA500"/>
<path fill-rule="evenodd" clip-rule="evenodd" d="M397.336 287.292L402.376 284.315L404.896 290.27L399.856 293.247L397.336 287.292Z" fill="#FFD115"/>
<path fill-rule="evenodd" clip-rule="evenodd" d="M402.376 284.315L421.276 273.894L423.797 280.345L404.896 290.27L402.376 284.315Z" fill="#FBA700"/>
<path fill-rule="evenodd" clip-rule="evenodd" d="M421.276 273.894L429.257 269.924L431.357 275.879L423.797 280.345L421.276 273.894Z" fill="#EB820E"/>
<path fill-rule="evenodd" clip-rule="evenodd" d="M396.495 294.736L433.457 274.886V275.382L396.916 295.232L396.495 294.736Z" fill="#DF641D"/>
<path fill-rule="evenodd" clip-rule="evenodd" d="M140.706 437.657H75.603V447.582H140.706V437.657Z" fill="#FDA500"/>
<path fill-rule="evenodd" clip-rule="evenodd" d="M132.305 447.582H140.705V437.657H132.305V447.582Z" fill="#FDA500"/>
<path fill-rule="evenodd" clip-rule="evenodd" d="M132.305 437.657H123.905V447.582H132.305V437.657Z" fill="#FFD115"/>
<path fill-rule="evenodd" clip-rule="evenodd" d="M123.905 437.657H94.0837V447.582H123.905V437.657Z" fill="#FBA700"/>
<path fill-rule="evenodd" clip-rule="evenodd" d="M94.0837 437.657H81.4832V447.582H94.0837V437.657Z" fill="#EB820E"/>
<path fill-rule="evenodd" clip-rule="evenodd" d="M137.345 447.582H78.5432V448.574H137.345V447.582Z" fill="#DF641D"/>
<path fill-rule="evenodd" clip-rule="evenodd" d="M136.505 448.574H69.3027V458.003H136.505V448.574Z" fill="#FDA500"/>
<path fill-rule="evenodd" clip-rule="evenodd" d="M128.105 458.003H136.505V448.574H128.105V458.003Z" fill="#FDA500"/>
<path fill-rule="evenodd" clip-rule="evenodd" d="M128.105 448.574H119.285V458.003H128.105V448.574Z" fill="#FFD115"/>
<path fill-rule="evenodd" clip-rule="evenodd" d="M119.285 448.574H88.2035V458.003H119.285V448.574Z" fill="#FBA700"/>
<path fill-rule="evenodd" clip-rule="evenodd" d="M88.2034 448.574H75.1829V458.003H88.2034V448.574Z" fill="#EB820E"/>
<path fill-rule="evenodd" clip-rule="evenodd" d="M133.145 458.003H72.2429V458.995H133.145V458.003Z" fill="#DF641D"/>
<path fill-rule="evenodd" clip-rule="evenodd" d="M123.065 427.235H58.3823V436.664H123.065V427.235Z" fill="#FDA500"/>
<path fill-rule="evenodd" clip-rule="evenodd" d="M115.085 436.664H123.065V427.235H115.085V436.664Z" fill="#FDA500"/>
<path fill-rule="evenodd" clip-rule="evenodd" d="M115.084 427.235H106.684V436.664H115.084V427.235Z" fill="#FFD115"/>
<path fill-rule="evenodd" clip-rule="evenodd" d="M106.684 427.235H76.863V436.664H106.684V427.235Z" fill="#FBA700"/>
<path fill-rule="evenodd" clip-rule="evenodd" d="M76.863 427.235H64.2625V436.664H76.863V427.235Z" fill="#EB820E"/>
<path fill-rule="evenodd" clip-rule="evenodd" d="M120.125 436.664H61.3224V437.657H120.125V436.664Z" fill="#DF641D"/>
<path fill-rule="evenodd" clip-rule="evenodd" d="M121.385 405.897H56.7023V415.325H121.385V405.897Z" fill="#FDA500"/>
<path fill-rule="evenodd" clip-rule="evenodd" d="M113.404 415.325H121.385V405.897H113.404V415.325Z" fill="#FDA500"/>
<path fill-rule="evenodd" clip-rule="evenodd" d="M113.404 405.897H105.004V415.325H113.404V405.897Z" fill="#FFD115"/>
<path fill-rule="evenodd" clip-rule="evenodd" d="M105.004 405.897H75.1829V415.325H105.004V405.897Z" fill="#FBA700"/>
<path fill-rule="evenodd" clip-rule="evenodd" d="M75.1829 405.897H62.5825V415.325H75.1829V405.897Z" fill="#EB820E"/>
<path fill-rule="evenodd" clip-rule="evenodd" d="M118.445 415.325H59.6424V416.318H118.445V415.325Z" fill="#DF641D"/>
<path fill-rule="evenodd" clip-rule="evenodd" d="M131.885 416.318H64.6826V426.243H131.885V416.318Z" fill="#FDA500"/>
<path fill-rule="evenodd" clip-rule="evenodd" d="M123.485 426.243H131.885V416.318H123.485V426.243Z" fill="#FDA500"/>
<path fill-rule="evenodd" clip-rule="evenodd" d="M123.485 416.318H114.664V426.243H123.485V416.318Z" fill="#FFD115"/>
<path fill-rule="evenodd" clip-rule="evenodd" d="M114.664 416.318H83.5832V426.243H114.664V416.318Z" fill="#FBA700"/>
<path fill-rule="evenodd" clip-rule="evenodd" d="M83.5833 416.318H70.5628V426.243H83.5833V416.318Z" fill="#EB820E"/>
<path fill-rule="evenodd" clip-rule="evenodd" d="M128.945 426.243H67.6227V427.235H128.945V426.243Z" fill="#DF641D"/>
<path fill-rule="evenodd" clip-rule="evenodd" d="M84.8433 437.657H20.1608V447.582H84.8433V437.657Z" fill="#FDA500"/>
<path fill-rule="evenodd" clip-rule="evenodd" d="M76.863 447.582H84.8433V437.657H76.863V447.582Z" fill="#FDA500"/>
<path fill-rule="evenodd" clip-rule="evenodd" d="M76.8631 437.657H68.4628V447.582H76.8631V437.657Z" fill="#FFD115"/>
<path fill-rule="evenodd" clip-rule="evenodd" d="M68.4627 437.657H38.6415V447.582H68.4627V437.657Z" fill="#FBA700"/>
<path fill-rule="evenodd" clip-rule="evenodd" d="M38.6415 437.657H26.041V447.582H38.6415V437.657Z" fill="#EB820E"/>
<path fill-rule="evenodd" clip-rule="evenodd" d="M81.9033 447.582H23.101V448.574H81.9033V447.582Z" fill="#DF641D"/>
<path fill-rule="evenodd" clip-rule="evenodd" d="M95.3437 448.574H28.1411V458.003H95.3437V448.574Z" fill="#FDA500"/>
<path fill-rule="evenodd" clip-rule="evenodd" d="M86.9434 458.003H95.3437V448.574H86.9434V458.003Z" fill="#FDA500"/>
<path fill-rule="evenodd" clip-rule="evenodd" d="M86.9434 448.574H78.123V458.003H86.9434V448.574Z" fill="#FFD115"/>
<path fill-rule="evenodd" clip-rule="evenodd" d="M78.123 448.574H47.0418V458.003H78.123V448.574Z" fill="#FBA700"/>
<path fill-rule="evenodd" clip-rule="evenodd" d="M47.0419 448.574H34.0214V458.003H47.0419V448.574Z" fill="#EB820E"/>
<path fill-rule="evenodd" clip-rule="evenodd" d="M91.9836 458.003H31.0812V458.995H91.9836V458.003Z" fill="#DF641D"/>
<path fill-rule="evenodd" clip-rule="evenodd" d="M230.169 155.29H271.751C280.991 155.29 288.131 163.726 288.131 174.147C288.131 184.569 280.991 193.501 271.751 193.501H230.169C220.929 193.501 213.788 184.569 213.788 174.147C213.788 163.726 220.929 155.29 230.169 155.29Z" fill="white"/>
<path fill-rule="evenodd" clip-rule="evenodd" d="M273.011 166.704C273.431 166.207 273.851 166.207 274.271 165.711H274.691C275.111 165.711 275.531 165.711 275.951 166.207C276.371 166.207 276.371 166.704 276.371 167.2C276.371 167.696 276.371 168.192 275.951 168.192C275.951 168.689 275.951 168.689 275.531 169.185L271.751 173.651L276.371 179.11C276.791 179.606 276.791 180.102 276.791 180.102C277.211 180.599 277.211 181.095 277.211 181.095C277.211 181.591 277.211 182.087 276.791 182.584C276.371 182.584 275.951 183.08 275.531 183.08C275.531 183.08 275.111 183.08 275.111 182.584C274.691 182.584 274.271 182.087 273.851 181.591L268.811 175.14V180.102C268.811 181.095 268.81 182.087 268.39 182.087C268.39 182.584 267.97 183.08 267.13 183.08C266.71 183.08 266.29 182.584 265.87 182.087C265.87 182.087 265.45 181.095 265.45 180.102V168.192C265.45 167.2 265.87 166.704 265.87 166.207C266.29 165.711 266.71 165.711 267.13 165.711C267.97 165.711 268.39 165.711 268.39 166.207C268.81 166.704 268.811 167.2 268.811 168.192V172.659L273.011 166.704V166.704ZM253.69 180.102C253.69 181.095 253.27 182.087 253.27 182.087C252.85 182.584 252.43 183.08 252.01 183.08C251.17 183.08 250.75 182.584 250.75 182.087C250.33 182.087 250.33 181.095 250.33 180.102V168.192C250.33 167.2 250.33 166.704 250.75 166.207C250.75 165.711 251.17 165.711 251.59 165.711C252.01 165.711 252.43 165.711 252.85 165.711C252.85 166.207 253.27 166.207 253.69 166.704L259.57 176.132V168.192C259.57 167.2 259.99 166.704 259.99 166.207C260.41 165.711 260.83 165.711 261.25 165.711C261.67 165.711 262.09 165.711 262.51 166.207C262.93 166.704 262.93 167.2 262.93 168.192V180.599C262.93 181.591 262.93 182.087 262.51 182.584C262.51 183.08 262.09 183.08 261.25 183.08C261.25 183.08 260.83 183.08 260.41 182.584C259.99 182.584 259.99 182.087 259.57 181.591L253.69 172.162V180.102ZM240.669 176.132H244.03L242.349 169.681L240.669 176.132ZM239.829 179.606L239.409 181.095C238.989 182.087 238.989 182.087 238.569 182.584C238.149 183.08 238.149 183.08 237.729 183.08C237.309 183.08 236.889 183.08 236.469 182.584C236.049 182.087 236.049 181.591 236.049 181.095V180.599V180.102L239.829 168.192C240.249 167.2 240.669 166.704 241.089 166.207C241.509 165.711 241.929 165.711 242.769 165.711C243.19 165.711 243.61 165.711 244.03 166.207C244.45 166.207 244.87 167.2 244.87 167.696L248.65 180.102C248.65 180.102 248.65 180.599 249.07 180.599C249.07 181.095 249.07 181.095 249.07 181.095C249.07 181.591 248.65 182.087 248.65 182.584C248.23 183.08 247.81 183.08 247.39 183.08C246.97 183.08 246.55 183.08 246.13 182.584C246.13 182.087 245.71 181.591 245.71 181.095L245.29 179.606H239.829V179.606ZM226.809 182.584C225.969 182.584 225.549 182.584 225.129 182.087C224.709 182.087 224.709 181.095 224.709 180.102V168.689C224.709 167.2 224.709 166.704 225.129 166.207C225.549 165.711 225.969 165.711 226.809 165.711H229.749C231.009 165.711 232.269 166.207 233.109 166.704C233.949 167.696 234.369 168.689 234.369 170.177C234.369 170.674 233.949 171.666 233.949 172.162C233.529 172.659 233.109 173.155 232.689 173.155C233.529 173.651 234.369 174.147 234.789 174.644C235.209 175.636 235.629 176.629 235.629 177.621C235.629 179.11 234.789 180.599 233.949 181.591C233.109 182.087 231.849 182.584 230.169 182.584H226.809V182.584ZM228.069 179.606H229.749C230.589 179.606 231.009 179.11 231.429 179.11C231.849 178.614 231.849 178.117 231.849 177.621C231.849 176.629 231.849 176.629 231.429 176.132C231.009 175.636 230.589 175.636 229.749 175.636H228.069V179.606V179.606ZM228.069 172.162H229.329C229.749 172.162 230.169 172.162 230.589 171.666C231.009 171.666 231.009 171.17 231.009 170.674C231.009 170.177 231.009 169.681 230.589 169.681C230.169 169.185 229.749 169.185 229.329 169.185H228.069V172.162V172.162Z" fill="#00A0E8"/>
<path fill-rule="evenodd" clip-rule="evenodd" d="M202.448 360.242C200.348 365.204 199.508 374.137 194.468 378.107C191.528 379.595 178.927 387.039 178.507 382.077C177.667 377.61 178.507 377.61 178.507 377.61C178.507 377.61 189.427 370.167 190.687 369.67C191.528 369.174 194.468 352.798 197.408 350.317C197.828 349.324 203.288 358.257 202.448 360.242V360.242Z" fill="#000346"/>
<path d="M190.687 459.988H204.548C205.388 459.988 205.808 459.492 205.808 458.499L205.388 450.063C205.388 450.063 204.548 449.567 203.708 449.567C203.288 449.07 202.868 448.574 202.868 448.078C202.448 446.589 200.348 446.093 199.928 447.582V448.078C199.928 448.574 199.928 449.07 199.928 449.07C199.928 450.063 199.928 450.559 199.928 450.559C199.508 450.559 199.508 451.055 199.088 451.055C199.088 451.552 199.088 451.552 199.088 451.552C198.668 452.048 198.668 452.048 198.248 452.544C197.828 453.04 197.828 453.537 197.408 453.537C197.408 453.537 197.408 453.537 197.408 454.033C196.568 454.529 195.728 455.522 194.888 455.522C193.628 455.522 191.107 456.018 189.847 458.499C189.847 459.492 190.267 459.988 190.687 459.988V459.988Z" fill="#663300"/>
<path d="M190.687 459.988H204.548C205.388 459.988 205.808 459.492 205.808 458.499H189.847C189.847 459.492 190.267 459.988 190.687 459.988Z" fill="#000346"/>
<path fill-rule="evenodd" clip-rule="evenodd" d="M202.448 347.835H212.948C215.888 347.835 219.249 349.324 220.929 351.309C223.029 354.286 222.189 389.52 221.769 394.483L220.929 394.979C220.929 413.837 223.029 433.687 222.189 451.552H215.888L207.908 403.912L203.708 395.475L196.988 394.979L195.308 394.483L197.408 350.316C198.668 348.828 200.348 347.835 202.448 347.835V347.835Z" fill="#000346"/>
<path fill-rule="evenodd" clip-rule="evenodd" d="M202.448 347.835H204.128L204.548 350.813L205.808 378.603L199.928 356.271L202.028 354.286L200.348 352.301L202.028 347.835H202.448V347.835Z" fill="#464877"/>
<path fill-rule="evenodd" clip-rule="evenodd" d="M154.566 358.753C153.726 356.271 154.566 352.301 156.246 351.309C157.086 350.813 160.446 350.316 161.286 350.813C166.327 354.286 173.887 395.475 165.066 391.505C163.806 391.505 162.546 382.077 160.026 373.144C158.346 366.196 155.406 360.738 154.566 358.753Z" fill="#000346"/>
<path fill-rule="evenodd" clip-rule="evenodd" d="M211.268 347.835L210.428 350.316L205.808 378.603L214.208 356.768L212.528 354.286L214.208 352.798L213.368 347.835C212.948 347.339 211.688 347.835 211.268 347.835V347.835Z" fill="#464877"/>
<path fill-rule="evenodd" clip-rule="evenodd" d="M203.708 347.835C202.868 353.79 205.388 371.655 205.808 378.603C206.228 378.106 211.268 352.301 211.688 347.835H206.648C205.808 347.835 204.548 347.339 203.708 347.835V347.835Z" fill="white"/>
<path fill-rule="evenodd" clip-rule="evenodd" d="M200.768 341.384C200.348 344.361 203.288 346.843 204.968 346.346V347.835C204.548 349.82 206.228 351.309 207.068 351.805C207.488 351.309 210.428 350.316 210.428 347.835V342.873C210.848 342.873 210.848 342.376 210.848 342.376C211.268 342.376 211.688 341.384 211.268 340.888C211.268 339.895 210.428 340.391 210.428 340.391C211.268 338.406 212.108 336.421 210.008 334.933C208.328 333.94 204.128 333.94 204.128 333.94L201.608 333.444C202.448 334.933 201.188 339.399 200.768 341.384V341.384Z" fill="#F4B1B1"/>
<path fill-rule="evenodd" clip-rule="evenodd" d="M208.748 344.361C207.908 346.843 207.068 347.835 204.968 348.331V346.346C205.808 346.346 207.908 345.354 208.748 344.361Z" fill="#ED8082"/>
<path fill-rule="evenodd" clip-rule="evenodd" d="M196.148 392.994H209.168L206.648 452.048H198.668L196.148 392.994Z" fill="#000346"/>
<path d="M213.788 458.003C213.788 460.484 220.929 459.492 222.189 458.995C222.609 458.995 222.609 458.003 222.609 457.507C222.609 456.514 222.609 455.025 222.189 454.033C221.769 452.544 221.769 452.544 221.349 451.552C221.349 451.552 221.349 449.567 219.249 449.07C216.728 448.078 215.888 453.04 215.468 453.537C215.048 454.529 213.788 455.522 213.788 457.507C213.788 458.003 213.788 458.003 213.788 458.003V458.003Z" fill="#663300"/>
<path d="M213.788 458.995C213.788 460.484 220.929 460.484 222.189 459.988C222.609 459.492 222.609 458.499 222.609 458.003C221.769 458.499 220.509 458.995 218.829 458.995C216.308 458.995 214.628 458.499 213.788 458.003V458.995Z" fill="#000346"/>
<path fill-rule="evenodd" clip-rule="evenodd" d="M208.748 336.421C209.588 337.414 209.588 338.406 209.168 340.391C208.748 341.384 208.748 341.88 209.588 340.888C209.588 340.888 210.428 340.391 210.428 340.888C211.268 340.888 210.848 341.88 210.848 342.376C210.428 342.376 210.008 342.873 210.008 342.873C210.008 342.873 211.268 343.369 212.108 342.376C212.948 341.384 215.888 338.406 215.468 334.436C214.628 329.474 209.588 328.978 206.648 326.496C205.388 325.504 204.548 325.008 204.548 325.008C201.188 325.008 198.668 329.474 199.928 332.451C201.608 336.918 207.068 334.436 208.748 336.421V336.421Z" fill="#000346"/>
<path fill-rule="evenodd" clip-rule="evenodd" d="M225.549 402.919C225.549 402.919 225.549 399.445 226.389 399.445C226.809 398.949 229.749 399.445 229.749 399.445C229.749 399.445 230.589 399.445 230.589 400.438C230.589 401.927 230.589 402.919 230.589 402.919H229.749V400.934C229.329 400.438 226.809 400.934 226.809 400.934C226.809 400.934 226.389 400.934 226.389 401.43C226.389 402.423 226.389 402.919 226.389 402.919H225.549V402.919Z" fill="#082877"/>
<path fill-rule="evenodd" clip-rule="evenodd" d="M215.888 402.423H222.189V433.19H215.888V402.423Z" fill="#FBA700"/>
<path fill-rule="evenodd" clip-rule="evenodd" d="M222.189 402.423L237.309 402.919V433.19H222.189V402.423Z" fill="#EB820E"/>
<path fill-rule="evenodd" clip-rule="evenodd" d="M236.889 402.919L237.309 405.4V433.19H222.189V423.762C230.589 438.649 235.629 415.822 236.889 402.919V402.919Z" fill="#CA6E03"/>
<path fill-rule="evenodd" clip-rule="evenodd" d="M164.226 393.49C164.226 393.49 164.646 392.498 164.646 392.994L164.226 395.475C164.226 395.475 164.646 395.475 165.066 395.475C165.066 394.979 165.066 394.979 165.066 394.979V395.475C165.066 395.475 165.486 395.972 165.906 395.475C165.906 394.979 166.327 395.475 166.327 395.475V395.972C167.167 395.972 167.167 394.979 167.167 395.475C167.587 395.972 167.587 395.972 168.007 395.475C168.007 394.979 168.007 394.483 168.007 393.987C168.007 392.994 168.007 391.009 167.587 390.513C167.167 390.017 165.486 390.513 165.066 390.513C164.646 390.513 162.966 392.994 164.226 393.49V393.49Z" fill="#F4B1B1"/>
<path fill-rule="evenodd" clip-rule="evenodd" d="M204.548 366.693C205.388 371.159 205.808 376.122 205.808 378.603C207.068 374.633 207.488 370.167 208.328 366.197L207.488 355.279L208.328 353.79L207.068 352.301L205.808 353.79L206.228 355.279L204.548 366.693V366.693Z" fill="#FF0066"/>
<path fill-rule="evenodd" clip-rule="evenodd" d="M212.948 363.219H217.568V364.212H212.948V363.219Z" fill="#464877"/>
<path fill-rule="evenodd" clip-rule="evenodd" d="M177.247 378.107C176.827 377.61 176.407 376.618 174.727 376.618C174.307 376.618 173.467 377.61 173.467 377.61C173.467 377.61 173.887 378.107 174.307 378.107C174.307 378.107 174.727 378.107 175.147 378.107C173.887 381.084 170.107 380.588 170.107 382.077C171.367 383.069 172.627 385.55 179.767 382.077C179.767 381.58 179.767 379.595 178.927 378.603L177.247 378.107V378.107Z" fill="#F4B1B1"/>
<path fill-rule="evenodd" clip-rule="evenodd" d="M169.267 458.995H154.986C154.146 458.995 153.726 458.499 153.726 458.003C153.726 457.507 153.726 457.507 153.726 457.507L154.146 448.574C154.146 448.574 154.986 448.574 155.826 448.078C156.246 448.078 156.666 447.582 156.666 447.085C157.086 445.597 159.186 444.604 159.606 446.589V447.085C159.606 447.582 159.606 448.078 160.026 448.078C160.026 449.07 160.026 449.567 160.026 449.567L160.446 450.063C160.446 450.559 160.446 450.559 160.866 450.559C160.866 451.055 160.866 451.055 161.286 451.552C161.706 452.048 161.706 452.544 162.126 452.544V453.04C162.966 454.033 163.806 454.529 164.647 454.529C166.327 455.025 168.847 455.025 169.687 457.507C170.107 457.507 170.107 457.507 170.107 458.003C170.107 458.499 169.687 458.995 169.267 458.995V458.995Z" fill="#F64444"/>
<path d="M169.267 458.995H154.986C154.146 458.995 153.726 458.499 153.726 458.003H170.107C170.107 458.499 169.687 458.995 169.267 458.995V458.995Z" fill="#000346"/>
<path fill-rule="evenodd" clip-rule="evenodd" d="M137.345 391.505C137.345 411.852 139.445 430.709 140.285 450.559H147.006L152.046 401.43L162.126 402.919L162.546 389.52C162.126 343.369 141.546 353.79 143.226 380.092C143.646 383.069 136.505 388.528 137.345 391.505Z" fill="#000346"/>
<path fill-rule="evenodd" clip-rule="evenodd" d="M162.546 393.987H149.946L154.146 450.559L160.866 451.055L162.546 393.987Z" fill="#000346"/>
<path fill-rule="evenodd" clip-rule="evenodd" d="M149.106 458.499C149.106 460.484 141.966 459.988 140.706 458.995C140.285 458.995 139.865 458.499 139.865 457.507C139.865 456.514 140.285 455.522 140.706 454.033C141.126 452.544 140.706 452.544 141.126 451.552C141.126 451.552 141.126 449.567 143.646 449.07C145.746 448.078 146.586 453.04 147.006 453.537C147.426 454.529 149.106 455.522 149.106 457.507C149.106 458.003 149.106 458.003 149.106 458.499V458.499Z" fill="#F64444"/>
<path d="M149.106 458.499C149.106 460.484 141.966 459.988 140.706 458.995C140.285 458.995 139.865 458.499 139.865 457.507C140.706 458.003 141.966 458.499 144.066 458.499C146.586 458.995 148.266 458.499 149.106 457.507C149.106 458.003 149.106 458.003 149.106 458.499Z" fill="#000346"/>
<path fill-rule="evenodd" clip-rule="evenodd" d="M142.386 346.843C136.505 346.843 133.145 351.805 133.145 358.256C132.725 367.189 136.505 382.077 135.665 397.46C144.906 397.46 154.566 395.972 163.386 395.972C163.806 388.528 163.806 365.204 162.126 351.805C159.186 345.85 147.426 346.843 142.386 346.843V346.843Z" fill="#000346"/>
<path fill-rule="evenodd" clip-rule="evenodd" d="M152.466 346.843C156.246 349.324 157.086 368.181 158.346 395.972H148.266C147.846 368.678 144.066 351.309 142.806 346.843C145.746 346.346 148.686 346.346 152.466 346.843V346.843Z" fill="white"/>
<path fill-rule="evenodd" clip-rule="evenodd" d="M154.566 342.873C153.306 344.361 152.046 345.354 151.206 345.354V346.843V347.339C152.046 349.324 151.626 352.301 150.366 353.294C148.266 352.301 145.326 350.316 144.486 346.843H144.906L145.326 346.346L145.746 342.376C145.746 342.376 144.486 341.384 144.066 340.888C144.066 340.888 143.646 339.895 143.646 338.903C143.646 338.406 144.906 338.903 144.906 338.903C144.066 336.421 142.806 333.94 145.326 332.451C147.426 330.963 152.466 331.459 152.466 331.459L155.406 330.963C154.986 331.955 154.986 335.429 154.986 337.91C155.406 339.895 155.826 340.888 154.566 342.873V342.873Z" fill="#F4B1B1"/>
<path fill-rule="evenodd" clip-rule="evenodd" d="M147.006 343.369C147.006 343.369 147.846 346.843 149.106 347.339C150.366 348.331 150.366 347.835 151.206 348.331V345.354C149.946 345.354 149.106 345.354 147.006 343.369V343.369Z" fill="#E88285"/>
<path fill-rule="evenodd" clip-rule="evenodd" d="M141.966 353.294C139.866 350.316 137.765 349.324 134.825 351.309C130.205 355.775 139.866 371.655 146.166 378.107C148.686 381.084 163.806 383.565 165.487 382.573C166.327 382.573 170.527 380.588 167.587 376.618C167.587 376.618 154.986 373.144 153.726 372.152C151.626 371.159 143.646 355.279 141.966 353.294Z" fill="#000346"/>
<path fill-rule="evenodd" clip-rule="evenodd" d="M167.587 377.114C166.327 377.61 165.066 378.603 164.226 380.092C163.386 381.58 162.966 382.573 164.646 382.573C165.906 382.573 168.847 382.573 168.847 382.573C170.527 381.084 170.527 379.099 170.527 377.61L167.587 377.114V377.114Z" fill="#000346"/>
<path fill-rule="evenodd" clip-rule="evenodd" d="M170.107 377.61L172.207 378.107L174.727 377.114L176.407 377.61C176.407 377.61 175.147 378.603 175.567 378.603C175.987 379.099 178.927 379.595 178.927 379.595C175.567 386.047 173.887 381.58 169.267 382.077C167.587 382.077 169.687 378.107 170.107 377.61V377.61Z" fill="#F4B1B1"/>
<path fill-rule="evenodd" clip-rule="evenodd" d="M152.466 323.519C159.186 326 156.666 333.94 152.886 334.436C150.786 334.932 148.686 332.947 147.006 334.436C146.166 335.429 146.166 337.414 147.006 339.895C147.006 340.391 147.426 340.888 146.586 340.391C146.166 339.895 145.326 339.399 145.326 339.895C144.486 340.391 144.906 341.384 145.326 341.384C145.326 341.88 145.746 341.88 145.746 341.88C145.746 341.88 144.486 342.376 143.646 341.384C139.025 335.429 140.285 327.985 149.106 325.504C150.366 325.504 150.786 323.022 152.466 323.519Z" fill="#000346"/>
<path fill-rule="evenodd" clip-rule="evenodd" d="M215.048 359.249C214.208 356.768 214.628 351.805 217.149 350.316C217.569 350.316 218.829 349.324 220.089 350.316C228.069 355.279 236.889 402.423 226.809 397.46C225.549 396.964 223.869 386.543 221.349 376.122C219.249 367.685 215.888 361.234 215.048 359.249V359.249Z" fill="#000346"/>
<path fill-rule="evenodd" clip-rule="evenodd" d="M225.969 399.445C225.969 399.445 226.389 398.453 226.389 398.949L225.969 401.43C225.969 401.43 226.809 401.927 226.809 401.43C227.229 400.934 227.229 400.934 227.229 400.934V401.927C227.229 401.927 227.649 402.423 227.649 401.927C228.069 401.43 228.489 401.927 228.489 401.927V402.423C229.329 402.423 229.329 401.43 229.749 401.927C229.749 402.423 230.169 402.423 230.169 401.927C230.589 401.43 230.589 400.438 230.589 400.438C230.589 398.949 230.589 396.964 229.749 396.468C229.329 395.972 227.649 395.972 227.229 395.972C226.809 396.468 224.289 398.949 225.969 399.445V399.445Z" fill="#F4B1B1"/>
<path fill-rule="evenodd" clip-rule="evenodd" d="M112.984 230.72H389.355V241.141H112.984V230.72Z" fill="#5DC3F0"/>
<path d="M441.437 459.988C441.437 459.988 430.517 446.589 433.037 439.145C435.137 432.198 442.697 434.183 442.697 428.228C442.277 421.777 438.917 411.852 444.797 405.897C450.258 399.942 457.818 405.897 460.338 395.475C462.018 387.039 466.218 382.077 472.518 385.054C478.399 388.032 482.179 393.987 480.079 406.889C478.399 420.784 487.219 418.303 485.959 428.724C484.279 438.649 477.559 437.657 473.778 443.612C472.098 446.589 473.358 460.484 463.278 459.988H441.437V459.988Z" fill="#AFBAFF"/>
<path d="M470.838 390.017C470.838 390.017 470.838 390.513 470.838 391.009C470.838 392.498 470.418 395.475 469.578 400.438C467.898 413.837 460.338 442.619 446.057 459.492C445.637 459.988 445.637 459.988 445.637 459.988H446.897C461.178 442.619 468.738 413.837 470.838 400.438C471.678 394.483 471.678 390.513 471.678 390.513C471.678 390.017 471.678 389.52 471.258 389.52L470.838 390.017V390.017Z" fill="white"/>
<path fill-rule="evenodd" clip-rule="evenodd" d="M449.838 459.988C449.838 459.988 449.838 446.093 455.718 443.115C461.598 440.634 467.478 438.649 467.898 432.198C468.318 426.243 470.838 419.295 479.659 420.784C484.699 421.777 483.859 414.829 489.319 414.829C492.679 414.333 494.359 418.799 494.359 422.769C493.939 427.732 491.419 431.702 493.099 435.672C495.619 441.13 496.039 450.063 488.479 451.552C480.919 452.544 487.219 460.98 477.139 459.988H473.779H449.838Z" fill="#D8DDFF"/>
<path d="M488.479 418.799C487.219 424.754 483.859 432.694 478.819 440.138C473.779 447.582 467.058 456.514 459.918 459.492C459.918 459.492 459.498 459.492 459.498 459.988H461.178C468.318 456.514 474.619 448.078 479.659 440.634C484.699 433.19 488.479 425.25 489.319 419.295C489.319 418.799 489.319 418.303 488.899 418.303L488.479 418.799Z" fill="white"/>
<path d="M400.696 358.257H431.777C430.097 361.73 429.257 363.219 428.837 363.715H420.436C421.696 365.204 422.537 367.189 422.957 369.174H431.777V369.67C429.677 373.144 428.837 374.633 428.837 374.633H422.957C422.957 376.618 422.117 378.603 420.856 381.084C419.176 384.062 417.496 385.55 415.816 386.047C412.876 388.032 409.936 389.024 406.996 389.024C406.996 389.024 407.836 390.017 409.096 392.002L424.637 413.837V414.829C424.637 414.829 424.637 414.829 424.217 414.829H417.496C405.316 398.453 399.016 390.017 399.016 390.017V385.054L399.436 384.558C400.276 385.054 401.536 385.054 403.216 385.054C409.936 385.054 414.136 382.077 415.816 377.114C416.236 376.122 416.236 375.625 416.236 374.633H397.756H397.336C399.436 371.159 400.696 369.174 400.696 369.174H415.396C414.556 367.189 412.876 365.7 410.356 364.708C408.676 363.715 407.416 363.715 405.736 363.715H397.756V363.219C399.436 359.745 400.696 358.257 400.696 358.257V358.257Z" fill="white"/>
<path d="M412.036 313.594H420.436C420.016 314.586 419.596 315.082 419.596 315.082H417.496C417.916 315.579 417.916 316.075 417.916 316.571H420.436C420.016 317.564 419.596 318.06 419.596 318.06H418.336C418.336 318.556 417.916 319.052 417.496 320.045C417.076 320.541 416.656 321.037 416.236 321.037C415.396 321.534 414.556 322.03 413.716 322.03C413.716 322.03 414.136 322.03 414.556 322.526L418.756 328.481V328.977C418.756 328.977 418.756 328.977 418.336 328.977H416.656C413.296 324.511 411.616 322.03 411.616 322.03V321.037V320.541C412.036 321.037 412.456 321.037 412.876 321.037C414.556 321.037 415.816 320.045 416.236 318.556C416.236 318.556 416.236 318.556 416.236 318.06H411.196C412.036 317.067 412.036 316.571 412.036 316.571H416.236C415.816 316.075 415.396 315.579 414.976 315.579C414.136 315.082 413.716 315.082 413.716 315.082H411.196C412.036 314.09 412.036 313.594 412.036 313.594V313.594Z" fill="white"/>
<path d="M411.616 235.186L418.336 239.156C417.496 239.652 417.076 240.149 416.656 240.149L414.976 239.156C414.976 239.652 414.976 240.149 414.556 240.645L416.656 241.637C415.816 242.63 414.976 242.63 414.976 242.63L413.716 242.134C413.716 242.63 413.296 242.63 412.456 243.126C411.616 243.622 411.196 244.119 410.356 243.622C409.516 244.119 409.096 243.622 408.256 243.126C408.256 243.622 408.256 243.622 408.256 244.615V251.562V252.059L406.576 251.066C406.576 245.607 406.576 242.63 406.576 242.63L407.416 241.141C407.416 241.637 407.836 241.637 407.836 242.134C409.516 242.63 410.776 242.63 412.036 241.637L412.456 241.141L408.256 238.66C409.516 238.164 409.936 237.667 409.936 237.667L412.876 239.652C413.296 239.156 412.876 238.66 412.876 237.667C412.456 237.667 412.036 237.171 412.036 237.171L409.936 236.179V235.682C411.196 235.186 411.616 235.186 411.616 235.186V235.186Z" fill="white"/>
<defs>
<linearGradient id="paint0_linear_38_259" x1="417.496" y1="437.16" x2="417.496" y2="340.391" gradientUnits="userSpaceOnUse">
<stop stop-color="#DF5267"/>
<stop offset="0.490196" stop-color="#E98898"/>
<stop offset="1" stop-color="#F4BFCA"/>
</linearGradient>
</defs>
</svg>
