<?xml version="1.0" encoding="UTF-8"?>
<!DOCTYPE svg PUBLIC "-//W3C//DTD SVG 1.1//EN" "http://www.w3.org/Graphics/SVG/1.1/DTD/svg11.dtd">
<!-- Creator: CorelDRAW 2021 (64-Bit) -->
<svg xmlns="http://www.w3.org/2000/svg" xml:space="preserve" width="450px" height="320px" version="1.1" style="shape-rendering:geometricPrecision; text-rendering:geometricPrecision; image-rendering:optimizeQuality; fill-rule:evenodd; clip-rule:evenodd"
viewBox="0 0 12.19 8.67"
 xmlns:xlink="http://www.w3.org/1999/xlink"
 xmlns:xodm="http://www.corel.com/coreldraw/odm/2003">
 <defs>
  <style type="text/css">
   <![CDATA[
    .str0 {stroke:#FBA700;stroke-width:0.02;stroke-miterlimit:10}
    .fil48 {fill:none}
    .fil31 {fill:none;fill-rule:nonzero}
    .fil34 {fill:#000346}
    .fil4 {fill:#00823D}
    .fil3 {fill:#009744}
    .fil9 {fill:#00A0E8}
    .fil40 {fill:#082877}
    .fil12 {fill:#1880CA}
    .fil14 {fill:#19B4FC}
    .fil13 {fill:#2AB3E8}
    .fil10 {fill:#2F59C8}
    .fil37 {fill:#464877}
    .fil11 {fill:#5DC3F0}
    .fil19 {fill:#C63149}
    .fil41 {fill:#CA6E03}
    .fil46 {fill:#D8DDFF}
    .fil22 {fill:#DB4459}
    .fil8 {fill:#DF641D}
    .fil18 {fill:#E26070}
    .fil24 {fill:#E26272}
    .fil17 {fill:#E40013}
    .fil44 {fill:#E88285}
    .fil32 {fill:#EB820E}
    .fil39 {fill:#ED8082}
    .fil20 {fill:#ED9EA8}
    .fil38 {fill:#F4B1B1}
    .fil43 {fill:#F64444}
    .fil7 {fill:#FBA700}
    .fil5 {fill:#FDA500}
    .fil42 {fill:#FF0066}
    .fil6 {fill:#FFD115}
    .fil33 {fill:white}
    .fil2 {fill:white}
    .fil36 {fill:#000346;fill-rule:nonzero}
    .fil35 {fill:#663300;fill-rule:nonzero}
    .fil45 {fill:#AFBAFF;fill-rule:nonzero}
    .fil23 {fill:#C63149;fill-rule:nonzero}
    .fil0 {fill:#C8CFFF;fill-rule:nonzero}
    .fil15 {fill:#DB4459;fill-rule:nonzero}
    .fil25 {fill:#E48926;fill-rule:nonzero}
    .fil30 {fill:#EB820E;fill-rule:nonzero}
    .fil29 {fill:#FBA700;fill-rule:nonzero}
    .fil27 {fill:#FBCA0C;fill-rule:nonzero}
    .fil28 {fill:#FFD815;fill-rule:nonzero}
    .fil26 {fill:#FFEF95;fill-rule:nonzero}
    .fil1 {fill:white;fill-rule:nonzero}
    .fil47 {fill:white;fill-rule:nonzero}
    .fil16 {fill:url(#id1);fill-rule:nonzero}
    .fil21 {fill:url(#id2);fill-rule:nonzero}
   ]]>
  </style>
   <clipPath id="id0">
    <path d="M0 0l12.19 0 0 8.67 -12.19 0 0 -8.67z"/>
   </clipPath>
  <linearGradient id="id1" gradientUnits="userSpaceOnUse" x1="9.94" y1="7.73" x2="9.94" y2="5.78">
   <stop offset="0" style="stop-opacity:1; stop-color:#DF5267"/>
   <stop offset="0.490196" style="stop-opacity:1; stop-color:#E98898"/>
   <stop offset="1" style="stop-opacity:1; stop-color:#F4BFCA"/>
  </linearGradient>
  <linearGradient id="id2" gradientUnits="userSpaceOnUse" xlink:href="#id1" x1="8.16" y1="7.06" x2="8.16" y2="6.36">
  </linearGradient>
 </defs>
 <g id="Layer_x0020_1">
  <metadata id="CorelCorpID_0Corel-Layer"/>
  <g>
  </g>
  <g style="clip-path:url(#id0)">
   <g>
    <g id="_2697884089184">
     <path class="fil0" d="M1.71 8.19c0,0 0.42,-0.44 0.33,-0.67 -0.1,-0.24 -0.38,-0.17 -0.37,-0.37 0,-0.2 0.14,-0.53 -0.08,-0.72 -0.22,-0.19 -0.5,0 -0.6,-0.34 -0.08,-0.27 -0.24,-0.44 -0.48,-0.34 -0.22,0.09 -0.36,0.3 -0.29,0.72 0.07,0.44 -0.27,0.37 -0.21,0.7 0.05,0.33 0.31,0.28 0.46,0.49 0.06,0.09 0.02,0.55 0.4,0.53l0.84 0z"/>
     <path class="fil1" d="M0.58 5.92c0,0 0,0.01 0,0.02 0.01,0.05 0.02,0.16 0.04,0.31 0.08,0.43 0.37,1.37 0.92,1.93 0,0 0,0 0,0l-0.04 0.01c-0.55,-0.57 -0.84,-1.5 -0.91,-1.94 -0.04,-0.2 -0.05,-0.33 -0.05,-0.33 0,-0.01 0.01,-0.02 0.02,-0.02 0.01,0 0.02,0.01 0.02,0.02z"/>
     <path class="fil2" d="M9.77 0.86c-0.01,-0.13 -0.11,-0.26 -0.19,-0.31 -0.22,-0.15 -0.58,-0.12 -0.76,0.09 -0.03,0.04 -0.06,0.11 -0.08,0.17 -0.02,0.12 0,0.14 0.01,0.21 -0.03,0 -0.06,-0.04 -0.15,-0.04 -0.06,0 -0.12,0.02 -0.15,0.05 -0.03,0.03 -0.06,0.08 -0.07,0.12 -0.01,0.06 -0.01,0.1 -0.01,0.17 -0.02,-0.01 -0.11,-0.15 -0.28,-0.12 -0.22,0.04 -0.24,0.16 -0.23,0.34l1.34 0 0 0 1.68 0c0.01,-0.28 -0.21,-0.53 -0.55,-0.41 -0.01,-0.14 -0.07,-0.25 -0.18,-0.3 -0.06,-0.03 -0.13,-0.05 -0.21,-0.04 -0.1,0.02 -0.15,0.07 -0.17,0.07z"/>
     <path class="fil2" d="M2.93 1.47c-0.01,-0.12 -0.1,-0.23 -0.17,-0.29 -0.21,-0.13 -0.53,-0.1 -0.69,0.09 -0.03,0.03 -0.06,0.1 -0.07,0.15 -0.02,0.12 0,0.13 0,0.2 -0.02,-0.01 -0.05,-0.05 -0.14,-0.04 -0.05,0 -0.1,0.02 -0.13,0.04 -0.03,0.03 -0.06,0.07 -0.06,0.11 -0.01,0.06 -0.01,0.1 -0.01,0.16 -0.02,-0.01 -0.11,-0.14 -0.26,-0.11 -0.2,0.03 -0.21,0.14 -0.21,0.31l1.22 0 0 0 1.53 0c0.01,-0.26 -0.19,-0.49 -0.5,-0.38 -0.01,-0.12 -0.06,-0.22 -0.16,-0.27 -0.06,-0.03 -0.12,-0.05 -0.2,-0.03 -0.08,0.01 -0.13,0.06 -0.15,0.06z"/>
     <path class="fil3" d="M2.27 4.78c-0.03,-0.01 -0.08,0 -0.16,0.06 -0.12,0.08 -0.12,0.12 -0.25,0.07 -0.12,-0.04 -0.24,-0.13 -0.3,-0.06 -0.02,0.04 -0.05,0.14 -0.02,0.22 0.03,0.09 0.12,0.16 0.17,0.23 0.11,0.12 0.09,0.15 0.06,0.24 -0.17,0.65 -1.76,2.53 0.08,2.6 0.2,0.01 0.35,0 0.42,-0.01 0.15,0.01 0.6,0.02 0.72,-0.01 1.27,-0.3 -0.06,-1.97 -0.22,-2.58 -0.02,-0.09 -0.04,-0.12 0.06,-0.24 0.06,-0.07 0.14,-0.14 0.17,-0.23 0.03,-0.08 0.01,-0.18 -0.02,-0.22 -0.06,-0.07 -0.17,0.02 -0.3,0.06 -0.12,0.05 -0.12,0.01 -0.24,-0.07 -0.09,-0.06 -0.13,-0.07 -0.17,-0.06z"/>
     <path class="fil4" d="M1.55 4.89c-0.02,0.05 -0.03,0.12 -0.01,0.18 0.03,0.09 0.12,0.16 0.17,0.23 0.11,0.12 0.09,0.15 0.06,0.24 -0.16,0.62 -1.6,2.35 -0.14,2.57 -0.31,-0.38 -0.31,-0.61 -0.2,-1.01 0.11,-0.43 0.34,-1.04 0.52,-1.48 0,0 0.03,-0.02 0.01,-0.15 -0.02,-0.13 -0.35,-0.39 -0.4,-0.51 -0.01,-0.02 -0.01,-0.05 -0.01,-0.07z"/>
     <polygon class="fil5" points="2.8,5.42 1.7,5.42 1.7,5.62 2.8,5.62 "/>
     <polygon class="fil5" points="2.66,5.62 2.8,5.62 2.8,5.42 2.66,5.42 "/>
     <polygon class="fil6" points="2.66,5.42 2.52,5.42 2.52,5.62 2.66,5.62 "/>
     <polygon class="fil7" points="2.52,5.42 2.01,5.42 2.01,5.62 2.52,5.62 "/>
     <polygon class="fil8" points="2.74,5.62 1.75,5.62 1.75,5.63 2.74,5.63 "/>
     <polygon class="fil9" points="2.83,7.09 9.27,7.09 9.27,7.76 2.83,7.76 "/>
     <polygon class="fil10" points="3.18,6.92 4.19,6.92 4.19,7.09 3.18,7.09 "/>
     <path class="fil10" d="M4.71 3.78l1 0 0 0.18 -1 0 0 -0.18zm1.53 0l0 0 1 0 0 0.18 -1 0 0 -0.18zm1.53 0l0 0 1 0 0 0.18 -1 0 0 -0.18zm-4.59 0l0 0 1.01 0 0 0.18 -1.01 0 0 -0.18z"/>
     <polygon class="fil9" points="3.28,3.96 4.07,3.96 4.07,6.92 3.28,6.92 "/>
     <polygon class="fil9" points="2.69,3.37 9.27,3.37 9.27,3.78 2.69,3.78 "/>
     <polygon class="fil10" points="2.82,3.24 9.13,3.24 9.13,3.37 2.82,3.37 "/>
     <polygon class="fil11" points="2.68,2.98 5.99,1.14 9.27,2.98 9.27,3.24 2.68,3.24 "/>
     <polygon class="fil9" points="2.84,3.04 2.84,3.11 9.11,3.11 9.11,3.04 5.99,1.3 "/>
     <polygon class="fil10" points="4.71,6.92 5.71,6.92 5.71,7.09 4.71,7.09 "/>
     <polygon class="fil10" points="6.24,6.92 7.24,6.92 7.24,7.09 6.24,7.09 "/>
     <polygon class="fil10" points="7.77,6.92 8.77,6.92 8.77,7.09 7.77,7.09 "/>
     <polygon class="fil9" points="4.81,3.96 5.6,3.96 5.6,6.92 4.81,6.92 "/>
     <polygon class="fil9" points="6.34,3.96 7.13,3.96 7.13,6.92 6.34,6.92 "/>
     <polygon class="fil9" points="7.86,3.96 8.66,3.96 8.66,6.92 7.86,6.92 "/>
     <path class="fil12" d="M8.1 4.11c0.03,0 0.06,0.02 0.06,0.06l0 2.53c0,0.03 -0.03,0.06 -0.06,0.06 -0.04,0 -0.06,-0.03 -0.06,-0.06l0 -2.53c0,-0.04 0.02,-0.06 0.06,-0.06zm-1.19 0l0 0c0.03,0 0.06,0.02 0.06,0.06l0 2.53c0,0.03 -0.03,0.06 -0.06,0.06 -0.03,0 -0.06,-0.03 -0.06,-0.06l0 -2.53c0,-0.04 0.03,-0.06 0.06,-0.06zm-0.34 0l0 0c0.03,0 0.06,0.02 0.06,0.06l0 2.53c0,0.03 -0.03,0.06 -0.06,0.06 -0.04,0 -0.06,-0.03 -0.06,-0.06l0 -2.53c0,-0.04 0.02,-0.06 0.06,-0.06zm-1.19 0l0 0c0.03,0 0.06,0.02 0.06,0.06l0 2.53c0,0.03 -0.03,0.06 -0.06,0.06 -0.03,0 -0.06,-0.03 -0.06,-0.06l0 -2.53c0,-0.04 0.03,-0.06 0.06,-0.06zm-0.34 0l0 0c0.03,0 0.06,0.02 0.06,0.06l0 2.53c0,0.03 -0.03,0.06 -0.06,0.06 -0.03,0 -0.06,-0.03 -0.06,-0.06l0 -2.53c0,-0.04 0.03,-0.06 0.06,-0.06zm-1.19 0l0 0c0.03,0 0.06,0.02 0.06,0.06l0 2.53c0,0.03 -0.03,0.06 -0.06,0.06 -0.03,0 -0.06,-0.03 -0.06,-0.06l0 -2.53c0,-0.04 0.03,-0.06 0.06,-0.06zm-0.34 0l0 0c0.03,0 0.06,0.02 0.06,0.06l0 2.53c0,0.03 -0.03,0.06 -0.06,0.06 -0.03,0 -0.06,-0.03 -0.06,-0.06l0 -2.53c0,-0.04 0.03,-0.06 0.06,-0.06zm4.93 0l0 0c0.03,0 0.06,0.02 0.06,0.06l0 2.53c0,0.03 -0.03,0.06 -0.06,0.06 -0.03,0 -0.06,-0.03 -0.06,-0.06l0 -2.53c0,-0.04 0.03,-0.06 0.06,-0.06z"/>
     <polygon class="fil13" points="2.59,7.74 9.5,7.74 9.5,7.96 2.59,7.96 "/>
     <polygon class="fil11" points="2.42,7.95 9.71,7.95 9.71,8.17 2.42,8.17 "/>
     <path class="fil14" d="M0.32 8.17l11.85 0c0.01,0 0.02,0.01 0.02,0.02l0 0.01c0,0.01 -0.01,0.02 -0.02,0.02l-11.85 0c-0.01,0 -0.02,-0.01 -0.02,-0.02l0 -0.01c0,-0.01 0.01,-0.02 0.02,-0.02z"/>
     <path class="fil15" d="M11.76 6.78c-0.02,-0.03 -0.04,-0.06 -0.07,-0.08 -0.02,0.03 -0.03,0.06 -0.04,0.09 -0.01,0.03 -0.01,0.06 0,0.08 0,0.03 0,0.05 0.01,0.07 0.02,0.02 0.04,0.03 0.07,0.03 0.03,-0.01 0.05,-0.04 0.05,-0.08l0 0c0,-0.03 0,-0.07 -0.02,-0.11zm-0.39 -0.04l0 0c-0.02,0.01 -0.04,0.01 -0.05,-0.01 -0.01,-0.01 0,-0.04 0.01,-0.05 0.14,-0.1 0.26,-0.11 0.34,-0.07 0.03,-0.03 0.08,-0.05 0.13,-0.06 0.16,-0.04 0.29,0.17 0.26,0.24 -0.03,-0.04 -0.08,-0.21 -0.25,-0.17 -0.03,0 -0.05,0.01 -0.07,0.03 0.03,0.03 0.06,0.06 0.08,0.1 0.02,0.05 0.03,0.1 0.03,0.15l0 0 0 0c-0.01,0.06 -0.04,0.12 -0.11,0.14 -0.06,0.01 -0.11,-0.02 -0.13,-0.07 -0.02,-0.02 -0.03,-0.05 -0.03,-0.09 0,-0.03 0,-0.07 0,-0.1 0.01,-0.04 0.03,-0.08 0.05,-0.11 -0.07,-0.02 -0.16,-0.01 -0.26,0.07z"/>
     <path class="fil16" d="M9.94 5.31c0.94,0 1.7,0.6 1.7,1.35 0,0.74 -0.76,1.34 -1.7,1.34 -0.94,0 -1.71,-0.6 -1.71,-1.34 0,-0.75 0.77,-1.35 1.71,-1.35z"/>
     <path class="fil17" d="M10.54 5.53c-0.16,-0.04 -0.43,-0.1 -0.61,-0.1 -0.17,0 -0.41,0.05 -0.57,0.09l0.03 0.11c0.02,0 0.11,-0.02 0.12,-0.03 0.14,-0.03 0.28,-0.05 0.42,-0.05 0.16,0 0.31,0.02 0.46,0.06 0.01,0 0.11,0.03 0.12,0.03l0.03 -0.11z"/>
     <path class="fil18" d="M10.59 8.17l0 -0.04 0 -0.53 -0.03 0.05c-0.11,0.07 -0.25,0.15 -0.4,0.21l0.04 0.25 0.01 0.06 0.38 0z"/>
     <path class="fil19" d="M10.59 7.87l0 -0.24c-0.01,0.01 -0.02,0.01 -0.03,0.02l0 0c-0.11,0.07 -0.25,0.15 -0.4,0.21l0.02 0.16c0.15,-0.04 0.28,-0.08 0.41,-0.15z"/>
     <path class="fil20" d="M8.67 5.45l0 0 0 0c0.01,0.01 0.02,0.02 0.03,0.03l0 0c0.02,0.01 0.21,0.24 0.21,0.24 0,0 0.05,0.07 0.05,0.08 0,0 0,0 0,0.01l0 0 0 0c0.01,0.01 0.01,0.01 0.02,0.02l0 0 0 0 0 0.01 0 0 0 0c0,0.01 0.01,0.01 0.01,0.02 0,0 0,0.01 0,0.01 0,0 -0.04,0.03 -0.11,0.05l0 0 0 0c-0.01,0.01 -0.01,0.01 -0.02,0.01l0 0 0 0c-0.01,0 -0.01,0 -0.01,0l0 0 0 0c-0.01,0.01 -0.02,0.01 -0.03,0.01l0 0 0 0c-0.01,0 -0.03,0.01 -0.05,0.01l0 0 0 0c-0.01,0 -0.02,0 -0.03,0l0 0 0 0 0 0 0 0 0 0 -0.01 0 0 0 0 0 0 0 0 0 0 0c-0.01,0 -0.02,0 -0.03,0l0 0 0 0c0,0 -0.01,0 -0.01,0l0 0c-0.05,0 -0.1,-0.01 -0.15,-0.02l0.07 -0.53 0 0 0 0 0 0 0 0 0 0c0.01,0 0.03,0.02 0.06,0.05z"/>
     <path class="fil18" d="M8.88 8.17l0 -0.04 0 -0.53 0.03 0.05c0.1,0.07 0.24,0.15 0.4,0.21l-0.04 0.25 -0.01 0.06 -0.38 0z"/>
     <path class="fil19" d="M8.88 7.82l0 -0.19c0.01,0.01 0.02,0.01 0.03,0.02l0 0c0.1,0.07 0.24,0.15 0.4,0.21l-0.03 0.14c-0.14,-0.04 -0.28,-0.11 -0.4,-0.18z"/>
     <path class="fil20" d="M8.8 5.29l0 0 0 0c0.01,0.01 0.02,0.03 0.04,0.04l0 0c0.01,0.01 0.21,0.23 0.2,0.24 0,0 0.05,0.07 0.05,0.07 0,0 0.01,0.01 0.01,0.01l0 0 0 0c0,0.01 0.01,0.02 0.01,0.03l0 0 0 0 0 0 0 0 0 0c0.01,0.01 0.01,0.02 0.01,0.02 0,0.01 0.01,0.01 0.01,0.01 0,0 -0.05,0.03 -0.12,0.06l0 0 0 0c0,0 -0.01,0 -0.02,0l0 0 0 0c0,0.01 -0.01,0.01 -0.01,0.01l0 0 0 0c-0.01,0 -0.02,0 -0.02,0l0 0 0 0c-0.02,0.01 -0.04,0.01 -0.06,0.01l0 0 0 0c-0.01,0 -0.01,0.01 -0.02,0.01l0 0 0 0 -0.01 0 0 0 0 0 0 0 0 0 0 0 -0.01 0 0 0 0 0c-0.01,0 -0.02,0 -0.03,0l0 0 0 0c0,0 0,0 -0.01,0l0 0c-0.04,0 -0.09,-0.01 -0.14,-0.03l0.07 -0.53 0 0 0 0 0 0c0,0.01 0.02,0.02 0.05,0.05z"/>
     <path class="fil21" d="M7.99 7.16l0.42 0 0 -0.97 -0.42 0c-0.01,0.01 -0.01,0.01 -0.01,0.02 0,-0.01 0,-0.01 0.01,-0.02 0,0 0.15,0.48 0,0.97zm-0.08 -0.49l0 0 0 0 0 0m0 -0.03c0,0.01 0,0.02 0,0.03 0,-0.01 0,-0.02 0,-0.03zm0.01 -0.09c0,0.02 0,0.04 0,0.06 0,-0.02 0,-0.04 0,-0.06zm0 -0.03c0,0.01 0,0.02 0,0.03 0,-0.01 0,-0.02 0,-0.03zm0 -0.03c0,0.01 0,0.02 0,0.02 0,0 0,-0.01 0,-0.02zm0.01 -0.03c0,0.01 0,0.02 -0.01,0.03 0.01,-0.01 0.01,-0.02 0.01,-0.03zm0 -0.04c0,0.01 0,0.03 0,0.04 0,-0.01 0,-0.03 0,-0.04zm0.01 -0.02c0,0.01 0,0.01 -0.01,0.02 0.01,-0.01 0.01,-0.01 0.01,-0.02zm0 -0.02l0 0.02 0 -0.02zm0 -0.01l0 0.01 0 -0.01zm0.01 -0.02l-0.01 0.01 0.01 -0.01zm0 -0.01l0 0.01 0 -0.01zm0.01 -0.04c-0.01,0.01 -0.01,0.02 -0.01,0.03 0,-0.01 0,-0.02 0.01,-0.03zm0 -0.01l0 0.01 0 -0.01zm0 -0.01l0 0.01 0 -0.01zm0 -0.01l0 0.01 0 -0.01zm0.01 -0.01l0 0.01 0 -0.01zm0 -0.01l0 0 0 0zm0 -0.02l0 0.01 0 -0.01zm0.01 -0.01l-0.01 0.01 0.01 -0.01zm0 -0.01l0 0.01 0 -0.01z"/>
     <path class="fil22" d="M11.31 5.86c0.21,0.22 0.33,0.5 0.33,0.8 0,0.74 -0.76,1.34 -1.7,1.34 -0.72,0 -1.33,-0.35 -1.58,-0.84 0.31,0.33 0.81,0.55 1.37,0.55 0.94,0 1.7,-0.6 1.7,-1.35 0,-0.18 -0.04,-0.35 -0.12,-0.5z"/>
     <path class="fil23" d="M8.64 6.15c-0.01,0.01 -0.03,0.02 -0.05,0.01 -0.02,-0.01 -0.02,-0.03 -0.01,-0.04 0.03,-0.04 0.07,-0.07 0.12,-0.08 0.03,-0.01 0.06,-0.02 0.09,-0.01 0.04,0 0.07,0.01 0.09,0.02l0.01 0c0.03,0.02 0.05,0.04 0.06,0.07 0.01,0.02 0,0.04 -0.02,0.04 -0.01,0.01 -0.03,0 -0.04,-0.01 -0.01,-0.02 -0.03,-0.04 -0.04,-0.05l0 0c-0.02,-0.01 -0.04,-0.01 -0.06,-0.02 -0.02,0 -0.05,0.01 -0.07,0.01 -0.03,0.01 -0.06,0.03 -0.08,0.06z"/>
     <path class="fil24" d="M8.04 6.94c0.06,-0.4 -0.05,-0.74 -0.05,-0.75l0 0.02c0,0 0,0 0,0l-0.01 0.01c0,0 0,0 0,0l0 0.01c0,0 0,0 0,0l0 0.01c0,0 0,0 0,0.01l-0.01 0c0,0 0,0 0,0.01l0 0.01c0,0 0,0 0,0l0 0.01c0,0 0,0 0,0l-0.01 0.01c0,0 0,0 0,0l0 0.01c0,0 0,0 0,0l-0.01 0.03c0,0.01 0,0.01 0,0.02l0 0.01c0,0.01 0,0.01 0,0.01l0 0.01c-0.01,0 -0.01,0 -0.01,0l0 0.02c0,0 0,0 0,0l0 0.02c0,0.01 -0.01,0.03 -0.01,0.04l0 0.03c0,0 0,0 0,0l0 0.02c0,0.01 0,0.01 0,0.01l-0.01 0.03c0,0.03 0,0.06 0,0.09l0 0.03c0,0.16 0.02,0.32 0.07,0.49 0.02,-0.08 0.04,-0.15 0.05,-0.22z"/>
     <path class="fil25" d="M10.37 5.39c0,-0.24 -0.2,-0.44 -0.45,-0.44 -0.25,0 -0.45,0.2 -0.45,0.45 0,0.07 0.02,0.14 0.05,0.2 0.14,-0.03 0.27,-0.04 0.42,-0.04 0.13,0 0.26,0.01 0.38,0.04 0.03,-0.06 0.05,-0.13 0.05,-0.21z"/>
     <path class="fil26" d="M10.4 5.36c0,-0.24 -0.2,-0.44 -0.45,-0.44 -0.25,0 -0.45,0.2 -0.45,0.45 0,0.08 0.02,0.16 0.06,0.22 0.12,-0.02 0.25,-0.03 0.38,-0.03 0.13,0 0.27,0.01 0.39,0.04 0.04,-0.07 0.07,-0.15 0.07,-0.24z"/>
     <path class="fil27" d="M10.38 5.38c0,-0.25 -0.2,-0.45 -0.45,-0.45 -0.25,0 -0.45,0.2 -0.45,0.45 0,0.08 0.03,0.15 0.06,0.22 0.13,-0.03 0.26,-0.04 0.4,-0.04 0.13,0 0.26,0.01 0.39,0.04 0.03,-0.07 0.05,-0.14 0.05,-0.22z"/>
     <path class="fil28" d="M10.38 5.38c0,0 0,0 0,-0.01l-0.9 0.01c0,0 0,0 0,0 0,0.08 0.03,0.15 0.06,0.22 0.13,-0.03 0.26,-0.04 0.4,-0.04 0.13,0 0.26,0.01 0.39,0.04 0.03,-0.07 0.05,-0.14 0.05,-0.22z"/>
     <path class="fil29" d="M10.32 5.38c0,-0.21 -0.18,-0.38 -0.39,-0.38 -0.21,0 -0.38,0.17 -0.38,0.38 0,0.08 0.02,0.15 0.06,0.2 0.11,-0.01 0.22,-0.02 0.33,-0.02 0.11,0 0.21,0.01 0.32,0.02 0.03,-0.06 0.06,-0.13 0.06,-0.2z"/>
     <path class="fil30" d="M10.25 5.58l0.01 0 0 0 -0.01 0zm-0.52 -0.52l0 0c-0.07,0.08 -0.11,0.18 -0.11,0.25 0,0.12 0.04,0.2 0.09,0.26 -0.03,0 -0.06,0.01 -0.1,0.01 -0.04,-0.05 -0.06,-0.12 -0.06,-0.2 0,-0.14 0.07,-0.26 0.18,-0.32z"/>
     <path class="fil28" d="M10.25 5.41c0,-0.18 -0.15,-0.33 -0.34,-0.33 -0.11,0 -0.2,0.05 -0.27,0.13 0.06,-0.1 0.17,-0.17 0.3,-0.17 0.18,0 0.33,0.15 0.33,0.34 0,0.07 -0.02,0.14 -0.06,0.2l0 0c0.02,-0.05 0.04,-0.11 0.04,-0.17z"/>
     <path class="fil25" d="M9.64 3.58c0.22,-0.17 0.46,-0.23 0.59,-0.1 0.01,0.01 0.04,0.06 0.05,0.06 0.12,0.16 0.05,0.44 -0.18,0.62 -0.26,0.2 -0.55,0.19 -0.67,0.03 -0.02,-0.02 -0.04,-0.05 -0.04,-0.07 -0.07,-0.16 0.04,-0.38 0.25,-0.54z"/>
     <path class="fil26" d="M9.6 3.51c0.23,-0.17 0.51,-0.19 0.63,-0.03 0.12,0.16 0.03,0.43 -0.2,0.6 -0.23,0.18 -0.51,0.19 -0.63,0.03 -0.12,-0.16 -0.03,-0.43 0.2,-0.6z"/>
     <path class="fil27" d="M9.59 3.53c0.23,-0.17 0.51,-0.19 0.63,-0.03 0.12,0.16 0.04,0.43 -0.19,0.6 -0.23,0.18 -0.52,0.19 -0.64,0.03 -0.12,-0.16 -0.03,-0.43 0.2,-0.6z"/>
     <path class="fil28" d="M9.59 3.53c0,0 0,0 0,0l0.44 0.57c0,0 0,0 0,0 -0.23,0.18 -0.52,0.19 -0.64,0.03 -0.12,-0.16 -0.03,-0.43 0.2,-0.6z"/>
     <path class="fil29" d="M9.62 3.57c0.2,-0.14 0.44,-0.16 0.54,-0.02 0.1,0.13 0.03,0.36 -0.17,0.51 -0.19,0.15 -0.43,0.16 -0.54,0.02 -0.1,-0.13 -0.02,-0.36 0.17,-0.51z"/>
     <path class="fil31 str0" d="M9.62 3.57c0.2,-0.14 0.44,-0.16 0.54,-0.02 0.1,0.13 0.03,0.36 -0.17,0.51 -0.19,0.15 -0.43,0.16 -0.54,0.02 -0.1,-0.13 -0.02,-0.36 0.17,-0.51z"/>
     <path class="fil30" d="M10.21 3.71c-0.05,0.11 -0.12,0.2 -0.19,0.26 -0.34,0.25 -0.58,0.09 -0.56,-0.22 -0.06,0.12 -0.07,0.25 -0.01,0.33 0.11,0.14 0.35,0.13 0.54,-0.02 0.13,-0.1 0.21,-0.23 0.22,-0.35z"/>
     <path class="fil28" d="M9.62 3.64c0.17,-0.13 0.39,-0.14 0.48,-0.02 0.05,0.07 0.05,0.17 0.01,0.26 0.06,-0.11 0.07,-0.22 0.01,-0.3 -0.09,-0.12 -0.3,-0.11 -0.48,0.02 -0.07,0.05 -0.12,0.12 -0.15,0.19 0.03,-0.06 0.08,-0.11 0.13,-0.15z"/>
     <polygon class="fil5" points="9.34,4.76 10.3,4.32 10.36,4.44 9.39,4.88 "/>
     <polygon class="fil5" points="9.52,4.83 9.39,4.88 9.34,4.76 9.46,4.71 "/>
     <polygon class="fil6" points="9.46,4.71 9.58,4.65 9.64,4.77 9.52,4.83 "/>
     <polygon class="fil7" points="9.58,4.65 10.03,4.44 10.09,4.57 9.64,4.77 "/>
     <polygon class="fil32" points="10.03,4.44 10.22,4.36 10.27,4.48 10.09,4.57 "/>
     <polygon class="fil8" points="9.44,4.86 10.32,4.46 10.32,4.47 9.45,4.87 "/>
     <polygon class="fil5" points="3.35,7.74 1.8,7.74 1.8,7.94 3.35,7.94 "/>
     <polygon class="fil5" points="3.15,7.94 3.35,7.94 3.35,7.74 3.15,7.74 "/>
     <polygon class="fil6" points="3.15,7.74 2.95,7.74 2.95,7.94 3.15,7.94 "/>
     <polygon class="fil7" points="2.95,7.74 2.24,7.74 2.24,7.94 2.95,7.94 "/>
     <polygon class="fil32" points="2.24,7.74 1.94,7.74 1.94,7.94 2.24,7.94 "/>
     <polygon class="fil8" points="3.27,7.94 1.87,7.94 1.87,7.96 3.27,7.96 "/>
     <polygon class="fil5" points="3.25,7.96 1.65,7.96 1.65,8.15 3.25,8.15 "/>
     <polygon class="fil5" points="3.05,8.15 3.25,8.15 3.25,7.96 3.05,7.96 "/>
     <polygon class="fil6" points="3.05,7.96 2.84,7.96 2.84,8.15 3.05,8.15 "/>
     <polygon class="fil7" points="2.84,7.96 2.1,7.96 2.1,8.15 2.84,8.15 "/>
     <polygon class="fil32" points="2.1,7.96 1.79,7.96 1.79,8.15 2.1,8.15 "/>
     <polygon class="fil8" points="3.17,8.15 1.72,8.15 1.72,8.17 3.17,8.17 "/>
     <polygon class="fil5" points="2.93,7.53 1.39,7.53 1.39,7.72 2.93,7.72 "/>
     <polygon class="fil5" points="2.74,7.72 2.93,7.72 2.93,7.53 2.74,7.53 "/>
     <polygon class="fil6" points="2.74,7.53 2.54,7.53 2.54,7.72 2.74,7.72 "/>
     <polygon class="fil7" points="2.54,7.53 1.83,7.53 1.83,7.72 2.54,7.72 "/>
     <polygon class="fil32" points="1.83,7.53 1.53,7.53 1.53,7.72 1.83,7.72 "/>
     <polygon class="fil8" points="2.86,7.72 1.46,7.72 1.46,7.74 2.86,7.74 "/>
     <polygon class="fil5" points="2.89,7.1 1.35,7.1 1.35,7.29 2.89,7.29 "/>
     <polygon class="fil5" points="2.7,7.29 2.89,7.29 2.89,7.1 2.7,7.1 "/>
     <polygon class="fil6" points="2.7,7.1 2.5,7.1 2.5,7.29 2.7,7.29 "/>
     <polygon class="fil7" points="2.5,7.1 1.79,7.1 1.79,7.29 2.5,7.29 "/>
     <polygon class="fil32" points="1.79,7.1 1.49,7.1 1.49,7.29 1.79,7.29 "/>
     <polygon class="fil8" points="2.82,7.29 1.42,7.29 1.42,7.31 2.82,7.31 "/>
     <polygon class="fil5" points="3.14,7.31 1.54,7.31 1.54,7.51 3.14,7.51 "/>
     <polygon class="fil5" points="2.94,7.51 3.14,7.51 3.14,7.31 2.94,7.31 "/>
     <polygon class="fil6" points="2.94,7.31 2.73,7.31 2.73,7.51 2.94,7.51 "/>
     <polygon class="fil7" points="2.73,7.31 1.99,7.31 1.99,7.51 2.73,7.51 "/>
     <polygon class="fil32" points="1.99,7.31 1.68,7.31 1.68,7.51 1.99,7.51 "/>
     <polygon class="fil8" points="3.07,7.51 1.61,7.51 1.61,7.53 3.07,7.53 "/>
     <polygon class="fil5" points="2.02,7.74 0.48,7.74 0.48,7.94 2.02,7.94 "/>
     <polygon class="fil5" points="1.83,7.94 2.02,7.94 2.02,7.74 1.83,7.74 "/>
     <polygon class="fil6" points="1.83,7.74 1.63,7.74 1.63,7.94 1.83,7.94 "/>
     <polygon class="fil7" points="1.63,7.74 0.92,7.74 0.92,7.94 1.63,7.94 "/>
     <polygon class="fil32" points="0.92,7.74 0.62,7.74 0.62,7.94 0.92,7.94 "/>
     <polygon class="fil8" points="1.95,7.94 0.55,7.94 0.55,7.96 1.95,7.96 "/>
     <polygon class="fil5" points="2.27,7.96 0.67,7.96 0.67,8.15 2.27,8.15 "/>
     <polygon class="fil5" points="2.07,8.15 2.27,8.15 2.27,7.96 2.07,7.96 "/>
     <polygon class="fil6" points="2.07,7.96 1.86,7.96 1.86,8.15 2.07,8.15 "/>
     <polygon class="fil7" points="1.86,7.96 1.12,7.96 1.12,8.15 1.86,8.15 "/>
     <polygon class="fil32" points="1.12,7.96 0.81,7.96 0.81,8.15 1.12,8.15 "/>
     <polygon class="fil8" points="2.19,8.15 0.74,8.15 0.74,8.17 2.19,8.17 "/>
     <path class="fil33" d="M5.48 2.05l0.99 0c0.22,0 0.39,0.17 0.39,0.38l0 0c0,0.21 -0.17,0.39 -0.39,0.39l-0.99 0c-0.22,0 -0.39,-0.18 -0.39,-0.39l0 0c0,-0.21 0.17,-0.38 0.39,-0.38z"/>
     <path class="fil9" d="M6.5 2.28c0.01,-0.01 0.02,-0.01 0.03,-0.02 0,0 0.01,0 0.01,0 0.01,0 0.02,0 0.03,0.01 0.01,0 0.01,0.01 0.01,0.02 0,0.01 0,0.02 -0.01,0.02 0,0.01 0,0.01 -0.01,0.02l-0.09 0.09 0.11 0.11c0.01,0.01 0.01,0.02 0.01,0.02 0.01,0.01 0.01,0.02 0.01,0.02 0,0.01 0,0.02 -0.01,0.03 -0.01,0 -0.02,0.01 -0.03,0.01 0,0 -0.01,0 -0.01,-0.01 -0.01,0 -0.02,-0.01 -0.03,-0.02l-0.12 -0.13 0 0.1c0,0.02 0,0.04 -0.01,0.04 0,0.01 -0.01,0.02 -0.03,0.02 -0.01,0 -0.02,-0.01 -0.03,-0.02 0,0 -0.01,-0.02 -0.01,-0.04l0 -0.24c0,-0.02 0.01,-0.03 0.01,-0.04 0.01,-0.01 0.02,-0.01 0.03,-0.01 0.02,0 0.03,0 0.03,0.01 0.01,0.01 0.01,0.02 0.01,0.04l0 0.09 0.1 -0.12zm-0.46 0.27l0 0c0,0.02 -0.01,0.04 -0.01,0.04 -0.01,0.01 -0.02,0.02 -0.03,0.02 -0.02,0 -0.03,-0.01 -0.03,-0.02 -0.01,0 -0.01,-0.02 -0.01,-0.04l0 -0.24c0,-0.02 0,-0.03 0.01,-0.04 0,-0.01 0.01,-0.01 0.02,-0.01 0.01,0 0.02,0 0.03,0 0,0.01 0.01,0.01 0.02,0.02l0.14 0.19 0 -0.16c0,-0.02 0.01,-0.03 0.01,-0.04 0.01,-0.01 0.02,-0.01 0.03,-0.01 0.01,0 0.02,0 0.03,0.01 0.01,0.01 0.01,0.02 0.01,0.04l0 0.25c0,0.02 0,0.03 -0.01,0.04 0,0.01 -0.01,0.01 -0.03,0.01 0,0 -0.01,0 -0.02,-0.01 -0.01,0 -0.01,-0.01 -0.02,-0.02l-0.14 -0.19 0 0.16zm-0.31 -0.08l0 0 0.08 0 -0.04 -0.13 -0.04 0.13zm-0.02 0.07l0 0 -0.01 0.03c-0.01,0.02 -0.01,0.02 -0.02,0.03 -0.01,0.01 -0.01,0.01 -0.02,0.01 -0.01,0 -0.02,0 -0.03,-0.01 -0.01,-0.01 -0.01,-0.02 -0.01,-0.03 0,0 0,-0.01 0,-0.01 0,0 0,-0.01 0,-0.01l0.09 -0.24c0.01,-0.02 0.02,-0.03 0.03,-0.04 0.01,-0.01 0.02,-0.01 0.04,-0.01 0.01,0 0.02,0 0.03,0.01 0.01,0 0.02,0.02 0.02,0.03l0.09 0.25c0,0 0,0.01 0.01,0.01 0,0.01 0,0.01 0,0.01 0,0.01 -0.01,0.02 -0.01,0.03 -0.01,0.01 -0.02,0.01 -0.03,0.01 -0.01,0 -0.02,0 -0.03,-0.01 0,-0.01 -0.01,-0.02 -0.01,-0.03l-0.01 -0.03 -0.13 0zm-0.31 0.06l0 0c-0.02,0 -0.03,0 -0.04,-0.01 -0.01,0 -0.01,-0.02 -0.01,-0.04l0 -0.23c0,-0.03 0,-0.04 0.01,-0.05 0.01,-0.01 0.02,-0.01 0.04,-0.01l0.07 0c0.03,0 0.06,0.01 0.08,0.02 0.02,0.02 0.03,0.04 0.03,0.07 0,0.01 -0.01,0.03 -0.01,0.04 -0.01,0.01 -0.02,0.02 -0.03,0.02 0.02,0.01 0.04,0.02 0.05,0.03 0.01,0.02 0.02,0.04 0.02,0.06 0,0.03 -0.02,0.06 -0.04,0.08 -0.02,0.01 -0.05,0.02 -0.09,0.02l-0.08 0zm0.03 -0.06l0 0 0.04 0c0.02,0 0.03,-0.01 0.04,-0.01 0.01,-0.01 0.01,-0.02 0.01,-0.03 0,-0.02 0,-0.02 -0.01,-0.03 -0.01,-0.01 -0.02,-0.01 -0.04,-0.01l-0.04 0 0 0.08zm0 -0.15l0 0 0.03 0c0.01,0 0.02,0 0.03,-0.01 0.01,0 0.01,-0.01 0.01,-0.02 0,-0.01 0,-0.02 -0.01,-0.02 -0.01,-0.01 -0.02,-0.01 -0.03,-0.01l-0.03 0 0 0.06z"/>
     <path class="fil34" d="M4.82 6.18c-0.05,0.1 -0.07,0.28 -0.19,0.36 -0.07,0.03 -0.37,0.18 -0.38,0.08 -0.02,-0.09 0,-0.09 0,-0.09 0,0 0.26,-0.15 0.29,-0.16 0.02,-0.01 0.09,-0.34 0.16,-0.39 0.01,-0.02 0.14,0.16 0.12,0.2z"/>
     <path class="fil35" d="M4.54 8.19l0.33 0c0.02,0 0.03,-0.01 0.03,-0.03 0,0 0,0 0,0l-0.01 -0.17c0,0 -0.02,-0.01 -0.04,-0.01 -0.01,-0.01 -0.02,-0.02 -0.02,-0.03 0,0 0,0 0,0 -0.01,-0.03 -0.06,-0.04 -0.07,-0.01 0,0 0,0.01 0,0.01 0,0 0,0 0,0 0,0.01 0,0.02 0,0.02l0 0c0,0.02 0,0.03 0,0.03 -0.01,0 -0.01,0.01 -0.02,0.01 0,0.01 0,0.01 0,0.01 -0.01,0.01 -0.01,0.01 -0.02,0.02 0,0 0,0 0,0 -0.01,0.01 -0.01,0.02 -0.02,0.02 0,0 0,0 0,0.01 -0.02,0.01 -0.04,0.03 -0.06,0.03 -0.03,0 -0.09,0.01 -0.12,0.06 0,0 0,0 0,0 0,0.02 0.01,0.03 0.02,0.03z"/>
     <path class="fil36" d="M4.54 8.19l0.33 0c0.02,0 0.03,-0.01 0.03,-0.03l-0.38 0c0,0.02 0.01,0.03 0.02,0.03z"/>
     <path class="fil34" d="M4.82 5.93l0.25 0c0.07,0 0.15,0.03 0.19,0.07 0.05,0.06 0.03,0.77 0.02,0.87l-0.02 0.01c0,0.38 0.05,0.78 0.03,1.14l-0.15 0 -0.19 -0.96 -0.1 -0.17 -0.16 -0.01 -0.04 -0.01 0.05 -0.89c0.03,-0.03 0.07,-0.05 0.12,-0.05z"/>
     <path class="fil37" d="M4.82 5.93l0.04 0 0.01 0.06 0.03 0.56 -0.14 -0.45 0.05 -0.04 -0.04 -0.04 0.04 -0.09c0,0 0.01,0 0.01,0z"/>
     <path class="fil34" d="M3.68 6.15c-0.02,-0.05 0,-0.13 0.04,-0.15 0.02,-0.01 0.1,-0.02 0.12,-0.01 0.12,0.07 0.3,0.9 0.09,0.82 -0.03,0 -0.06,-0.19 -0.12,-0.37 -0.04,-0.14 -0.11,-0.25 -0.13,-0.29z"/>
     <path class="fil37" d="M5.03 5.93l-0.02 0.05 -0.11 0.57 0.2 -0.44 -0.04 -0.05 0.04 -0.03 -0.02 -0.1c-0.01,-0.01 -0.04,0 -0.05,0z"/>
     <path class="fil33" d="M4.85 5.93c-0.02,0.12 0.04,0.48 0.05,0.62 0.01,-0.01 0.13,-0.53 0.14,-0.62l-0.12 0c-0.02,0 -0.05,-0.01 -0.07,0z"/>
     <path class="fil38" d="M4.78 5.8c-0.01,0.06 0.06,0.11 0.1,0.1l0 0.03 0 0c-0.01,0.04 0.03,0.07 0.05,0.08 0.01,-0.01 0.08,-0.03 0.08,-0.08l0 0 0 -0.1c0.01,0 0.01,-0.01 0.01,-0.01 0.01,0 0.02,-0.02 0.01,-0.03 0,-0.02 -0.02,-0.01 -0.02,-0.01 0.02,-0.04 0.04,-0.08 -0.01,-0.11 -0.04,-0.02 -0.14,-0.02 -0.14,-0.02l-0.06 -0.01c0.02,0.03 -0.01,0.12 -0.02,0.16z"/>
     <path class="fil39" d="M4.97 5.86c-0.02,0.05 -0.04,0.07 -0.09,0.08l0 -0.04c0.02,0 0.07,-0.02 0.09,-0.04z"/>
     <polygon class="fil34" points="4.67,6.84 4.98,6.84 4.92,8.03 4.73,8.03 "/>
     <path class="fil35" d="M5.09 8.15c0,0.05 0.17,0.03 0.2,0.02 0.01,0 0.01,-0.02 0.01,-0.03 0,-0.02 0,-0.05 -0.01,-0.07 -0.01,-0.03 -0.01,-0.03 -0.02,-0.05 0,0 0,-0.04 -0.05,-0.05 -0.06,-0.02 -0.08,0.08 -0.09,0.09 -0.01,0.02 -0.04,0.04 -0.04,0.08 0,0.01 0,0.01 0,0.01z"/>
     <path class="fil36" d="M5.09 8.17c0,0.03 0.17,0.03 0.2,0.02 0.01,-0.01 0.01,-0.03 0.01,-0.04 -0.02,0.01 -0.05,0.02 -0.09,0.02 -0.06,0 -0.1,-0.01 -0.12,-0.02 0,0 0,0.02 0,0.02z"/>
     <path class="fil34" d="M4.97 5.7c0.02,0.02 0.02,0.04 0.01,0.08 -0.01,0.02 -0.01,0.03 0.01,0.01 0,0 0.02,-0.01 0.02,0 0.02,0 0.01,0.02 0.01,0.03 -0.01,0 -0.02,0.01 -0.02,0.01 0,0 0.03,0.01 0.05,-0.01 0.02,-0.02 0.09,-0.08 0.08,-0.16 -0.02,-0.1 -0.14,-0.11 -0.21,-0.16 -0.03,-0.02 -0.05,-0.03 -0.05,-0.03 -0.08,0 -0.14,0.09 -0.11,0.15 0.04,0.09 0.17,0.04 0.21,0.08z"/>
     <path class="fil40" d="M5.37 7.04c0,0 0,-0.07 0.02,-0.07 0.01,-0.01 0.08,0 0.08,0 0,0 0.02,0 0.02,0.02 0,0.03 0,0.05 0,0.05l-0.02 0c0,0 0,-0.04 0,-0.04 -0.01,-0.01 -0.07,0 -0.07,0 0,0 -0.01,0 -0.01,0.01 0,0.02 0,0.03 0,0.03l-0.02 0z"/>
     <polygon class="fil7" points="5.14,7.03 5.29,7.03 5.29,7.65 5.14,7.65 "/>
     <polygon class="fil32" points="5.29,7.03 5.65,7.04 5.65,7.65 5.29,7.65 "/>
     <path class="fil41" d="M5.64 7.04l0 0 0.01 0.05 0 0.56 -0.36 0 0 -0.19c0.2,0.3 0.32,-0.16 0.35,-0.42z"/>
     <path class="fil38" d="M3.91 6.85c0,0 0.01,-0.02 0.01,-0.01l-0.01 0.05c0,0 0.01,0 0.02,0 0,-0.01 0,-0.01 0,-0.01l0 0.01c0,0 0.01,0.01 0.02,0 0,-0.01 0.01,0 0.01,0l0 0.01c0.02,0 0.02,-0.02 0.02,-0.01 0.01,0.01 0.01,0.01 0.02,0 0,-0.01 0,-0.02 0,-0.03 0,-0.02 0,-0.06 -0.01,-0.07 -0.01,-0.01 -0.05,0 -0.06,0 -0.01,0 -0.05,0.05 -0.02,0.06z"/>
     <path class="fil42" d="M4.87 6.31c0.02,0.09 0.03,0.19 0.03,0.24 0.03,-0.08 0.04,-0.17 0.06,-0.25l-0.02 -0.22 0.02 -0.03 -0.03 -0.03 -0.03 0.03 0.01 0.03 -0.04 0.23z"/>
     <polygon class="fil37" points="5.07,6.24 5.18,6.24 5.18,6.26 5.07,6.26 "/>
     <path class="fil38" d="M4.22 6.54c-0.01,-0.01 -0.02,-0.03 -0.06,-0.03 -0.01,0 -0.03,0.02 -0.03,0.02 0,0 0.01,0.01 0.02,0.01 0,0 0.01,0 0.02,0 -0.03,0.06 -0.12,0.05 -0.12,0.08 0.03,0.02 0.06,0.07 0.23,0 0,-0.01 0,-0.05 -0.02,-0.07l-0.04 -0.01z"/>
     <path class="fil43" d="M4.03 8.17l-0.34 0c-0.02,0 -0.03,-0.01 -0.03,-0.02 0,-0.01 0,-0.01 0,-0.01l0.01 -0.18c0,0 0.02,0 0.04,-0.01 0.01,0 0.02,-0.01 0.02,-0.02 0,0 0,0 0,0 0.01,-0.03 0.06,-0.05 0.07,-0.01 0,0 0,0.01 0,0.01 0,0 0,0 0,0 0,0.01 0,0.02 0.01,0.02l0 0c0,0.02 0,0.03 0,0.03 0,0 0.01,0.01 0.01,0.01 0,0.01 0,0.01 0.01,0.01 0,0.01 0,0.01 0.01,0.02 0,0 0,0 0,0 0.01,0.01 0.01,0.02 0.02,0.02 0,0 0,0.01 0,0.01 0.02,0.02 0.04,0.03 0.06,0.03 0.04,0.01 0.1,0.01 0.12,0.06 0.01,0 0.01,0 0.01,0.01 0,0.01 -0.01,0.02 -0.02,0.02z"/>
     <path class="fil36" d="M4.03 8.17l-0.34 0c-0.02,0 -0.03,-0.01 -0.03,-0.02l0.39 0c0,0.01 -0.01,0.02 -0.02,0.02z"/>
     <path class="fil34" d="M3.27 6.81c0,0.41 0.05,0.79 0.07,1.19l0.16 0 0.12 -0.99 0.24 0.03 0.01 -0.27 0 0c-0.01,-0.93 -0.5,-0.72 -0.46,-0.19 0.01,0.06 -0.16,0.17 -0.14,0.23z"/>
     <polygon class="fil34" points="3.87,6.86 3.57,6.86 3.67,8 3.83,8.01 "/>
     <path class="fil43" d="M3.55 8.16c0,0.04 -0.17,0.03 -0.2,0.01 -0.01,0 -0.02,-0.01 -0.02,-0.03 0,-0.02 0.01,-0.04 0.02,-0.07 0.01,-0.03 0,-0.03 0.01,-0.05 0,0 0,-0.04 0.06,-0.05 0.05,-0.02 0.07,0.08 0.08,0.09 0.01,0.02 0.05,0.04 0.05,0.08 0,0.01 0,0.01 0,0.02z"/>
     <path class="fil36" d="M3.55 8.16c0,0.04 -0.17,0.03 -0.2,0.01 -0.01,0 -0.02,-0.01 -0.02,-0.03 0.02,0.01 0.05,0.02 0.1,0.02 0.06,0.01 0.1,0 0.12,-0.02 0,0.01 0,0.01 0,0.02z"/>
     <path class="fil34" d="M3.39 5.91c-0.14,0 -0.22,0.1 -0.22,0.23 -0.01,0.18 0.08,0.48 0.06,0.79 0.22,0 0.45,-0.03 0.66,-0.03 0.01,-0.15 0.01,-0.62 -0.03,-0.89 -0.07,-0.12 -0.35,-0.1 -0.47,-0.1z"/>
     <path class="fil33" d="M3.63 5.91c0.09,0.05 0.11,0.43 0.14,0.99l-0.24 0c-0.01,-0.55 -0.1,-0.9 -0.13,-0.99 0.07,-0.01 0.14,-0.01 0.23,0z"/>
     <path class="fil38" d="M3.68 5.83c-0.03,0.03 -0.06,0.05 -0.08,0.05l0 0.03 0 0.01c0.02,0.04 0.01,0.1 -0.02,0.12 -0.05,-0.02 -0.12,-0.06 -0.14,-0.13l0.01 0 0.01 -0.01 0.01 -0.08c0,0 -0.03,-0.02 -0.04,-0.03 0,0 -0.01,-0.02 -0.01,-0.04 0,-0.01 0.03,0 0.03,0l0 0c-0.02,-0.05 -0.05,-0.1 0.01,-0.13 0.05,-0.03 0.17,-0.02 0.17,-0.02l0.07 -0.01c-0.01,0.02 -0.01,0.09 -0.01,0.14 0.01,0.04 0.02,0.06 -0.01,0.1z"/>
     <path class="fil44" d="M3.5 5.84c0,0 0.02,0.07 0.05,0.08 0.03,0.02 0.03,0.01 0.05,0.02l0 -0.06c-0.03,0 -0.05,0 -0.1,-0.04z"/>
     <path class="fil34" d="M3.38 6.04c-0.05,-0.06 -0.1,-0.08 -0.17,-0.04l0 0c-0.11,0.09 0.12,0.41 0.27,0.54 0.06,0.06 0.42,0.11 0.46,0.09 0.02,0 0.12,-0.04 0.05,-0.12 0,0 -0.3,-0.07 -0.33,-0.09 -0.05,-0.02 -0.24,-0.34 -0.28,-0.38z"/>
     <path class="fil34" d="M3.99 6.52c-0.03,0.01 -0.06,0.03 -0.08,0.06 -0.02,0.03 -0.03,0.05 0.01,0.05 0.03,0 0.1,0 0.1,0 0.04,-0.03 0.04,-0.07 0.04,-0.1l-0.07 -0.01z"/>
     <path class="fil38" d="M4.05 6.53l0.05 0.01 0.06 -0.02c0,0 0.04,0.01 0.04,0.01 0,0 -0.03,0.02 -0.02,0.02 0.01,0.01 0.08,0.02 0.08,0.02 -0.08,0.13 -0.12,0.04 -0.23,0.05 -0.04,0 0.01,-0.08 0.02,-0.09z"/>
     <path class="fil34" d="M3.63 5.44c0.16,0.05 0.1,0.21 0.01,0.22 -0.05,0.01 -0.1,-0.03 -0.14,0 -0.02,0.02 -0.02,0.06 0,0.11 0,0.01 0.01,0.02 -0.01,0.01 -0.01,-0.01 -0.03,-0.02 -0.03,-0.01 -0.02,0.01 -0.01,0.03 0,0.03 0,0.01 0.01,0.01 0.01,0.01 0,0 -0.03,0.01 -0.05,-0.01 -0.11,-0.12 -0.08,-0.27 0.13,-0.32 0.03,0 0.04,-0.05 0.08,-0.04z"/>
     <path class="fil34" d="M5.12 6.16c-0.02,-0.05 -0.01,-0.15 0.05,-0.18 0.01,0 0.04,-0.02 0.07,0 0.19,0.1 0.4,1.05 0.16,0.95 -0.03,-0.01 -0.07,-0.22 -0.13,-0.43 -0.05,-0.17 -0.13,-0.3 -0.15,-0.34z"/>
     <path class="fil38" d="M5.38 6.97c0,0 0.01,-0.02 0.01,-0.01l-0.01 0.05c0,0 0.02,0.01 0.02,0 0.01,-0.01 0.01,-0.01 0.01,-0.01l0 0.02c0,0 0.01,0.01 0.01,0 0.01,-0.01 0.02,0 0.02,0l0 0.01c0.02,0 0.02,-0.02 0.03,-0.01 0,0.01 0.01,0.01 0.01,0 0.01,-0.01 0.01,-0.03 0.01,-0.03 0,-0.03 0,-0.07 -0.02,-0.08 -0.01,-0.01 -0.05,-0.01 -0.06,-0.01 -0.01,0.01 -0.07,0.06 -0.03,0.07z"/>
     <polygon class="fil11" points="2.69,3.57 9.27,3.57 9.27,3.78 2.69,3.78 "/>
     <path class="fil45" d="M10.51 8.19c0,0 -0.26,-0.27 -0.2,-0.42 0.05,-0.14 0.23,-0.1 0.23,-0.22 -0.01,-0.13 -0.09,-0.33 0.05,-0.45 0.13,-0.12 0.31,0 0.37,-0.21 0.04,-0.17 0.14,-0.27 0.29,-0.21 0.14,0.06 0.23,0.18 0.18,0.44 -0.04,0.28 0.17,0.23 0.14,0.44 -0.04,0.2 -0.2,0.18 -0.29,0.3 -0.04,0.06 -0.01,0.34 -0.25,0.33l-0.52 0z"/>
     <path class="fil1" d="M11.21 6.78c0,0 0,0.01 0,0.02 0,0.03 -0.01,0.09 -0.03,0.19 -0.04,0.27 -0.22,0.85 -0.56,1.19 -0.01,0.01 -0.01,0.01 -0.01,0.01l0.03 0c0.34,-0.35 0.52,-0.93 0.57,-1.2 0.02,-0.12 0.02,-0.2 0.02,-0.2 0,-0.01 0,-0.02 -0.01,-0.02 0,0 -0.01,0.01 -0.01,0.01z"/>
     <path class="fil46" d="M10.71 8.19c0,0 0,-0.28 0.14,-0.34 0.14,-0.05 0.28,-0.09 0.29,-0.22 0.01,-0.12 0.07,-0.26 0.28,-0.23 0.12,0.02 0.1,-0.12 0.23,-0.12 0.08,-0.01 0.12,0.08 0.12,0.16 -0.01,0.1 -0.07,0.18 -0.03,0.26 0.06,0.11 0.07,0.29 -0.11,0.32 -0.18,0.02 -0.03,0.19 -0.27,0.17l-0.08 0 -0.57 0z"/>
     <path class="fil1" d="M11.63 7.36c-0.03,0.12 -0.11,0.28 -0.23,0.43 -0.12,0.15 -0.28,0.33 -0.45,0.39 0,0 -0.01,0 -0.01,0.01l0.04 0c0.17,-0.07 0.32,-0.24 0.44,-0.39 0.12,-0.15 0.21,-0.31 0.23,-0.43 0,-0.01 0,-0.02 -0.01,-0.02 0,0 -0.01,0.01 -0.01,0.01z"/>
     <path class="fil47" d="M9.54 6.14l0.74 0 0 0c-0.04,0.07 -0.06,0.1 -0.07,0.11l-0.2 0c0.03,0.03 0.05,0.07 0.06,0.11l0.21 0c0,0 0,0.01 0,0.01 -0.05,0.07 -0.07,0.1 -0.07,0.1l-0.14 0c0,0.04 -0.02,0.08 -0.05,0.13 -0.04,0.06 -0.08,0.09 -0.12,0.1 -0.07,0.04 -0.14,0.06 -0.21,0.06l0 0c0,0 0.02,0.02 0.05,0.06l0.37 0.44 0 0.02c0,0 0,0 -0.01,0l-0.16 0c-0.29,-0.33 -0.44,-0.5 -0.44,-0.5l0 -0.1 0.01 -0.01c0.02,0.01 0.05,0.01 0.09,0.01 0.16,0 0.26,-0.06 0.3,-0.16 0.01,-0.02 0.01,-0.03 0.01,-0.05l-0.44 0c0,0 -0.01,0 -0.01,0 0.05,-0.07 0.08,-0.11 0.08,-0.11l0.35 0 0 0c-0.02,-0.04 -0.06,-0.07 -0.12,-0.09 -0.04,-0.02 -0.07,-0.02 -0.11,-0.02l-0.19 0 0 -0.01c0.04,-0.07 0.07,-0.1 0.07,-0.1z"/>
     <path class="fil47" d="M9.81 5.24l0.2 0 0 0c-0.01,0.02 -0.02,0.03 -0.02,0.03l-0.05 0c0.01,0.01 0.01,0.02 0.01,0.03l0.06 0c0,0 0,0 0,0 -0.01,0.02 -0.02,0.03 -0.02,0.03l-0.03 0c0,0.01 -0.01,0.02 -0.02,0.04 -0.01,0.01 -0.02,0.02 -0.03,0.02 -0.02,0.01 -0.04,0.02 -0.06,0.02l0 0c0,0 0.01,0 0.02,0.01l0.1 0.12 0 0.01c0,0 0,0 -0.01,0l-0.04 0c-0.08,-0.09 -0.12,-0.14 -0.12,-0.14l0 -0.02 0 -0.01c0.01,0.01 0.02,0.01 0.03,0.01 0.04,0 0.07,-0.02 0.08,-0.05 0,0 0,0 0,-0.01l-0.12 0c0,0 0,0 0,0 0.02,-0.02 0.02,-0.03 0.02,-0.03l0.1 0 0 0c-0.01,-0.01 -0.02,-0.02 -0.03,-0.02 -0.02,-0.01 -0.03,-0.01 -0.03,-0.01l-0.06 0 0 0c0.02,-0.02 0.02,-0.03 0.02,-0.03z"/>
     <path class="fil47" d="M9.8 3.66l0.16 0.08 0 0c-0.02,0.01 -0.03,0.02 -0.04,0.02l-0.04 -0.02c0,0.01 0,0.02 -0.01,0.03l0.05 0.02c0,0 0,0 0,0 -0.02,0.02 -0.04,0.02 -0.04,0.02l-0.03 -0.01c0,0.01 -0.01,0.01 -0.03,0.02 -0.02,0.01 -0.03,0.02 -0.05,0.01 -0.02,0.01 -0.03,0 -0.05,-0.01l0 0c0,0.01 0,0.01 0,0.03l0 0.14 0 0.01c0,0 0,0 0,0l-0.04 -0.02c0,-0.11 0,-0.17 0,-0.17l0.02 -0.03 0 0c0,0.01 0.01,0.01 0.01,0.02 0.04,0.01 0.07,0.01 0.1,-0.01 0,0 0.01,-0.01 0.01,-0.01l-0.1 -0.05c0,0 0,0 0,0 0.03,-0.01 0.04,-0.02 0.04,-0.02l0.07 0.04 0 0c0.01,-0.01 0,-0.02 0,-0.04 -0.01,0 -0.02,-0.01 -0.02,-0.01l-0.05 -0.02 0 -0.01c0.03,-0.01 0.04,-0.01 0.04,-0.01z"/>
    </g>
   </g>
  </g>
  <polygon class="fil48" points="0,0 12.19,0 12.19,8.67 0,8.67 "/>
 </g>
</svg>
