<?xml version="1.0" encoding="utf-8"?>
<!-- Generator: Adobe Illustrator 23.0.1, SVG Export Plug-In . SVG Version: 6.00 Build 0)  -->
<svg version="1.1" id="Слой_1" xmlns="http://www.w3.org/2000/svg" xmlns:xlink="http://www.w3.org/1999/xlink" x="0px" y="0px"
	 viewBox="0 0 3145.3 1786.9" style="enable-background:new 0 0 3145.3 1786.9;" xml:space="preserve">
<style type="text/css">
	.st0{fill:#FFFFFF;}
	.st1{fill:#E3EAFF;}
	.st2{fill:#95A6DB;}
	.st3{fill:#4364CC;}
	.st4{fill:#F37A50;}
	.st5{fill:#8A284C;}
	.st6{fill:#E62552;}
	.st7{fill:#3B1120;}
	.st8{fill:#DE623C;}
	.st9{fill:#070635;}
	.st10{fill:#768FDB;}
	.st11{fill:#95ADF5;}
	.st12{fill:#201D40;}
	.st13{fill:#2C2858;}
	.st14{fill:#C4204A;}
	.st15{fill:#3F964F;}
	.st16{fill:#0E6A41;}
	.st17{fill:#494C7F;}
	.st18{fill:#555994;}
	.st19{fill:#CFDBFF;}
	.st20{fill:#7F99EB;}
	.st21{fill:#BDCDFF;}
	.st22{fill:#CDD8FA;}
	.st23{fill:#062440;}
	.st24{fill:#80BC48;}
	.st25{fill:#17962E;}
	.st26{fill:#DE8914;}
	.st27{fill:#FF9A16;}
	.st28{fill:#FAAF16;}
	.st29{fill:#FAC352;}
</style>
<g>
	<rect class="st0" width="3145.3" height="1786.9"/>
	<path class="st1" d="M232,1733.1c-243.4-333.7-104.5-669.2,176-859.6C693,680,371.1,279.5,938.5,116.6
		c293.5-84.3,551.6,145.6,839.3,155.6c257.8,9,524.5-193.8,786.2-99.9c175,54.1,350,205.8,337,387.2c-6.7,93.7-66.4,204.7-4.6,275.9
		c260.9,300.5,234,563.4,131.8,893.5C3028.2,1728.9,232,1733.1,232,1733.1z"/>
	<path class="st2" d="M3053.4,1747.3H135.3c-5.7,0-10.4-5-10.4-11.1l0,0c0-6.1,4.7-11.1,10.4-11.1h2918.2c5.7,0,10.4,5,10.4,11.1
		l0,0C3063.8,1742.4,3059.2,1747.3,3053.4,1747.3z"/>
	<g>
		<g>
			<path d="M1501.2,697.7c49.8-14.1,156.2,31,127.3,212.2c-29,181.2-166.2,151.3-166.2,151.3s-59.8-18.8-65.2-133.9
				C1391.8,812.2,1417.4,721.4,1501.2,697.7z"/>
			<path class="st3" d="M1526.2,940c0,0,65.6,50.9,163.5,47.7c19.7-37.8-20.5-56.7-20.5-56.7l-78.3-35.5c0,0-28.2-9.3-51.4,9
				C1519.3,920.6,1526.2,940,1526.2,940z"/>
			<path class="st4" d="M1595.3,839.6c0,0,25.1,59.2,39.6,94.5c5.8,14,27.5,54.4,54.8,53.6c24.2-26.1-8.5-99.3-82-159.9
				C1599,837.1,1595.3,839.6,1595.3,839.6z"/>
			<g>
				<path class="st5" d="M1598.8,865.2l24.2-11.9c3.3-1.6,4.6-5.6,3-8.9l-25.4-51.8c-1.6-3.3-7.9-5.4-11.2-3.8l-21.9,12.7
					c-3.3,1.6-4.6,5.6-3,8.9l21.7,52.6C1587.2,865.5,1592.9,868.2,1598.8,865.2z"/>
				<path class="st6" d="M1593.9,864.8l24.2-11.9c3.3-1.6,4.6-5.6,3-8.9l-25.4-51.8c-1.6-3.3-5.6-4.6-8.9-3l-24.2,11.9
					c-3.3,1.6-4.6,5.6-3,8.9l25.4,51.8C1586.6,865.1,1590.6,866.4,1593.9,864.8z"/>
				<path class="st7" d="M1590.9,854.4l20.5-10.1c2.7-1.3,3.8-4.6,2.5-7.3l-20.4-41.5c-1.3-2.7-4.6-3.8-7.3-2.5l-20.5,10.1
					c-2.7,1.3-3.8,4.6-2.5,7.3l20.4,41.5C1584.9,854.6,1588.2,855.7,1590.9,854.4z"/>
				<path class="st5" d="M1600.3,854.7c0.4,1.8,2.1,2.9,3.9,2.5c1.8-0.4,2.9-2.1,2.5-3.9c-0.4-1.8-2.1-2.9-3.9-2.5
					C1601.1,851.1,1599.9,852.9,1600.3,854.7z"/>
				<path id="c_27_" class="st4" d="M1621.2,829.4c-0.5-0.3-1-0.4-1.5-0.6c0-0.1,0.1-0.2,0.2-0.2c2.8-4.8,2.3-10.3-1.1-12.3
					c-0.6-0.3-1.2-0.5-1.8-0.7c0.7-3.5-0.2-6.7-2.7-8.1c-1-0.6-2.1-0.8-3.2-0.7c0.9-3.4-0.1-6.9-2.9-8.5c-3.4-2-8.1-0.4-10.6,3.7
					c-2.4,4.1-1.6,9,1.8,11c0.9,0.5,1.8,0.8,2.8,0.8c-2,4.4-1.3,9.1,1.8,10.9c0.6,0.3,1.2,0.5,1.8,0.6c-0.7,3.5,0.2,6.7,2.7,8.1
					c0.9,0.5,1.9,0.8,3,0.7c-0.9,3-0.1,6.1,2.3,7.5c2.9,1.7,6.9,0.3,8.9-3.1C1624.8,835.3,1624.1,831.1,1621.2,829.4z"/>
			</g>
			<g>
				<g>
					<g>
						<path class="st4" d="M1544.4,862.3l-37.1-5.6l3,34.5c0,0,18.8,33.9,36.7,28.1c17.8-5.8,9.1-20.8,9.1-20.8L1544.4,862.3z"/>
					</g>
				</g>
			</g>
			<g>
				<path class="st4" d="M1477.6,806.4c6,40.7,36.9,69.9,68.8,65.2c32-4.7,53-41.6,47-82.3c-6-40.7-36.9-69.9-68.8-65.2
					C1492.6,728.8,1471.6,765.7,1477.6,806.4z"/>
				<g>
					<path d="M1512.4,795.4c0.4-0.1,0.8-0.4,1.1-0.8c4.1-6,12.5-5.8,12.6-5.8c1.2,0,2.1-0.9,2.2-2c0-1.2-0.9-2.1-2-2.2
						c-0.4,0-10.7-0.3-16.2,7.6c-0.7,1-0.4,2.3,0.5,2.9C1511.1,795.5,1511.8,795.6,1512.4,795.4z"/>
				</g>
				<g>
					<path d="M1583.7,794.2c0.2-0.1,0.4-0.2,0.6-0.4c0.9-0.8,1-2.1,0.2-3c-5.9-6.9-14-5-14.4-4.9c-1.1,0.3-1.8,1.4-1.5,2.6
						c0.3,1.1,1.4,1.8,2.6,1.5c0.3-0.1,6-1.3,10.1,3.5C1581.9,794.3,1582.9,794.6,1583.7,794.2z"/>
				</g>
				<path class="st8" d="M1554.2,811.5c2.7,3.3,5,6.6,7.6,8.6c0.9,0.7,1.1,2,0.4,2.9c-2.6,3.8-9.5,6.5-13.7,7.9
					c-0.6,0.2-1-0.6-0.5-1c4.4-3.2,6.4-5.7,7.2-7.1c0.4-0.7,0.5-1.5,0.2-2.3c-0.7-1.7-2.1-5.2-2.9-8.1
					C1552.2,811.4,1553.5,810.7,1554.2,811.5z"/>
				<path class="st0" d="M1527.4,842.2c-0.8-1.2,0.2-2.9,1.7-2.6c3.7,0.7,9.9,1.7,15.8,2c5.9,0.4,12.2,0.1,15.9-0.1
					c1.5-0.1,2.3,1.6,1.4,2.8c-2.9,3.5-8.9,8.7-18,8.2C1535.1,852,1529.9,846.1,1527.4,842.2z"/>
				<path d="M1464.6,802.7c37.8-1.7,87.6-36.6,93.6-55.8c-5.2-24.1-24.2-37.8-46.9-28.8C1488.6,727,1451.3,771.7,1464.6,802.7z"/>
				<path d="M1549.5,756.6c0,0,22.5,22.9,45.3,28.1c-8-26.7-13.7-46.9-27.4-53.5c-13.7-6.6-28.8-7.7-28.8-7.7L1549.5,756.6z"/>
				<g>
					<path class="st4" d="M1486.4,800.1c7.1,6.6,8.5,16.6,3.1,22.4c-5.4,5.8-15.5,5.2-22.6-1.4c-7.1-6.6-8.5-16.6-3.1-22.4
						C1469.2,792.9,1479.3,793.5,1486.4,800.1z"/>
					<g>
						<path class="st8" d="M1480.3,819.9c0.3-0.1,0.6-0.3,0.8-0.6c3.3-3.6,3.9-8,1.8-11.6c-2.2-3.7-6.8-5.8-10.8-4.8
							c-1.1,0.3-1.8,1.4-1.6,2.5c0.3,1.1,1.4,1.8,2.5,1.6c2.2-0.5,4.9,0.7,6.2,2.8c1.2,2,0.8,4.4-1.3,6.6c-0.8,0.9-0.7,2.2,0.2,3
							C1478.7,820.1,1479.6,820.2,1480.3,819.9z"/>
					</g>
				</g>
				<path d="M1516.4,801.7c0,3.6,2.9,6.5,6.5,6.5c3.6,0,6.5-2.9,6.5-6.5s-2.9-6.5-6.5-6.5C1519.3,795.2,1516.4,798.1,1516.4,801.7z"
					/>
				<path d="M1563.8,801.7c0,3.6,2.9,6.5,6.5,6.5c3.6,0,6.5-2.9,6.5-6.5s-2.9-6.5-6.5-6.5C1566.7,795.2,1563.8,798.1,1563.8,801.7z"
					/>
			</g>
			<g>
				<path class="st4" d="M1579.2,1642.9c-2.5-24.8,10.3-213.6,10.3-213.6c36.2-165.9,22-284.7,22-284.7l-62.2,4.4l-24.5,93.8
					l11.6,156.6c0,0-4.4,12.1-6.7,21.7c-12.5,52.3,0,114.7,7.6,156.4c3.6,19.3,9.1,59.9,9.3,69.1l-15.6,20.2c0,0,56.6,62.6,65.3,63
					c16.9,0.8,11.9-16,11.9-16C1584.9,1689.8,1579.9,1650,1579.2,1642.9z"/>
				<path class="st6" d="M1530,1688.9l3.1,40.2l7.2,0.3l3.7-37.3c19.2,4.9,33,39.8,33,39.8c13.3,4.8,46.9,8,58.9,1.8
					c2.9-11.7-27.8-20-27.8-20c-2.8,3.3-19.2,5.8-25,2.3c-21.5-18.3-31.9-44.8-36.5-69.5C1546.6,1646.5,1512.7,1648.9,1530,1688.9z"
					/>
			</g>
			<g>
				<path class="st4" d="M1558.2,1156.7l-87.6-12.1c-33.5,75.8-44.4,207.9-53.5,254.9c-36.5,61.2-48.1,247-48.1,247l-15.6,20.2
					c0,0,56.6,62.6,65.3,63c16.9,0.8,11.9-16,11.9-16c-23.2-23.9-27.8-55.6-29.3-62.6c-2.3-10.5,70.9-216.5,70.9-216.5l7.8-19.5
					c89.4-147.7,104.1-259.3,104.1-259.3L1558.2,1156.7z"/>
				<path class="st6" d="M1352.3,1688.9l3.1,40.2l7.2,0.3l3.7-37.3c19.2,4.9,33,39.8,33,39.8c13.3,4.8,46.9,8,58.9,1.8
					c2.9-11.7-27.8-20-27.8-20c-2.8,3.3-19.2,5.8-25,2.3c-21.5-18.3-31.9-44.8-36.5-69.5C1368.9,1646.5,1335,1648.9,1352.3,1688.9z"
					/>
			</g>
			<g>
				<g>
					<g>
						<g>
							<path class="st9" d="M1395.3,1390.9c8.8-29.3,4.9-238.9,82.2-295.8l132.9,14c30.7,49.7,19.5,179.1,9.1,285.6
								C1557,1417,1507.3,1425.9,1395.3,1390.9z"/>
						</g>
					</g>
				</g>
			</g>
			<g>
				<g>
					<g>
						<path class="st10" d="M1612,1076.3c0-29.1,25.2-72.7,13.1-102.1c-8.8-23.6-26.1-77-45-80.6c-7.7-1.5-16.1,0-26.6-2.9
							c0,0,5.5,24.7-6.9,25.7c-24,1.9-36.6-28.8-36.6-28.8c-12.9-1.2-58,12.2-58,17.1c0.1,38.1,16.9,99.8,27,141
							c1.9,21,0.4,37.3-1.7,49.2c-3.8,12.4-8.5,19.5-8.6,22.2c0,0,88.9,30.2,145.4-0.9C1614.2,1116,1612,1095.9,1612,1076.3z"/>
					</g>
				</g>
			</g>
			<g id="c_26_">
				<path class="st4" d="M1453.9,1103.9l7.6,3c0,0,7.9-12.6,15.9-12.2l-4,12c0,0,4.5,14,28.8,12.4c20.7,4.7,6.2,14.5,12,18.5
					c8.5,5.8-15.3,20.1-35.3,13.9c-25.9-8-42.7-32.4-42.7-32.4L1453.9,1103.9z"/>
			</g>
			<path class="st4" d="M1453.9,902.3c0,0-63.3,37.1-94,126c27.5,30.5,50.7,7.7,50.7,7.7l61.3-60.6c0,0,18-22.2,9.4-49.2
				C1473.9,902.7,1453.9,902.3,1453.9,902.3z"/>
			<path class="st4" d="M1453.9,1103.9l-44.3-64.8c0,0-10.5-24.9-49.7-10.8c-1.9,21.1,13.4,51.2,83.4,97.5
				C1447.9,1114,1453.9,1103.9,1453.9,1103.9z"/>
			<path class="st0" d="M1546.6,916.3c2.1,10-3.7,21.9-20.4,16.3c-20-6.7-29.4-44.3-29.4-44.3l12.5-6.8
				C1509.4,881.6,1519,907.5,1546.6,916.3z"/>
			<path class="st0" d="M1546.6,916.3c2.5,5.1,16.5,18.3,23.2,10.5c6.7-7.8-1.1-28.4-1.1-28.4l-15.2-7.7
				C1553.5,890.6,1559.5,909.2,1546.6,916.3z"/>
			<path class="st3" d="M1453.9,902.3c0,0-63.3,37.1-94,126c27.5,30.5,53.1,5.4,53.1,5.4l59-58.3c0,0,18-22.2,9.4-49.2
				C1473.9,902.7,1453.9,902.3,1453.9,902.3z"/>
		</g>
	</g>
	<g>
		<g>
			<path class="st3" d="M1086.8,1599.8l38.9,124c1,3.3,2.8,5.3,4.6,5.3l0,0c3.4,0,6-6.6,5.5-13.9l-8.5-115.4H1086.8z"/>
			<path class="st3" d="M728,1599.8l-38.9,124c-1,3.3-2.8,5.3-4.6,5.3l0,0c-3.4,0-6-6.6-5.5-13.9l8.5-115.4H728z"/>
			<path class="st3" d="M542.9,1599.8l-38.9,124c-1,3.3-2.8,5.3-4.6,5.3l0,0c-3.4,0-6-6.6-5.5-13.9l8.5-115.4H542.9z"/>
			<path class="st10" d="M765.9,1604.3h349.3c24.1,0,43.6-19.5,43.6-43.6v-221.5c0-18.7-15.2-33.9-33.9-33.9h-359V1604.3z"/>
			<path class="st3" d="M678.9,1604.3h349.3c24.1,0,43.6-19.5,43.6-43.6v-221.5c0-18.7-15.2-33.9-33.9-33.9h-359V1604.3z"/>
			<path class="st10" d="M602.9,1380.9h289.7v-212.4c0-17.4-14.1-31.5-31.5-31.5H602.9V1380.9z"/>
			<path class="st11" d="M571.7,1375.8h461.1c21.9,0,39.7,17.8,39.7,39.7v45.8H571.7V1375.8z"/>
			<rect x="571.7" y="1451.4" class="st10" width="500.8" height="153.1"/>
			<path class="st3" d="M502.1,1380.9h100.8v-243.9h-68.2c-18,0-32.5,14.6-32.5,32.5V1380.9z"/>
		</g>
		<g>
			<path class="st12" d="M808.1,869.9c0,26.8-21.7,48.4-48.5,48.4c-26.8,0-48.5-21.7-48.5-48.4c0-26.8,21.7-48.5,48.5-48.5
				C786.4,821.5,808.1,843.2,808.1,869.9z"/>
			<path class="st13" d="M883,1006.4c22.8-22.1,46.8-114.9-16.6-142.9c-60-26.5-135.7,10.6-138.6,74.3
				c-2.9,63.7,45.8,94.6,45.8,94.6L883,1006.4z"/>
			<path class="st4" d="M1159.9,1562.4l19.1,26.7c0,0,17.1,21.8,37.4,11.5c20.4-10.2,11.3-42.9,11.3-42.9l-23.4-30.8L1159.9,1562.4z
				"/>
			<g>
				<g>
					<g>
						<path class="st13" d="M1227,1554.2c0,0,20.6-0.2,42.9-7.8c12.5-4.3,45.2-16.6,52.5,5.7c1.1,3.3,0.6,8-5.5,15.1
							c-9.1,10.5-22.9,22-55.3,32.1c-38.9,12-42,18.9-56.9,22.6c-15.4,3.8-20.5-17.7-26.4-35.1l0,0c2.7,3.7,10.8,12.7,39.7,7.5
							C1226.6,1592.6,1202,1565.5,1227,1554.2z"/>
					</g>
				</g>
			</g>
			<path class="st4" d="M998,1654.3v18.1c0,0,1.2,27.6,23.7,31.2c22.5,3.5,34.2-28.3,34.2-28.3l-0.8-28.6L998,1654.3z"/>
			<g>
				<path class="st14" d="M911.8,1202.5c-11-0.1-33.5,40.2-31.6,43.5c26.6,29.5,130.6,32.5,130.6,32.5l12.5-12.8
					C1023.2,1265.7,961.5,1237.4,911.8,1202.5z"/>
				<path class="st14" d="M813.2,1110.3c10.1,30.4,56,132,67,135.7l31.6-43.5c0,0-47.8-106.6-56-122.5
					C841.5,1052.4,796.6,1060.7,813.2,1110.3z"/>
			</g>
			<path class="st4" d="M816,1010.6c0,0,4.4,39.3,6.2,53.7l-51.3,13.1c-6.6-44-7.1-99.3-7.1-99.3L816,1010.6z"/>
			<g>
				<path class="st4" d="M762.2,953.3c-2.5,47.1,25.4,87,62.5,89c37,2,69.1-34.6,71.6-81.8c2.5-47.1-25.4-87-62.5-89
					C796.8,869.6,764.7,906.2,762.2,953.3z"/>
				<path d="M876.6,967.3c0.6,3.5,4,5.9,7.5,5.2c3.5-0.6,5.9-4,5.2-7.5c-0.6-3.5-4-5.9-7.5-5.2C878.4,960.4,876,963.8,876.6,967.3z"
					/>
				<path d="M824.5,964.9c0.7,3.8,4.3,6.3,8.1,5.7c3.8-0.7,6.3-4.3,5.7-8.1c-0.7-3.8-4.3-6.3-8.1-5.7
					C826.4,957.4,823.9,961.1,824.5,964.9z"/>
				<g>
					<path class="st13" d="M818.8,957.1c0.5-0.1,1-0.4,1.4-0.8c5.5-6.2,15-5,15.1-4.9c1.3,0.2,2.6-0.7,2.8-2c0.2-1.3-0.7-2.6-2-2.8
						c-0.5-0.1-12.2-1.7-19.4,6.5c-0.9,1-0.8,2.5,0.2,3.4C817.3,957.1,818.1,957.2,818.8,957.1z"/>
				</g>
				<g>
					<path class="st13" d="M892.8,962.3c0.3,0,0.5-0.1,0.8-0.3c1.2-0.6,1.6-2.1,1-3.3c-5-9.1-14.6-8.8-15-8.8
						c-1.3,0.1-2.4,1.2-2.3,2.5c0.1,1.3,1.2,2.4,2.5,2.3c0.3,0,7.1-0.1,10.6,6.3C890.7,962.1,891.8,962.5,892.8,962.3z"/>
				</g>
				<path class="st8" d="M868.7,979.6c2.4,4.5,4.3,9,6.9,12c0.9,1,0.8,2.6-0.2,3.5c-4,3.9-12.8,5.4-18,6c-0.8,0.1-1.1-1-0.4-1.3
					c6-2.7,8.9-5.2,10.2-6.6c0.7-0.7,1-1.7,0.8-2.6c-0.4-2.2-1.2-6.7-1.5-10.3C866.4,978.9,868.1,978.4,868.7,979.6z"/>
				<g>
					<path class="st8" d="M838.1,1021.9c-16.8-5-20.7-17.5-20.9-18.2c-0.4-1.4,0.4-2.9,1.8-3.3c1.4-0.4,2.9,0.4,3.3,1.8
						c0.2,0.7,5.5,16.6,31.6,16.4c1.5,0,2.7,1.2,2.7,2.7c0,1.5-1.2,2.7-2.7,2.7C847.7,1023.9,842.5,1023.2,838.1,1021.9z"/>
				</g>
				<path class="st13" d="M756.9,953.2c42.9,6.7,118.7-22.2,129.8-42.3c-0.3-28.3-38.9-53.9-66.5-49.1
					C792.6,866.7,749.1,915.4,756.9,953.2z"/>
				<g>
					<path class="st4" d="M778.7,950.2c6.5,9,5.7,20.6-1.7,25.9c-7.4,5.3-18.6,2.3-25.1-6.8c-6.5-9-5.7-20.6,1.7-25.9
						C761,938.1,772.3,941.1,778.7,950.2z"/>
					<g>
						<path class="st8" d="M767.3,971c0.4-0.1,0.7-0.2,1-0.4c4.5-3.3,6.2-8.1,4.6-12.7c-1.6-4.7-6.3-8-11-7.9
							c-1.3,0-2.4,1.2-2.4,2.5c0,1.3,1.2,2.4,2.5,2.4c2.6-0.1,5.4,1.9,6.3,4.6c0.9,2.6-0.2,5.1-2.9,7.2c-1.1,0.8-1.3,2.3-0.5,3.4
							C765.5,970.8,766.5,971.2,767.3,971z"/>
					</g>
				</g>
			</g>
			<path class="st15" d="M835.4,1393.2l218.4-9.3c0,0,10.8-54.5,2.7-76.1c-8.1-21.6-208.8-17.2-208.8-17.2L835.4,1393.2z"/>
			<path class="st16" d="M771.1,1253.3c-5.9,13.7-29,54.4-26.8,87.4c2.3,34.1,26.3,63.7,67,63.1c0,0,76.7-43.6,60.1-132.8
				C871.4,1270.9,831.3,1255.2,771.1,1253.3z"/>
			<path class="st16" d="M805.3,1411.5l192.4,18.1c0,0,66-27.8,65.6-51.5c-0.4-23.6-194.2-88.4-194.2-88.4
				C755.4,1256.6,717.5,1397.7,805.3,1411.5z"/>
			<path class="st16" d="M1063.3,1378.2l-3.9,271.3c0,0-48,20.2-64.9,0.2c-7.9-92.1-45.8-173.7-3.5-229.8
				C1047.6,1344.6,1063.3,1378.2,1063.3,1378.2z"/>
			<path class="st15" d="M1056,1307.2L1216,1527c0,0-35.7,47.8-60.7,42.2c-43-54.5-130.1-118.3-130.7-186.9
				C1023.9,1290.5,1056,1307.2,1056,1307.2z"/>
			<path class="st6" d="M768.7,1060.1l53.9-0.6c24.7,28.8,49.8,53.5,54.3,73.1c5.8,25.9,4.8,165.5,4.8,165.5
				c-45.3,16.6-96,1.8-129-10.5c8.3-68.7-46.9-146-14.8-198.3C745.8,1076.3,756.5,1070.1,768.7,1060.1z"/>
			<g>
				<g>
					<g>
						<path class="st13" d="M1057.3,1671.9c0,0,16.8,11.8,39.4,18.6c12.6,3.8,46.4,12.7,39.4,35.2c-1,3.3-4.2,6.9-13.3,9.1
							c-13.5,3.3-31.4,4.6-63.6-6.1c-38.6-12.8-45.2-9-59.4-14.7c-14.7-5.9-6.4-26.3-1.1-43.9l0,0c0.1,4.6,1.4,16.7,28,29.2
							C1034.6,1703,1030.3,1666.6,1057.3,1671.9z"/>
					</g>
				</g>
			</g>
			<g>
				<path class="st13" d="M875.4,1309.5h174.5l34.4-109.5c1.6-5.1-2.2-10.2-7.5-10.2H918.8c-3.4,0-6.5,2.2-7.5,5.5L875.4,1309.5z"/>
				<path class="st17" d="M888.6,1309.5h167c4.5,0,8.4-2.9,9.7-7.1l32.2-102.4c1.6-5.1-2.2-10.2-7.5-10.2H932
					c-3.4,0-6.5,2.2-7.5,5.5L888.6,1309.5z"/>
				<path class="st18" d="M991.4,1251.8c-1.9,6.8,1.5,13.7,7.6,15.4c6.1,1.7,12.7-2.3,14.6-9.1c1.9-6.8-1.5-13.7-7.6-15.4
					C999.8,1241,993.3,1245,991.4,1251.8z"/>
				<path class="st13" d="M794.5,1293.3h94.1v15.9H782.2v-3.6C782.2,1298.8,787.7,1293.3,794.5,1293.3z"/>
			</g>
			<path class="st4" d="M868.3,1301.3c-12.5-0.1-28.9,2.3-28.5-4.2c0.4-6.5,6.8-8.9,7.6-16.6c0.7-6.9-22.5-5.1-37.1,17.6l-4.3-2.4
				l-12.4,21.1l7.8,2.9c13.2,15.9,53.2,24.1,76.7,11.6C901.8,1318.8,880.8,1301.4,868.3,1301.3z"/>
			<path class="st14" d="M718.9,1097.3c-15.4,33.8-72.1,110.7-59.7,153.2c8.7,29.8,136.9,73.4,136.9,73.4l12.2-31.1l-89.1-66.3
				c0,0,52-101.4,57.4-120.6C786,1072.3,743.1,1044.1,718.9,1097.3z"/>
			<path class="st6" d="M765.3,1040.6l1.2,21.2h56v-16.9C822.6,1044.9,785.1,1043.3,765.3,1040.6z"/>
		</g>
		<path class="st10" d="M589.1,1604.3h208.5c24.1,0,43.6-19.5,43.6-43.6v-221.5c0-18.7-15.2-33.9-33.9-33.9H589.1V1604.3z"/>
		<path class="st3" d="M502.1,1604.3h208.5c24.1,0,43.6-19.5,43.6-43.6v-221.5c0-18.7-15.2-33.9-33.9-33.9H502.1V1604.3z"/>
	</g>
	<g>
		<g>
			<path class="st16" d="M283.9,1653.8c-16.5,69.3-75.4,31.2-63.1,74.9c0.9,3.2,4,5.4,7.3,5.5l34.6,1.3c3.3,0.1,6.6-0.8,9.4-2.7
				c18.3-12.5,30.7-30.1,70.1-32.3c-0.3-16.8,0.5-40.9-5.1-49.5L283.9,1653.8z"/>
			<path class="st12" d="M375.1,1167.8c0,0-100.7,153.5-114.6,201.3c-13.9,47.8,15.2,128.7,9.9,291.8c31.5,8.2,73.4,1.1,73.4,1.1
				s25.3-204.6-4.5-252.9c44.5-67.9,156.3-216.2,156.3-216.2L375.1,1167.8z"/>
		</g>
		<g>
			<path class="st16" d="M430.9,1676.1c-25.6,34.9-89.6,14.2-87,61c96.9-1.5,137.2-1.3,137.2-1.3c-0.2-10.8-2.4-36.3-4.7-46.2
				L430.9,1676.1z"/>
			<path class="st13" d="M400.9,1136.7c0,0-32.1,250.5-24.7,299.7c7.4,49.2,30.4,87.7,31.2,250.9c31.7,7,80.3,13.3,80.3,13.3
				s20.5-196.8-21.6-251c11.9-80.3,68.8-282.3,68.8-282.3L400.9,1136.7z"/>
		</g>
		<g>
			<path class="st14" d="M236.4,1026.4l-39.1-43.9c-0.9-0.9-2.1-1.5-3.3-1.5l-32.2-0.2c-0.9,0-3.8,5.1-3.1,5.8l27.6,24.5
				c0.1,0.1,0.3,0.2,0.5,0.3L234,1029C235,1029.3,237.1,1027.2,236.4,1026.4z"/>
			<path class="st6" d="M233.4,1029.4L196.2,988c-0.9-0.9-2.1-1.5-3.3-1.5l-33.2-0.6c-0.9,0-1.4,1.1-0.8,1.8l26.3,28.9
				c0.1,0.1,0.3,0.2,0.5,0.3l46.8,14.2C233.4,1031.4,234.2,1030.2,233.4,1029.4z"/>
			<path class="st4" d="M307.1,1067.1l-27-13.2c0,0-26.6-26.9-30.5-32.9c-5.9-3-17.1-10.5-19.6-10.8c-2.5-0.3-7.7,0.5-7.7,0.5
				l12.5,14.2c0,0-5.9,1.2-13.5-3.6c-7.6-4.8-20.9-17.7-27.5-15.2c-2.3,2.1-2.3,2.1-2.3,2.1s-4.1-4.4-8-2.8
				c-3.9,1.6,3.9,21.1,25.8,41.7c1.5,5.5,8.7,15.1,8.7,15.1l44.5,15.6L307.1,1067.1z"/>
			<path class="st14" d="M190.1,994.2c1.6,1.6,3.9,1.9,5.1,0.6c1.2-1.2,0.9-3.5-0.6-5.1c-1.6-1.6-3.8-1.9-5.1-0.6
				C188.2,990.4,188.5,992.7,190.1,994.2z"/>
			<path class="st4" d="M432.7,868.8c-8,10.4,54.7,21.6,63.1,0.1c8.4-21.6-6-80.8-6-80.8l-57.1,12.1
				C432.6,800.2,443.1,855.3,432.7,868.8z"/>
			<g>
				<path class="st4" d="M502.2,739.7c4.8,45.8-20.5,86.1-56.5,89.8c-36,3.8-69.1-30.3-73.9-76.2c-4.8-45.8,20.5-86.1,56.5-89.8
					C464.3,659.8,497.4,693.9,502.2,739.7z"/>
				<path d="M393.1,766.9c-1.3,3.5-5.2,5.4-8.7,4.1c-3.5-1.3-5.4-5.2-4.1-8.7c1.3-3.5,5.2-5.4,8.7-4.1
					C392.5,759.4,394.4,763.4,393.1,766.9z"/>
				<path d="M437.8,757.1c-1.4,3.8-5.6,5.8-9.4,4.5c-3.8-1.4-5.8-5.6-4.5-9.4c1.4-3.8,5.6-5.8,9.4-4.5
					C437.2,749.1,439.2,753.3,437.8,757.1z"/>
				<path class="st8" d="M406.1,765.5c-1.4,10.7-3.5,24-3.5,24s7.1,7.4,18.8,2.3c-5.9,0.2-12.2-0.9-13.2-8.4
					C407.3,775.9,406.1,765.5,406.1,765.5z"/>
				<g>
					<path class="st12" d="M391.1,751.3c-0.8,0.5-1.7,0.5-2.6,0.1c-0.1,0-2.9-1.5-5.6-0.5c-1.9,0.7-3.4,2.6-4.5,5.5
						c-0.5,1.4-2,2-3.4,1.5c-1.4-0.5-2-2-1.5-3.4c1.6-4.4,4.2-7.3,7.6-8.6c5-1.8,9.7,0.7,9.9,0.8c1.3,0.7,1.7,2.3,1,3.6
						C391.8,750.8,391.5,751.1,391.1,751.3z"/>
				</g>
				<g>
					<path class="st12" d="M425.1,743.9c0.9,0.2,1.8-0.1,2.5-0.8c0.1-0.1,2.3-2.4,5.1-2.3c2,0.1,4,1.3,6,3.7
						c0.9,1.1,2.6,1.3,3.7,0.3c1.1-0.9,1.3-2.6,0.3-3.7c-3-3.6-6.4-5.5-10-5.6c-5.3-0.1-8.9,3.8-9.1,4c-1,1.1-0.9,2.7,0.2,3.7
						C424.3,743.6,424.7,743.8,425.1,743.9z"/>
				</g>
				<path class="st12" d="M488.8,768.8c-23.7-19.9-17.2-50.2-17.2-50.2c-11.5,0.8-14.7,5.7-14.7,5.7c-9.2-10.6-7-20.6-7-20.6
					c-24.9-2.7-32.2,14.9-51.3,25.3c-26.1,14.2-63.5,12.4-75.9-20.8c-1.8-4.8,2.8-9.4,7.6-7.8c4.5,1.5,10.1,2.2,16.4,0.3
					c0,0-7.6-5-10.4-14c-1.5-5,3.6-9.3,8.4-7.1c7.1,3.3,19.1,4.9,37.3-3.8c12.1-5.8,35.8-34.1,55.1-35c15.8-0.7,31,8.7,40.9,25.5
					c0,0,37.6-6.1,52.1,33.2c14.2,38.6-39.2,98.1-39.2,98.1S495.1,774.9,488.8,768.8z"/>
				<path class="st0" d="M409,809.3c-1.5-1-1.1-3.2,0.6-3.6c4.4-1.1,11.5-3,18.1-5.5c6.6-2.5,13.3-5.7,17.3-7.8
					c1.6-0.8,3.3,0.6,2.8,2.3c-1.5,5.2-5.4,13.8-15.6,17.6C422.2,816.1,413.6,812.2,409,809.3z"/>
				<g>
					<path class="st4" d="M471.9,741.8c-7.7,7.6-8.9,18.9-2.7,25.2c6.2,6.3,17.5,5.3,25.3-2.4c7.7-7.6,8.9-18.9,2.7-25.2
						C491,733.2,479.7,734.2,471.9,741.8z"/>
					<g>
						<path class="st8" d="M479.4,763.8c-0.3-0.1-0.6-0.3-0.9-0.6c-3.8-4-4.7-8.8-2.4-12.9c2.4-4.3,7.4-6.7,11.9-5.7
							c1.3,0.3,2.1,1.5,1.8,2.8c-0.3,1.3-1.5,2.1-2.8,1.8c-2.5-0.5-5.5,1-6.8,3.4c-1.3,2.3-0.7,4.9,1.6,7.4c0.9,0.9,0.9,2.4-0.1,3.4
							C481.2,763.9,480.2,764.1,479.4,763.8z"/>
					</g>
				</g>
			</g>
			<path class="st15" d="M363,1186.1c44.7,9.1,125.1,24.9,167.6,8.3c16.1-23.1,20.2-153.7,20.2-153.7
				c4.7-134.4-11.5-154.3-47.8-199.4c-15.3,7-53.4,13-70.2,13.1c0,0-38,52.8-45.5,91.1c-7.5,38.9-8.4,108-9.1,147.6
				C377.4,1137.2,368.7,1158.4,363,1186.1z"/>
			<path class="st16" d="M508.2,882.2c26.1,50.9,20.2,107.3-55.8,218.2c-53.2-4.6-63.7-49-63.7-49s14.6-55.1,33.6-124.4
				C441.4,857.7,496.8,859.9,508.2,882.2z"/>
			<path class="st16" d="M275.8,1040.8l114,9.1c0,0,48.9-8.9,62.6,50.5c-24.5,19-87.6,26.2-191.2-12.3
				C272.2,1073.2,275.8,1040.8,275.8,1040.8z"/>
			<polygon class="st0" points="433,850.7 432,881.4 509.1,849.1 499.7,824.3 			"/>
		</g>
	</g>
	<g>
		<path class="st19" d="M1145,942.4H964.9c-11.2,0-20.2,9.1-20.2,20.2v101c0,11.2,9.1,20.2,20.2,20.2h5.9l20.9,39.3
			c2.7,5.1,10,5.3,13,0.4l24.1-39.7H1145c11.2,0,20.2-9.1,20.2-20.2v-101C1165.2,951.4,1156.2,942.4,1145,942.4z"/>
		<path class="st19" d="M1051.1,919.7L1051.1,919.7c-6.5,0-11.8-5.3-11.8-11.8v-36c0-6.5,5.3-11.8,11.8-11.8l0,0
			c6.5,0,11.8,5.3,11.8,11.8v36C1063,914.4,1057.7,919.7,1051.1,919.7z"/>
		<path class="st19" d="M1094.1,916.3L1094.1,916.3c-4.6-4.6-4.6-12.1,0-16.7l25.5-25.5c4.6-4.6,12.1-4.6,16.7,0l0,0
			c4.6,4.6,4.6,12.1,0,16.7l-25.5,25.5C1106.2,920.9,1098.7,920.9,1094.1,916.3z"/>
		<path class="st19" d="M1008.2,916.3L1008.2,916.3c4.6-4.6,4.6-12.1,0-16.7l-25.5-25.5c-4.6-4.6-12.1-4.6-16.7,0l0,0
			c-4.6,4.6-4.6,12.1,0,16.7l25.5,25.5C996.1,920.9,1003.6,920.9,1008.2,916.3z"/>
		<path class="st0" d="M1134.1,933.8H954c-11.2,0-20.2,9.1-20.2,20.2v101c0,11.2,9.1,20.3,20.2,20.3h5.9l20.9,39.3
			c2.7,5.1,10,5.3,13,0.4l24.1-39.7h116.3c11.2,0,20.2-9.1,20.2-20.3v-101C1154.3,942.9,1145.2,933.8,1134.1,933.8z"/>
		<g>
			<path class="st14" d="M1118.7,965.4l0.1,78.9c0,3-2.4,5.4-5.4,5.4l-137.2,0.1c-3,0-5.4-2.4-5.4-5.4l-0.1-78.9
				c0-3,2.4-5.4,5.4-5.4l137.2-0.1C1116.2,960,1118.7,962.4,1118.7,965.4z"/>
			<path class="st6" d="M1118.7,965.4l0,4.4l-62.5,44.9c-6.1,4.5-14.4,4.6-20.5,0.2L970.6,968l0-2.5c0-3,2.4-5.4,5.4-5.4l137.2-0.1
				C1116.2,960,1118.7,962.4,1118.7,965.4z"/>
		</g>
		<path class="st0" d="M1043.1,912.3L1043.1,912.3c-6.5,0-11.8-5.3-11.8-11.8v-36c0-6.5,5.3-11.8,11.8-11.8l0,0
			c6.5,0,11.8,5.3,11.8,11.8v36C1054.9,907,1049.6,912.3,1043.1,912.3z"/>
		<path class="st0" d="M1086,908.8L1086,908.8c-4.6-4.6-4.6-12.1,0-16.7l25.5-25.5c4.6-4.6,12.1-4.6,16.7,0l0,0
			c4.6,4.6,4.6,12.1,0,16.7l-25.5,25.5C1098.1,913.4,1090.6,913.4,1086,908.8z"/>
		<path class="st0" d="M1000.2,908.8L1000.2,908.8c4.6-4.6,4.6-12.1,0-16.7l-25.5-25.5c-4.6-4.6-12.1-4.6-16.7,0l0,0
			c-4.6,4.6-4.6,12.1,0,16.7l25.5,25.5C988.1,913.4,995.6,913.4,1000.2,908.8z"/>
	</g>
	<g>
		<path class="st20" d="M1767.6,440h-256c-30.2,0-54.7,24.5-54.7,54.7v103c0,30.2,24.5,54.7,54.7,54.7h176.6l-6.2,115
			c-0.5,8.8,11.6,11.8,15.3,3.8l54.4-118.7h15.9c30.2,0,54.7-24.5,54.7-54.7v-103C1822.3,464.5,1797.8,440,1767.6,440z"/>
		<path class="st1" d="M1775.1,508.2h-266.2c-10.3,0-18.7-8.4-18.7-18.7l0,0c0-10.3,8.4-18.7,18.7-18.7h266.2
			c10.3,0,18.7,8.4,18.7,18.7l0,0C1793.8,499.8,1785.4,508.2,1775.1,508.2z"/>
		<path class="st1" d="M1775.1,563.6h-266.2c-10.3,0-18.7-8.4-18.7-18.7l0,0c0-10.3,8.4-18.7,18.7-18.7h266.2
			c10.3,0,18.7,8.4,18.7,18.7l0,0C1793.8,555.2,1785.4,563.6,1775.1,563.6z"/>
		<path class="st1" d="M1689.7,619h-183.8c-8.7,0-15.8-7.1-15.8-15.8v-5.9c0-8.7,7.1-15.8,15.8-15.8h183.8c8.7,0,15.8,7.1,15.8,15.8
			v5.9C1705.5,612,1698.4,619,1689.7,619z"/>
	</g>
	<g>
		<path class="st0" d="M2541,560.6h-189.1c-14.9,0-27-12.1-27-27v-80.7c0-14.9,12.1-27,27-27H2541c14.9,0,27,12.1,27,27v80.7
			C2568,548.5,2556,560.6,2541,560.6z"/>
		<path class="st0" d="M2426.2,793.9h-245.5c-19.4,0-35.1-15.7-35.1-35.1V654.1c0-19.4,15.7-35.1,35.1-35.1h245.5
			c19.4,0,35.1,15.7,35.1,35.1v104.8C2461.3,778.2,2445.6,793.9,2426.2,793.9z"/>
		<polygon class="st0" points="2363.5,560.6 2363.5,630.6 2407.1,560.6 		"/>
		<path class="st0" d="M2416.6,786.1v65.1c0,5.2-7,6.9-9.4,2.3l-34.2-67.4H2416.6z"/>
		<path class="st1" d="M2528.7,480.6h-164.4c-8,0-14.4-6.5-14.4-14.4l0,0c0-8,6.5-14.4,14.4-14.4h164.4c8,0,14.4,6.5,14.4,14.4l0,0
			C2543.1,474.1,2536.6,480.6,2528.7,480.6z"/>
		<path class="st1" d="M2528.7,527.1h-164.4c-8,0-14.4-6.5-14.4-14.4v0c0-8,6.5-14.4,14.4-14.4h164.4c8,0,14.4,6.5,14.4,14.4v0
			C2543.1,520.7,2536.6,527.1,2528.7,527.1z"/>
		<path class="st1" d="M2420.1,673.7h-230.3c-8.9,0-16-7.2-16-16l0,0c0-8.9,7.2-16,16-16h230.3c8.9,0,16,7.2,16,16l0,0
			C2436.1,666.5,2429,673.7,2420.1,673.7z"/>
		<path class="st1" d="M2420.1,724.6h-230.3c-8.9,0-16-7.2-16-16l0,0c0-8.9,7.2-16,16-16h230.3c8.9,0,16,7.2,16,16l0,0
			C2436.1,717.4,2429,724.6,2420.1,724.6z"/>
		<path class="st1" d="M2422.5,775.4h-147.8c-7.6,0-13.7-6.1-13.7-13.7v-4.7c0-7.6,6.1-13.7,13.7-13.7h147.8
			c7.6,0,13.7,6.1,13.7,13.7v4.7C2436.1,769.3,2430,775.4,2422.5,775.4z"/>
	</g>
	<g>
		<path class="st0" d="M99.9,520.4c-0.1,0-0.2-0.1-0.3-0.1c-3.3-1-5.1-4.4-4.2-7.6c1.1-3.7,4.3-13.7,11-25.5c1.7-3,5.4-4,8.4-2.4
			c3,1.7,4,5.4,2.4,8.4c-6,10.7-8.9,19.6-9.9,22.9C106.3,519.3,103,521.2,99.9,520.4z M125.5,474.7c-0.9-0.2-1.9-0.7-2.6-1.4
			c-2.5-2.2-2.8-6.1-0.5-8.7c6.2-7,13.1-13.3,20.6-18.5c2.8-2,6.6-1.3,8.6,1.5c2,2.8,1.3,6.6-1.5,8.6c-6.7,4.7-12.9,10.3-18.4,16.6
			C129.9,474.6,127.6,475.3,125.5,474.7z M168.1,444.8c-1.9-0.4-3.5-1.8-4.3-3.7c-1.2-3.2,0.3-6.7,3.5-8c8.3-3.3,17.3-5.7,26.6-7.2
			c3.3-0.5,6.5,1.8,7,5.1c0.5,3.3-1.8,6.5-5.1,7c-8.4,1.3-16.5,3.5-24,6.5C170.5,445,169.2,445,168.1,444.8z M219.5,436.2
			c-2.8-0.7-4.8-3.2-4.7-6.1c0.1-3.4,2.9-6.1,6.3-6c8.6,0.2,17.7,1,27,2.5c3.4,0.5,5.6,3.7,5.1,7c-0.5,3.3-3.7,5.6-7,5.1
			c-8.7-1.4-17.2-2.2-25.3-2.4C220.4,436.4,219.9,436.3,219.5,436.2z M290.6,449.8c-3.7-0.9-7.5-1.9-11.3-3.1
			c-2.8-0.9-5.5-1.7-8.3-2.4c-3.3-0.9-5.2-4.3-4.3-7.5c0.9-3.3,4.3-5.2,7.5-4.3c2.8,0.8,5.7,1.6,8.6,2.5c5.5,1.7,11,3.1,16.3,4.1
			c3.3,0.6,5.5,3.9,4.9,7.2c-0.6,3.3-3.9,5.5-7.2,4.9C294.9,450.7,292.8,450.3,290.6,449.8z M322.9,453.6c-2.7-0.6-4.7-3-4.7-5.9
			c0-3.4,2.7-6.2,6.1-6.2c8.5-0.1,16.7-1.1,24.5-3.2c3.3-0.9,6.6,1.1,7.5,4.4c0.9,3.3-1.1,6.6-4.4,7.5c-8.7,2.3-18,3.5-27.5,3.6
			C323.8,453.8,323.3,453.7,322.9,453.6z M373.1,440.3c-1.6-0.4-3-1.4-3.9-2.9c-1.7-2.9-0.7-6.7,2.2-8.4c7-4,13.6-9.1,19.6-15
			c2.4-2.4,6.3-2.3,8.7,0.1c2.4,2.4,2.3,6.3-0.1,8.7c-6.7,6.6-14.2,12.3-22.1,16.9C376.2,440.4,374.6,440.6,373.1,440.3z
			 M410.5,403.9c-0.7-0.2-1.3-0.4-1.9-0.8c-2.8-1.8-3.6-5.6-1.8-8.5c4.4-6.8,8.4-14.3,11.7-22.3c1.3-3.1,4.9-4.6,8-3.3
			c3.1,1.3,4.6,4.9,3.3,8c-3.6,8.6-7.8,16.8-12.7,24.3C415.6,403.5,412.9,404.5,410.5,403.9z M1207.5,582.2c-2-0.5-3.8-2-4.4-4.1
			c-2.6-8.1-5.6-16.3-8.8-24.3c-1.3-3.1,0.2-6.7,3.4-8c3.1-1.3,6.7,0.2,8,3.4c3.4,8.3,6.5,16.8,9.1,25.2c1,3.2-0.7,6.7-4,7.7
			C1209.7,582.5,1208.5,582.5,1207.5,582.2z M385.8,346.1c-0.1,0-0.2-0.1-0.3-0.1c-9.1-2.7-17.7-6-25.5-9.7
			c-3.1-1.5-4.4-5.1-2.9-8.2c1.5-3.1,5.1-4.4,8.2-2.9c7.2,3.4,15.2,6.5,23.7,9c3.3,1,5.1,4.4,4.1,7.6
			C392.2,345,389,346.9,385.8,346.1z M411.4,352.1c-3.1-0.7-5.2-3.8-4.6-7c0.6-3.3,3.8-5.6,7.1-5c4.3,0.8,8.8,1.4,13.5,2
			c1.2-6.3,2-12.6,2.4-18.9c0.2-3.4,3.1-5.9,6.5-5.7c3.4,0.2,5.9,3.1,5.7,6.5c-0.4,6.5-1.2,13-2.4,19.4c3.3,0.4,5.7,3.3,5.4,6.6
			c-0.3,3.4-3.3,5.9-6.7,5.6c-1.3-0.1-2.6-0.2-3.9-0.4c-1.1,0.5-2.4,0.6-3.8,0.3c-0.8-0.2-1.5-0.5-2.2-1c-5.8-0.7-11.4-1.5-16.7-2.5
			C411.7,352.2,411.5,352.1,411.4,352.1z M1187.7,533.5c-1.7-0.4-3.2-1.5-4.1-3.2c-3.8-7.6-7.9-15.3-12.3-22.7
			c-1.7-2.9-0.7-6.7,2.2-8.4c2.9-1.7,6.7-0.7,8.4,2.2c4.5,7.7,8.8,15.6,12.7,23.5c1.5,3,0.3,6.7-2.8,8.2
			C1190.5,533.7,1189,533.9,1187.7,533.5z M463.8,356.9c-2.8-0.7-4.8-3.2-4.7-6.1c0.1-3.4,2.9-6.1,6.3-6c8.3,0.2,17,0.2,26-0.1
			c3.4-0.1,6.2,2.6,6.3,6c0.1,3.4-2.6,6.2-6,6.3c-9.2,0.3-18.1,0.3-26.6,0.1C464.6,357.1,464.2,357,463.8,356.9z M338.7,323.3
			c-0.8-0.2-1.6-0.5-2.3-1.1c-6.2-4.7-11.9-9.9-16.9-15.5c-1.1-1.2-2.1-2.4-3.1-3.5c-2.2-2.6-1.9-6.4,0.6-8.7
			c2.6-2.2,6.4-1.9,8.7,0.6c1,1.1,1.9,2.2,2.9,3.3c4.5,5,9.6,9.7,15.1,13.8c2.7,2,3.3,5.9,1.2,8.6C343.5,323,341,323.8,338.7,323.3z
			 M516.4,355.6c-2.5-0.6-4.5-2.8-4.7-5.6c-0.2-3.4,2.3-6.3,5.7-6.5c8.3-0.6,17.1-1.3,26-2.2c3.4-0.3,6.4,2.1,6.7,5.5
			c0.3,3.4-2.1,6.4-5.5,6.7c-9.1,0.9-18,1.7-26.4,2.2C517.6,355.8,517,355.7,516.4,355.6z M568.8,350.4c-2.4-0.6-4.3-2.6-4.7-5.2
			c-0.4-3.4,2-6.4,5.3-6.9c8.3-1.1,17-2.3,25.9-3.6c3.4-0.5,6.5,1.8,7,5.2c0.5,3.4-1.8,6.5-5.2,7c-9,1.3-17.8,2.6-26.2,3.6
			C570.2,350.6,569.5,350.5,568.8,350.4z M1161,488.2c-1.4-0.3-2.8-1.2-3.7-2.5c-4.8-7.1-10-14.1-15.3-20.9c-2.1-2.7-1.6-6.5,1-8.6
			c2.7-2.1,6.5-1.6,8.6,1c5.5,7,10.8,14.3,15.8,21.5c1.9,2.8,1.2,6.6-1.6,8.5C1164.4,488.3,1162.7,488.6,1161,488.2z M303.9,284.2
			c-1.5-0.4-2.9-1.3-3.8-2.7c-5.8-9.2-9.7-17.8-11.5-25.8c-0.8-3.3,1.3-6.6,4.6-7.4c3.3-0.8,6.6,1.3,7.4,4.6c1.5,6.6,4.9,14,9.9,22
			c1.8,2.9,0.9,6.7-1.9,8.5C307.1,284.4,305.4,284.6,303.9,284.2z M434,303.3c-2.5-0.6-4.4-2.6-4.7-5.3c-1-8.7-2.8-16.9-5.4-24.2
			c-1.1-3.2,0.5-6.7,3.7-7.8c3.2-1.1,6.7,0.5,7.8,3.7c2.9,8.2,5,17.3,6.1,27c0.4,3.4-2,6.4-5.4,6.8
			C435.3,303.5,434.6,303.5,434,303.3z M620.8,342.7c-2.3-0.6-4.2-2.5-4.6-5c-0.6-3.3,1.7-6.5,5.1-7.1c8.2-1.4,16.9-2.9,25.9-4.5
			c3.3-0.6,6.5,1.6,7.1,5c0.6,3.3-1.6,6.5-5,7.1c-9,1.6-17.8,3.1-26,4.5C622.4,342.9,621.6,342.8,620.8,342.7z M1128.6,446.8
			c-1.2-0.3-2.3-0.9-3.2-1.9c-5.7-6.4-11.7-12.7-17.8-18.8c-2.4-2.4-2.4-6.3,0-8.7c2.4-2.4,6.3-2.4,8.7,0
			c6.3,6.3,12.5,12.8,18.3,19.4c2.3,2.5,2,6.4-0.5,8.7C1132.6,446.8,1130.5,447.2,1128.6,446.8z M672.7,333.4
			c-2.3-0.5-4.2-2.4-4.6-4.8c-0.6-3.3,1.6-6.5,4.9-7.2c8.1-1.5,16.5-3.2,25.8-5c3.3-0.7,6.6,1.5,7.2,4.8c0.7,3.3-1.5,6.6-4.8,7.2
			c-9.3,1.8-17.8,3.5-25.9,5C674.3,333.6,673.5,333.6,672.7,333.4z M296.9,235.2c-0.8-0.2-1.5-0.5-2.2-1c-2.7-2-3.3-5.9-1.3-8.6
			c5.5-7.4,14.5-12.6,26.1-15c3.3-0.7,6.6,1.5,7.2,4.8c0.7,3.3-1.5,6.6-4.8,7.2c-8.6,1.7-15,5.3-18.7,10.2
			C301.8,234.9,299.2,235.7,296.9,235.2z M415.6,254.7c-1.3-0.3-2.4-1-3.3-2.1c-3.4-4.2-7.2-7.6-11.4-10.3c-2.4-1.5-4.9-3-7.4-4.4
			c-3-1.6-4-5.4-2.4-8.3c1.6-3,5.4-4,8.3-2.4c2.7,1.5,5.4,3.1,8,4.8c5.3,3.4,10.1,7.7,14.3,12.8c2.1,2.6,1.8,6.5-0.9,8.6
			C419.4,254.8,417.4,255.1,415.6,254.7z M724.3,323.3c-2.3-0.5-4.1-2.3-4.6-4.8c-0.7-3.3,1.5-6.6,4.8-7.2
			c5.9-1.2,11.8-2.4,17.7-3.6l8.1-1.6c3.3-0.7,6.6,1.5,7.2,4.8c0.7,3.3-1.5,6.6-4.8,7.2l-8.1,1.6c-5.9,1.2-11.8,2.4-17.7,3.6
			C726,323.5,725.2,323.5,724.3,323.3z M1091.3,409.7c-1-0.2-1.9-0.7-2.6-1.4c-6.5-5.7-13.2-11.3-20-16.6c-2.7-2.1-3.1-5.9-1.1-8.6
			s5.9-3.1,8.6-1.1c7,5.5,13.9,11.2,20.5,17c2.5,2.2,2.8,6.1,0.5,8.7C1095.8,409.5,1093.5,410.2,1091.3,409.7z M345.5,222
			c-3-0.7-5.1-3.6-4.7-6.7c0.4-3.4,3.5-5.8,6.8-5.4c8.7,1,17.8,3.2,26.8,6.2c3.2,1.1,4.9,4.6,3.8,7.8c-1.1,3.2-4.6,4.9-7.8,3.8
			c-8.2-2.8-16.5-4.7-24.3-5.7C346,222.1,345.7,222,345.5,222z M775.9,312.9c-2.3-0.5-4.1-2.3-4.6-4.8c-0.7-3.3,1.5-6.6,4.8-7.2
			c3-0.6,5.9-1.2,8.9-1.8c5.7-1.1,11.6-2.1,17.4-2.8c3.4-0.4,6.4,1.9,6.9,5.3c0.4,3.4-1.9,6.4-5.3,6.9c-5.6,0.7-11.2,1.6-16.6,2.7
			c-2.9,0.6-5.9,1.2-8.9,1.8C777.7,313.1,776.8,313.1,775.9,312.9z M1049.9,377.3c-0.7-0.2-1.4-0.5-2.1-0.9
			c-7.1-4.9-14.4-9.7-21.8-14.1c-2.9-1.8-3.8-5.5-2.1-8.4c1.8-2.9,5.5-3.8,8.4-2.1c7.6,4.6,15.1,9.5,22.4,14.5
			c2.8,1.9,3.5,5.8,1.6,8.5C1054.9,376.9,1052.3,377.8,1049.9,377.3z M1004.9,350c-0.5-0.1-1-0.3-1.4-0.5c-7.7-4-15.5-7.8-23.3-11.3
			c-3.1-1.4-4.5-5-3.1-8.1c1.4-3.1,5-4.5,8.1-3.1c8,3.6,16.1,7.5,24,11.7c3,1.6,4.2,5.3,2.6,8.3
			C1010.4,349.4,1007.6,350.7,1004.9,350z M828.1,306.3c-2.6-0.6-4.6-2.9-4.7-5.8c-0.1-3.4,2.5-6.2,5.9-6.3
			c8.8-0.3,17.8-0.2,26.8,0.3c3.4,0.2,6,3.1,5.8,6.5c-0.2,3.4-3.1,6-6.5,5.8c-8.6-0.5-17.3-0.6-25.8-0.3
			C829.1,306.5,828.6,306.4,828.1,306.3z M956.9,328.6c-0.2-0.1-0.5-0.1-0.7-0.2c-8.1-3-16.4-5.8-24.6-8.2c-3.3-1-5.1-4.4-4.2-7.6
			c1-3.3,4.4-5.1,7.6-4.2c8.4,2.5,17,5.3,25.4,8.5c3.2,1.2,4.8,4.7,3.6,7.9C963,327.7,959.9,329.3,956.9,328.6z M880.6,309.1
			c-3-0.7-5.1-3.7-4.7-6.8c0.5-3.4,3.6-5.7,6.9-5.2c8.7,1.2,17.6,2.8,26.4,4.7c3.3,0.7,5.4,4,4.7,7.3c-0.7,3.3-4,5.4-7.3,4.7
			c-8.5-1.8-17-3.4-25.4-4.5C880.9,309.2,880.7,309.1,880.6,309.1z"/>
	</g>
	<g>
		<polygon class="st21" points="1222.3,542.3 1195.5,569.4 1335.2,722.4 		"/>
		<polygon class="st21" points="1169.3,603.4 1170.8,642.1 1329,715.4 		"/>
		<polygon class="st0" points="1335.2,722.4 1076.9,560.3 1182.1,549.1 		"/>
		<polygon class="st0" points="1222.3,542.3 1335.2,722.4 1289.5,531 		"/>
	</g>
	<g>
		<path class="st0" d="M2667.4,326.2c-3.9,0-7-3.1-7-7c0-3.9,3.1-7,7-7c10.1,0,19.5-1.1,28-3.3c3.7-1,7.6,1.3,8.5,5
			c1,3.7-1.3,7.6-5,8.5C2689.2,324.9,2678.7,326.2,2667.4,326.2C2667.4,326.2,2667.4,326.2,2667.4,326.2z M2637.6,323.5
			c-0.4,0-0.8,0-1.2-0.1c-9.6-1.6-19.6-4-30-7c-3.7-1.1-5.8-5-4.7-8.7c1.1-3.7,5-5.8,8.7-4.7c9.8,2.9,19.4,5.1,28.4,6.6
			c3.8,0.6,6.4,4.3,5.7,8.1C2643.9,321.1,2640.9,323.5,2637.6,323.5z M2724.4,310.5c-2.2,0-4.4-1.1-5.8-3.1
			c-2.2-3.2-1.3-7.6,1.9-9.7c6.6-4.5,12.5-10.1,17.6-16.7c2.3-3.1,6.7-3.7,9.8-1.3c3.1,2.3,3.7,6.7,1.3,9.8
			c-6,7.8-13,14.5-20.8,19.8C2727.1,310.1,2725.7,310.5,2724.4,310.5z M2240.4,309c-1.4,0-2.8-0.4-4.1-1.3c-3.1-2.2-3.9-6.6-1.6-9.8
			c5.7-8,12.4-16,20-23.8c2.7-2.8,7.1-2.8,9.9-0.1c2.8,2.7,2.8,7.1,0.1,9.9c-7.1,7.3-13.4,14.7-18.6,22.1
			C2244.8,308,2242.6,309,2240.4,309z M2580,307c-0.8,0-1.7-0.2-2.5-0.5c-9.1-3.6-18.5-7.6-28-12.1c-3.5-1.6-5-5.8-3.3-9.3
			c1.6-3.5,5.8-5,9.3-3.3c9.2,4.3,18.3,8.3,27.1,11.7c3.6,1.4,5.4,5.5,4,9.1C2585.4,305.3,2582.8,307,2580,307z M2525.7,281.5
			c-1.1,0-2.3-0.3-3.3-0.9c-8.8-4.8-17.6-9.9-26.3-15.2c-3.3-2-4.3-6.3-2.3-9.6c2-3.3,6.3-4.3,9.6-2.3c8.5,5.2,17.1,10.2,25.7,14.8
			c3.4,1.8,4.7,6.1,2.8,9.5C2530.5,280.2,2528.1,281.5,2525.7,281.5z M2282,266c-2.1,0-4.1-0.9-5.5-2.6c-2.4-3-1.9-7.4,1.1-9.8
			c8.1-6.5,16.6-12.4,25.3-17.7c3.3-2,7.6-1,9.6,2.3c2,3.3,1,7.6-2.3,9.6c-8.2,5-16.2,10.6-23.9,16.7
			C2285.1,265.5,2283.6,266,2282,266z M2474.5,250.2c-1.4,0-2.7-0.4-3.9-1.2c-3.1-2.1-6.2-4.3-9.2-6.4c-4.9-3.5-10-6.6-15.2-9.3
			c-3.4-1.8-4.8-6-3.1-9.4c1.7-3.4,6-4.8,9.4-3.1c5.8,3,11.5,6.4,17,10.3c2.9,2.1,6,4.2,9,6.3c3.2,2.2,4,6.5,1.8,9.7
			C2478.9,249.1,2476.7,250.2,2474.5,250.2z M2333.2,235c-2.7,0-5.3-1.6-6.4-4.2c-1.5-3.6,0.1-7.7,3.7-9.2
			c9.8-4.2,19.8-7.6,29.5-9.9c3.8-0.9,7.5,1.4,8.5,5.2c0.9,3.8-1.4,7.5-5.2,8.5c-9,2.2-18.2,5.3-27.3,9.2
			C2335.1,234.8,2334.1,235,2333.2,235z M2421.1,224c-0.5,0-1-0.1-1.5-0.2c-9-2-18.5-2.8-28.1-2.5c-3.8,0.1-7.1-2.9-7.2-6.8
			c-0.1-3.9,2.9-7.1,6.8-7.2c10.7-0.3,21.4,0.6,31.5,2.8c3.8,0.8,6.2,4.6,5.4,8.3C2427.2,221.7,2424.3,224,2421.1,224z"/>
	</g>
	<g>
		<polygon class="st21" points="2233.7,280.7 2243.8,312.5 2073.8,376 		"/>
		<polygon class="st21" points="2250.6,349.4 2234,379 2081.4,373 		"/>
		<polygon class="st0" points="2073.8,376 2339.8,352.7 2262.3,302 		"/>
		<polygon class="st0" points="2233.7,280.7 2073.8,376 2185.9,245 		"/>
	</g>
	<g>
		<path class="st0" d="M2037.8,469.6c8.3-6.2,18.2-9.4,29.8-9.4c25,0,38.2,13.6,38.2,32.7c0,11-5.3,22.2-16.2,33.4
			c-13.8,14.5-23.7,21.7-29.9,21.7c-6.1,0-10.5-4.8-10.5-10.5c0-5.1,4.8-10.3,13-17.8c0.6-0.6,1.1-1.1,1.5-1.3
			c9.4-8.6,12.3-13.4,12.3-19.3c0-7.3-5-11.4-12.1-11.4c-3.3,0-7.2,0.7-11.8,2.2c-4.6,1.5-7.9,2.2-9.9,2.2c-5.1,0-11-4.4-11-11.8
			C2031.1,476.6,2033.3,472.9,2037.8,469.6z M2062.9,592.1c-11.2,0-18.7-8.5-18.7-18.7c0-8.8,7.5-17.3,18.7-17.3
			c9.7,0,17.3,8.4,17.3,17.3C2080.2,583.5,2073,592.1,2062.9,592.1z"/>
	</g>
	<g>
		<path class="st0" d="M679.2,614.7c6.5-4.9,14.4-7.4,23.5-7.4c19.8,0,30.2,10.8,30.2,25.9c0,8.7-4.2,17.6-12.8,26.4
			c-10.9,11.5-18.7,17.1-23.7,17.1c-4.8,0-8.3-3.8-8.3-8.3c0-4.1,3.8-8.1,10.3-14.1c0.4-0.4,0.9-0.9,1.2-1
			c7.4-6.8,9.7-10.6,9.7-15.3c0-5.8-3.9-9-9.6-9c-2.6,0-5.7,0.6-9.3,1.7c-3.6,1.2-6.2,1.7-7.8,1.7c-4.1,0-8.7-3.5-8.7-9.3
			C673.9,620.2,675.7,617.3,679.2,614.7z M699.1,711.6c-8.9,0-14.8-6.7-14.8-14.8c0-7,6-13.7,14.8-13.7c7.7,0,13.7,6.7,13.7,13.7
			C712.7,704.8,707.1,711.6,699.1,711.6z"/>
	</g>
	<g>
		<path class="st22" d="M3120.7,1155.9l-58.8,108.9c-2.2,4.1-7.4,5.7-11.6,3.5L2861.1,1166c-4.1-2.2-5.7-7.4-3.4-11.6l58.8-108.9
			c2.2-4.1,7.4-5.7,11.6-3.5l189.2,102.3C3121.4,1146.6,3122.9,1151.8,3120.7,1155.9z"/>
		<path class="st0" d="M3120.7,1155.9l-3.3,6l-119.7,15.3c-11.8,1.7-23.3-4.4-28.4-15.1l-54.7-113.2l1.9-3.4
			c2.2-4.1,7.4-5.7,11.6-3.4l189.2,102.2C3121.4,1146.6,3122.9,1151.8,3120.7,1155.9z"/>
	</g>
	<g>
		<path class="st0" d="M1854.5,951.6c-30,0-54.5-24.4-54.5-54.5c0-30,24.4-54.5,54.5-54.5c30,0,54.5,24.4,54.5,54.5
			C1909,927.2,1884.6,951.6,1854.5,951.6z M1854.5,857.7c-21.8,0-39.5,17.7-39.5,39.5c0,21.8,17.7,39.5,39.5,39.5
			c21.8,0,39.5-17.7,39.5-39.5C1894,875.4,1876.3,857.7,1854.5,857.7z"/>
	</g>
	<g>
		<path class="st1" d="M2934.7,657.5c-30,0-54.5-24.4-54.5-54.5c0-30,24.4-54.5,54.5-54.5c30,0,54.5,24.4,54.5,54.5
			C2989.2,633,2964.7,657.5,2934.7,657.5z M2934.7,563.6c-21.8,0-39.5,17.7-39.5,39.5s17.7,39.5,39.5,39.5
			c21.8,0,39.5-17.7,39.5-39.5S2956.5,563.6,2934.7,563.6z"/>
	</g>
	<path class="st0" d="M1976.6,810.5c0,17.2-13.9,31.1-31.1,31.1c-17.2,0-31.1-13.9-31.1-31.1c0-17.2,13.9-31.1,31.1-31.1
		C1962.7,779.4,1976.6,793.3,1976.6,810.5z"/>
	
		<ellipse transform="matrix(0.9996 -2.937349e-02 2.937349e-02 0.9996 -12.8486 86.4824)" class="st1" cx="2937.2" cy="480.6" rx="31.1" ry="31.1"/>
	<path class="st20" d="M181.5,907.7c0,24.5-19.8,44.3-44.3,44.3c-24.5,0-44.3-19.8-44.3-44.3c0-24.5,19.8-44.3,44.3-44.3
		C161.6,863.4,181.5,883.2,181.5,907.7z"/>
	<g>
		<path class="st0" d="M133.6,935.6C133.6,935.6,133.6,935.6,133.6,935.6c-2.2,0-4.2-1.1-5.4-2.9L110,905.6c-2-3-1.2-7,1.8-9
			c3-2,7-1.2,9,1.8l12.9,19.2l21.8-31.8c2-3,6.1-3.7,9-1.7c3,2,3.7,6.1,1.7,9L139,932.8C137.7,934.6,135.7,935.6,133.6,935.6z"/>
	</g>
	<path class="st20" d="M185.4,958.6c0,7-5.7,12.7-12.7,12.7c-7,0-12.7-5.7-12.7-12.7c0-7,5.7-12.7,12.7-12.7
		C179.8,945.9,185.4,951.6,185.4,958.6z"/>
	<g id="c_1_">
		<g>
			<polygon id="v-2_2_" class="st4" points="2567.4,837.3 2567.3,837.3 2540.4,837.4 2534.3,901.1 2565.7,917.7 2599.3,901.2 
				2593.8,837.4 			"/>
			<g>
				<g>
					<path class="st4" d="M2620.9,792c-6.1,46.1-40.5,79.6-76.7,74.8c-36.2-4.8-60.6-46.1-54.5-92.2c6.1-46.1,40.5-79.6,76.7-74.8
						C2602.6,704.6,2627,745.9,2620.9,792z"/>
					<path class="st8" d="M2532.5,793c-6.7,8.7-15.1,19.2-15.1,19.2s2.4,10.1,15.3,11.4c-5.2-2.8-10.2-7-7.3-14
						C2528.3,802.6,2532.5,793,2532.5,793z"/>
					<path class="st12" d="M2635.8,754.9c3.9-43.9-36.5-58.4-36.5-58.4s9.1-3.2,6.9-16.5c-6.4,3.9-14.2,5.7-21.7,5
						c-50.2-5-81.9,3.3-76.9,23c1.8,7-30.8,10.6-16.3,57.1c3.1-5.5,5.9-26.1,15.7-30.6c9.8-4.6,4,11.5,26.2,9
						c22.4-2.5,37-11.8,53.3-3c13,8,29.4,61.5,28.6,65.2C2616.8,797.3,2634.1,774.2,2635.8,754.9z"/>
					<path class="st12" d="M2489.3,799.7c0,0,4.3,25.1,9.8,31.8c1.2-10.8,24.9-4,35.1-3.1c18.6,1.6,37.5-14.9,43.8,9.6
						c23.7,1.4,32.4-50.8,32.4-50.8c14.6,52.2-11.5,90.2-69,95.5C2503.5,886.2,2482.5,837.8,2489.3,799.7z"/>
					<path d="M2559.3,790.3c3.5,0.2,6.6-2.4,6.8-6c0.2-3.5-2.4-6.6-6-6.8c-3.5-0.2-6.6,2.4-6.8,6
						C2553.1,787,2555.8,790,2559.3,790.3z"/>
					<path d="M2506.5,788.3c3.5,0.2,6.6-2.4,6.8-6c0.2-3.5-2.4-6.6-6-6.8c-3.5-0.2-6.6,2.4-6.8,6
						C2500.3,785,2502.9,788.1,2506.5,788.3z"/>
					<g>
						<path class="st12" d="M2495.8,774.9c1.1,0.1,2.2-0.4,2.8-1.4c1.8-2.6,3.9-4.2,6.2-4.5c4-0.6,7.7,2.3,7.7,2.3
							c1.4,1.1,3.4,0.9,4.5-0.5c1.1-1.4,0.9-3.4-0.5-4.4c-0.2-0.2-5.8-4.6-12.6-3.6c-4.1,0.6-7.7,3-10.6,7.2c-1,1.4-0.6,3.4,0.8,4.4
							C2494.7,774.7,2495.3,774.9,2495.8,774.9z"/>
					</g>
					<g>
						<path class="st12" d="M2573.8,780c0.7,0,1.4-0.1,2-0.6c1.4-1,1.8-3,0.8-4.4c-3.8-5.5-8.2-8.6-13.1-9.3
							c-6.3-0.9-11,2.7-11.2,2.9c-1.4,1.1-1.6,3.1-0.5,4.5c1.1,1.4,3.1,1.6,4.4,0.5c0.1-0.1,2.8-2.1,6.4-1.5c3.1,0.5,6,2.7,8.8,6.7
							C2572,779.5,2572.9,780,2573.8,780z"/>
					</g>
					<g>
						<path class="st4" d="M2611,787.3c-7.9,7.5-9.4,18.9-3.2,25.4c6.2,6.5,17.6,5.6,25.5-1.9c7.9-7.5,9.4-18.9,3.2-25.4
							C2630.4,778.9,2618.9,779.8,2611,787.3z"/>
						<g>
							<path class="st8" d="M2618.2,809.7c-0.3-0.1-0.6-0.3-0.9-0.6c-3.7-4.1-4.5-9-2.1-13.1c2.5-4.2,7.6-6.6,12.1-5.6
								c1.3,0.3,2.1,1.6,1.8,2.9c-0.3,1.3-1.6,2.1-2.9,1.8c-2.5-0.6-5.6,0.9-7,3.3c-1.3,2.3-0.8,5,1.5,7.5c0.9,1,0.8,2.5-0.1,3.4
								C2619.9,809.8,2619,810,2618.2,809.7z"/>
						</g>
					</g>
					<path class="st0" d="M2555,835.6c0.3-1.6-0.1-3.2-1.8-3c-4.2,0.5-11.2,1.3-17.8,1.3c-6.7,0.1-13.6-0.6-17.8-1
						c-1.7-0.2-2.1,1.4-1.7,3c1.4,6.8,9.1,14.3,19.3,14.2C2545.3,850.1,2554,841.7,2555,835.6z"/>
				</g>
			</g>
		</g>
		<path d="M2518.2,1670.3c-23.8,32.9-82.3,12.7-80.4,57.1h125.9c-0.1-10.2-1.9-34.4-3.9-43.9L2518.2,1670.3z"/>
		<path d="M2651.3,1670.3c-23.8,32.9-82.3,12.7-80.4,57.1h125.9c-0.1-10.2-1.9-34.4-3.9-43.9L2651.3,1670.3z"/>
		<path class="st23" d="M2477,1167.9c0,0-14.4,210.6-8.6,257.4c5.9,46.8,26.6,106.8,24.3,261.7c29,7.3,71,0,71,0
			s6.2-175.1-24.4-253.3c12.5-76,52.4-249.9,52.4-249.9L2477,1167.9z"/>
		<path class="st13" d="M2531.9,1173.7c0,0,29.2,236.4,43.4,281.2c14.3,44.8,26.7,77.7,52.5,230.2c29.8,1.5,72.8,0.6,72.8,0.6
			s-3.9-189-50.3-233c-1.6-77,7.5-277.5,7.5-277.5L2531.9,1173.7z"/>
		<g id="v_3_">
			<path id="h-5_2_" class="st6" d="M2666.3,905.4c0,0-50.6-17.7-67.5-9.6c-52.5,25.3-64.5,0-64.5,0c-16.8,1.4-67.4,9.6-67.4,9.6
				c0,56.5-3.8,113.2-2.7,156c0.7,37.2-6.4,138.6-6.4,138.6s55.8,14.6,108.6,15c52.8-0.3,106.6-14.4,106.6-14.4
				s-2.8-102.7-5.2-140.8C2668.6,1017,2666.3,961.8,2666.3,905.4z"/>
		</g>
		<g id="c_20_">
			<path id="c_21_" class="st14" d="M2376.9,989.4c20.9-49.9,82.9-81.6,90-84l14.4,64c-29.8,17.6-51.4,36.7-51.4,36.7
				c3.7,17.8,3.1,35.3,13.4,57.8c0,0-9-12.4-20-5c-10.7,7.1-30.5-7.4-30.5-7.4S2361,1027.5,2376.9,989.4z"/>
		</g>
		<g id="c_2_">
			<g id="c_14_">
				<g id="c_17_">
					<path id="c_19_" class="st24" d="M2388.6,1115.4c-0.4,0.1-0.7,0.2-1.1,0.2h-1.2c-2.2-0.2-4.1-1.7-4.8-3.9L2325.8,932
						c-0.1-0.4-0.2-0.7-0.2-1.1c0-0.2,0-0.5,0-0.7c0-0.1,0-0.3,0-0.4c0-0.1,0.1-0.2,0.1-0.4c0.3-2,1.8-3.8,3.9-4.5
						c0.3-0.1,0.7-0.2,1.1-0.2c0.4,0,0.8,0,1.2,0H2472l56.2,190.9h-139.7L2388.6,1115.4z"/>
					<path id="c_18_" class="st25" d="M2470.7,925c3-0.9,6.2,0.7,7.1,3.7l55.4,179.2l0.1,0.4c0.9,3-0.7,6.1-3.7,7.1l0,0
						c-3,0.9-6.2-0.7-7.1-3.7L2467,932C2466.1,929.1,2467.7,925.9,2470.7,925z"/>
				</g>
			</g>
			<path id="c_4_" class="st4" d="M2364.8,1038.9c-0.5-0.3-1.1-0.6-1.7-0.7c0.1-0.1,0.1-0.2,0.2-0.3c3.5-5.3,3.3-11.6-0.5-14.1
				c-0.6-0.4-1.3-0.7-2-0.8c1-3.9,0.1-7.6-2.6-9.4c-1.1-0.7-2.3-1-3.6-1c1.2-3.8,0.3-7.8-2.8-9.8c-3.8-2.5-9.3-0.9-12.2,3.6
				c-3,4.5-2.3,10.2,1.4,12.7c1,0.6,2,1,3.1,1.1c-2.5,4.9-2,10.3,1.4,12.5c0.6,0.4,1.3,0.7,2,0.8c-1,3.9-0.1,7.6,2.6,9.4
				c1,0.7,2.1,1,3.3,1c-1.2,3.3-0.5,7,2.2,8.7c3.2,2.1,7.8,0.7,10.3-3C2368.5,1045.8,2368,1041,2364.8,1038.9z"/>
			<path class="st4" d="M2537.2,1027.6l-12.8-7.4c0,0-3.5-18.1-24.1-18.6c2.4,7.6,5.7,18.6,5.7,18.6s-10.1,7.8-34.1-5.6
				c-23.4-5.3-13.4,11.8-21.2,13c-11.5,1.8,8.4,24.3,31.7,27.8c30.3,4.5,33.9-1.7,33.9-1.7l17.1,6L2537.2,1027.6z"/>
			<path id="c_3_" class="st14" d="M2668,1048.7c-42.7-3-128.1-25.8-128.1-25.8c-11.7,17.9-8.4,41.7-8.4,41.7
				c66.4,58.2,166.2,77,196.9,63c28-12.8,8.1-183.1-62.1-222.2L2668,1048.7z"/>
		</g>
		<path class="st25" d="M2442.1,952.2c2.4,6.1,8.6,9.3,13.9,7.2c5.3-2.1,7.6-8.7,5.1-14.8c-2.4-6.1-8.6-9.3-13.9-7.2
			C2442,939.6,2439.7,946.2,2442.1,952.2z"/>
		<path class="st25" d="M2424.2,950.2c1.4,3.6,5.2,5.5,8.3,4.3c3.1-1.3,4.5-5.2,3.1-8.8c-1.4-3.6-5.2-5.5-8.3-4.3
			C2424.2,942.6,2422.8,946.6,2424.2,950.2z"/>
	</g>
	
		<rect x="1909.3" y="1373.6" transform="matrix(-1 -1.224647e-16 1.224647e-16 -1 4104.1582 3101.0527)" class="st26" width="285.5" height="353.9"/>
	
		<rect x="2136" y="1289.8" transform="matrix(-1 -1.224647e-16 1.224647e-16 -1 4564.2461 3017.2344)" class="st27" width="292.2" height="437.7"/>
	<g>
		
			<rect x="2019.1" y="1429.1" transform="matrix(-1 -1.224647e-16 1.224647e-16 -1 4336.6396 3156.5391)" class="st28" width="298.4" height="298.4"/>
		
			<rect x="2057.9" y="1478" transform="matrix(-1 -1.224647e-16 1.224647e-16 -1 4254.2422 3012.6924)" class="st29" width="138.5" height="56.7"/>
		
			<rect x="2226.8" y="1537.4" transform="matrix(-0.8749 -0.4842 0.4842 -0.8749 3472.7622 4032.2046)" class="st27" width="60.5" height="60.5"/>
		<circle class="st29" cx="2217.7" cy="1598.1" r="34.7"/>
	</g>
</g>
</svg>
