<?xml version="1.0" encoding="utf-8"?>
<!-- Generator: Adobe Illustrator 23.0.1, SVG Export Plug-In . SVG Version: 6.00 Build 0)  -->
<svg version="1.1" id="Capa_1" xmlns="http://www.w3.org/2000/svg" xmlns:xlink="http://www.w3.org/1999/xlink" x="0px" y="0px"
	 viewBox="0 0 3968.5 3968.5" style="enable-background:new 0 0 3968.5 3968.5;" xml:space="preserve">
<style type="text/css">
	.st0{fill:#0066B3;}
	.st1{fill:#F58220;}
</style>
<path class="st0" d="M2600.5,937.8c-53.4-57-127.7-129.1-229.9-182.6c-98.8-51.7-197.6-78.2-330.3-88.6c-22.3-1.7-44.7-2.6-66.7-2.6
	c-274.5,0-465.2,133-576.7,244.5c-124.7,124.7-268.9,335.5-247.7,631.7c15.7,218.7,141,390.7,241.7,528.8l4.3,5.9
	c18,24.6,36.7,48.8,56.4,74.3c62.2,80.4,126.6,163.5,172.8,269.1l5.3,12.1c18.9,42.8,42.4,96.1,39.5,123.6
	c-2.1,19.6-10.5,29.2-20.3,40.3c-13.6,15.4-30.5,34.6-19.7,75.7c14.1,53.4,81.3,53.4,159.2,53.4h405.7l0,0
	c64.2,0,130.5,0,144.7-53.4c10.6-40.1-7.9-62.7-22.8-80.7c-8.4-10.2-15.7-19-17.2-30.1c-7.6-53.6,50.3-175.3,107.3-265.6
	c36-57,74.6-106.6,112-154.5c17.3-22.2,33.6-43,49-64c8.2-11.1,16.4-22.2,24.7-33.2c103.5-138.8,210.7-282.4,227.1-495.8
	C2842.2,1244.3,2692,1035.5,2600.5,937.8z M2446,1967.3c-7.5,9.8-14.8,19.6-22.2,29.3c-12.8,17.1-25.8,34.1-38.7,50.9
	c-116.2,151.9-226.1,295.6-251.8,514.1h-298.5c-32-231.1-144.1-378.4-262.5-534.2c-9.2-12.1-18.5-24.4-27.8-36.7l-15.8-20.9
	c-92.3-121.8-196.8-259.7-211.9-420.9c-23.8-254.6,94.1-428.3,197.1-529.1c131.6-128.8,290.4-194.2,472-194.2
	c20.8,0,42.1,0.9,63.3,2.6c320.4,26.2,579.4,287.6,602.4,607.9C2668.5,1674.1,2555.4,1823.1,2446,1967.3z"/>
<path class="st1" d="M2151,1761h-1.6c-40.4,0-83.5,47.4-118.1,85.6c-7.8,8.6-15.2,16.7-21.2,22.8c-8.5,8.6-15.9,17.8-21.8,25.2
	c-0.9,1.1-1.8,2.3-2.7,3.5c-5.1-5.4-11.2-12.5-14.9-16.7c-4.5-5.2-8.1-9.3-10.7-12c-4.4-4.4-10.4-10.8-17.4-18.3
	c-46-49.2-86.5-90-115.5-90c-0.1,0-0.5,0-0.7,0c-21.2,0.4-45.8,13.6-52,37.9c-10.9,42.7,37.9,84.2,67.1,109.1
	c5.3,4.5,9.8,8.3,12.2,10.7c13.6,13.6,23.8,23.6,33.1,32.7c15.2,14.8,28.4,27.8,50.7,51v163.8c0,8.1-0.5,17.8-0.9,28.1
	c-2.4,53-5.7,125.6,45.9,128c0.7,0,1.7,0,2.2,0.1c11.6,0,22-4.4,29.9-12.7c21.6-22.7,21.4-68.1,18.8-120.8c-0.4-9-0.8-16.8-0.8-22.6
	c0-14.2-1.2-31.7-2.4-50.2c-2.5-37.9-5.7-85.2,1.8-112.6c1.9-7,15.9-19.1,26.1-27.9c4-3.5,7.9-6.9,11.6-10.2
	c32.3-29.6,55.7-52.1,89.5-85.9l1.4-1.4c20.3-20.3,38.6-40.2,39.3-60.1c0.5-15.2-5.1-30.1-15.3-41.1
	C2175.2,1767.2,2163.1,1761.4,2151,1761z"/>
<path class="st0" d="M2228,2790.7c-26.1-5.5-63.7-8-122.2-8c-30.3,0-63.1,0.7-94.8,1.3c-31.4,0.7-63.9,1.3-93.4,1.3
	c-13,0-26.5-0.3-40.8-0.5c-14.6-0.3-29.8-0.5-44.7-0.5c-53,0-163.3,0-168.6,69.5c-1.5,19,4.7,35.1,18.3,47.5
	c30.3,27.8,91.3,31.6,146.9,31.6c25.8,0,53-0.9,79.3-1.9c25.9-0.9,50.4-1.8,73.2-1.8c16.4,0,35.1,0.1,54.7,0.1
	c42.7,0.1,90.1,0.3,130.4-0.1c68.6-0.6,133.4-1.2,138.5-63.5C2309.4,2808,2262.3,2798,2228,2790.7z"/>
<path class="st0" d="M2228,2988c-26.1-5.5-63.7-8-122.2-8c-30.3,0-63.1,0.7-94.8,1.3c-31.4,0.6-63.9,1.3-93.4,1.3
	c-13,0-26.5-0.3-40.8-0.5c-14.6-0.3-29.8-0.5-44.7-0.5c-53,0-163.3,0-168.6,69.5c-1.5,19,4.7,35.1,18.3,47.6
	c30.3,27.8,91.3,31.6,146.9,31.6c25.8,0,53-0.9,79.3-1.9c25.9-0.9,50.4-1.8,73.2-1.8c16.4,0,35.1,0.1,54.7,0.1
	c42.7,0.1,90.1,0.3,130.4-0.1c68.6-0.6,133.4-1.2,138.5-63.5C2309.4,3005.2,2262.3,2995.3,2228,2988z"/>
<path class="st0" d="M2137.2,3170.1l-0.5-0.1c-17.3-4.7-47.8-6.7-102-6.7c-20.2,0-41.7,0.3-62.6,0.5c-16.6,0.2-33,0.4-48.6,0.5
	c-67.1,0.3-150.6,0.7-155.8,63.5c-1.7,20.3,4.1,36.9,17.4,49.2c24.3,22.4,67.1,26.9,128.3,26.9c10.7,0,21.8-0.1,33.1-0.3
	c11.4-0.1,23.2-0.3,34.9-0.3c13.3,0,27.3,0.3,40.8,0.6c13.7,0.3,27.9,0.6,41.4,0.6c43.3,0,132.8-0.1,137.3-64.8
	C2204.3,3188.2,2167.1,3178.2,2137.2,3170.1z"/>
</svg>
