<?xml version="1.0" encoding="utf-8"?>
<!-- Generator: Adobe Illustrator 23.0.1, SVG Export Plug-In . SVG Version: 6.00 Build 0)  -->
<svg version="1.1" id="Layer_1" xmlns="http://www.w3.org/2000/svg" xmlns:xlink="http://www.w3.org/1999/xlink" x="0px" y="0px"
	 viewBox="0 0 2834.6 1417.3" style="enable-background:new 0 0 2834.6 1417.3;" xml:space="preserve">
<style type="text/css">
	.st0{fill:#78DAFF;}
	.st1{fill:#FFFFFF;}
	.st2{fill-rule:evenodd;clip-rule:evenodd;fill:#A5E4FB;}
	.st3{fill-rule:evenodd;clip-rule:evenodd;fill:#092979;}
	.st4{clip-path:url(#SVGID_2_);fill:url(#SVGID_3_);}
	.st5{clip-path:url(#SVGID_5_);fill:url(#SVGID_6_);}
	.st6{fill-rule:evenodd;clip-rule:evenodd;fill:#76C5FB;}
	.st7{fill-rule:evenodd;clip-rule:evenodd;fill:#1E2187;}
	.st8{fill-rule:evenodd;clip-rule:evenodd;fill:#D8E7FF;}
	.st9{fill-rule:evenodd;clip-rule:evenodd;fill:#1B83E1;}
	.st10{fill:#F4B1B1;}
	.st11{clip-path:url(#SVGID_8_);fill:url(#SVGID_9_);}
	.st12{fill-rule:evenodd;clip-rule:evenodd;fill:#F4B1B1;}
	.st13{clip-path:url(#SVGID_11_);fill:url(#SVGID_12_);}
	.st14{clip-path:url(#SVGID_14_);fill:url(#SVGID_15_);}
	.st15{fill:#DBDCDC;}
	.st16{clip-path:url(#SVGID_17_);fill:url(#SVGID_18_);}
	.st17{clip-path:url(#SVGID_20_);fill:url(#SVGID_21_);}
	.st18{fill-rule:evenodd;clip-rule:evenodd;fill:#EB6603;}
	.st19{fill-rule:evenodd;clip-rule:evenodd;fill:#FDA600;}
	.st20{fill-rule:evenodd;clip-rule:evenodd;fill:#FFD115;}
	.st21{fill-rule:evenodd;clip-rule:evenodd;fill:#FCA700;}
	.st22{fill-rule:evenodd;clip-rule:evenodd;fill:#EC830E;}
	.st23{fill-rule:evenodd;clip-rule:evenodd;fill:#DF641E;}
	.st24{clip-path:url(#SVGID_23_);fill:url(#SVGID_24_);}
	.st25{fill-rule:evenodd;clip-rule:evenodd;fill:#1A47B6;}
	.st26{clip-path:url(#SVGID_26_);fill:url(#SVGID_27_);}
	.st27{fill-rule:evenodd;clip-rule:evenodd;fill:#092978;}
	.st28{fill-rule:evenodd;clip-rule:evenodd;fill:#E6F1FA;}
	.st29{clip-path:url(#SVGID_29_);fill:url(#SVGID_30_);}
	.st30{clip-path:url(#SVGID_32_);fill:url(#SVGID_33_);}
	.st31{fill-rule:evenodd;clip-rule:evenodd;fill:#000446;}
	.st32{clip-path:url(#SVGID_35_);fill:url(#SVGID_36_);}
	.st33{fill:#EC6E01;}
	.st34{clip-path:url(#SVGID_38_);fill:url(#SVGID_39_);}
	.st35{fill-rule:evenodd;clip-rule:evenodd;fill:#FFA829;}
	.st36{fill-rule:evenodd;clip-rule:evenodd;fill:#FFC35E;}
	.st37{fill-rule:evenodd;clip-rule:evenodd;fill:#FFFFFF;}
	.st38{clip-path:url(#SVGID_41_);fill:url(#SVGID_42_);}
	.st39{clip-path:url(#SVGID_44_);fill:url(#SVGID_45_);}
	.st40{fill-rule:evenodd;clip-rule:evenodd;fill:#7998C3;}
</style>
<path class="st0" d="M1568.2,1392.5c0,0-82.1-37.4-70-95.3s79-51.8,70-97.5c-9.1-45.7-52.9-116.8-10.2-168.7
	c42.7-51.8,113.6-20.7,122.5-101.1c7.2-64.8,37.1-110.6,95-97.1c53.6,12.4,93.6,54,94.6,152.7c1.1,105.2,75.2,75.7,76.1,153.1
	c0.9,78-61.2,78-85.5,130.4c-11.5,24.7,18.5,111.6-70,123.4H1568.2z"/>
<path class="st1" d="M1766.5,874.9c0,0,0.2,1.8,0.5,5.2c0.9,10.3,2.9,35.6,2.9,70.7c0,102.8-16.2,290.8-118.6,440.8
	c-0.2,0.3-0.3,0.5-0.4,0.8h10.7c101.5-151.8,117.3-338.7,117.3-441.5c0-47.3-3.4-76.8-3.4-77c-0.3-2.4-2.5-4.2-4.9-3.9
	C1767.9,870.2,1766.1,872.5,1766.5,874.9"/>
<path class="st2" d="M1641.3,1392.5c0,0,12.6-71.5,61.1-100.5c48.5-29.1,98-51.8,92.6-98.6c-5.4-46.9,7.9-102.2,85.6-103.2
	c48-0.6,30-51.3,78.8-61.3c29.7-6.1,49.2,24.8,53,55.2c4.4,34.6-15.3,68.6,7.2,96.9c29.2,36.6,41,104.7-21.6,124.1
	c-62.7,19.4-6.8,78.8-92.2,87.5h-26.3L1641.3,1392.5L1641.3,1392.5z"/>
<path class="st1" d="M1956.1,1062.7c-1.7,45.5-21.8,110.3-56.4,172c-34.5,61.8-83.4,120.8-141.7,155.5c-0.8,0.5-1.5,1.3-1.8,2.1
	h15.4c56.2-36.4,102.6-93.6,135.9-153.2c35.1-62.9,55.7-128.4,57.5-176.1c0.1-2.4-1.8-4.5-4.4-4.6
	C1958.3,1058.4,1956.2,1060.3,1956.1,1062.7"/>
<path class="st3" d="M1179.5,137.3h444.2c40.7,0,74.1,33.7,74.1,75v931.5c0,41.3-33.3,75-74.1,75h-444.2c-40.7,0-74.1-33.7-74.1-75
	V212.3C1105.4,171.1,1138.7,137.3,1179.5,137.3"/>
<g>
	<g>
		<defs>
			<path id="SVGID_1_" d="M1147.2,137.3h444.2c40.7,0,74.1,33.7,74.1,75v931.5c0,41.3-33.3,75-74.1,75h-444.2
				c-40.7,0-74.1-33.7-74.1-75V212.3C1073.1,171.1,1106.5,137.3,1147.2,137.3"/>
		</defs>
		<clipPath id="SVGID_2_">
			<use xlink:href="#SVGID_1_"  style="overflow:visible;"/>
		</clipPath>
		
			<linearGradient id="SVGID_3_" gradientUnits="userSpaceOnUse" x1="1369.2609" y1="558.9637" x2="1369.1704" y2="1409.7247" gradientTransform="matrix(1 0 0 -1 0 1415.0127)">
			<stop  offset="0" style="stop-color:#022FA0"/>
			<stop  offset="0.6782" style="stop-color:#197BDD"/>
			<stop  offset="1" style="stop-color:#24A1FB"/>
		</linearGradient>
		<rect x="1073.1" y="137.3" class="st4" width="592.3" height="1081.5"/>
	</g>
</g>
<g>
	<g>
		<defs>
			<path id="SVGID_4_" d="M1143.6,190.8c-21.6,0-39.3,17.4-39.3,38.4v905.1c0,21.1,17.8,38.4,39.3,38.4h451.2
				c21.6,0,39.3-17.4,39.3-38.4V229.2c0-21.1-17.8-38.4-39.3-38.4h-30h-39.2h-312.8h-6.7L1143.6,190.8L1143.6,190.8z"/>
		</defs>
		<clipPath id="SVGID_5_">
			<use xlink:href="#SVGID_4_"  style="overflow:visible;"/>
		</clipPath>
		
			<linearGradient id="SVGID_6_" gradientUnits="userSpaceOnUse" x1="1369.186" y1="-410.1065" x2="1369.2526" y2="953.0986" gradientTransform="matrix(1 0 0 -1 0 1415.0127)">
			<stop  offset="0" style="stop-color:#54D0FF"/>
			<stop  offset="0.2603" style="stop-color:#90E0FF"/>
			<stop  offset="0.5013" style="stop-color:#C0EEFF"/>
			<stop  offset="0.7126" style="stop-color:#E2F7FF"/>
			<stop  offset="0.886" style="stop-color:#F7FDFF"/>
			<stop  offset="1" style="stop-color:#FFFFFF"/>
		</linearGradient>
		<rect x="1104.3" y="190.8" class="st5" width="529.9" height="981.8"/>
	</g>
</g>
<path class="st6" d="M1143.6,190.8c-21.6,0-39.3,17.4-39.3,38.4V260h529.9v-30.8c0-21.1-17.8-38.4-39.3-38.4h-30h-39.2h-312.8h-6.7
	L1143.6,190.8L1143.6,190.8z"/>
<path class="st7" d="M1413,157.2h-106.1c-3.5,0-6.5,2.9-6.5,6.5l0,0c0,3.5,2.9,6.5,6.5,6.5H1413c3.5,0,6.5-2.9,6.5-6.5l0,0
	C1419.4,160.1,1416.6,157.2,1413,157.2"/>
<path class="st8" d="M1183.9,217.9h141c5.2,0,9.5,4.3,9.5,9.5l0,0c0,5.2-4.3,9.5-9.5,9.5h-141c-5.2,0-9.5-4.3-9.5-9.5l0,0
	C1174.3,222.2,1178.6,217.9,1183.9,217.9"/>
<path class="st8" d="M1144.5,213.5c7.1,0,12.9,5.8,12.9,12.9c0,7.1-5.8,12.9-12.9,12.9s-12.9-5.8-12.9-12.9
	C1131.6,219.3,1137.4,213.5,1144.5,213.5"/>
<path class="st8" d="M1586.4,208.3c9.8,0,17.7,7.9,17.7,17.7c0,9.8-7.9,17.7-17.7,17.7s-17.7-7.9-17.7-17.7
	C1568.7,216.3,1576.6,208.3,1586.4,208.3"/>
<path class="st9" d="M1676.9,256.6h3.4c1.8,0,3.4,1.5,3.4,3.4v119.5c0,1.8-1.5,3.4-3.4,3.4h-3.4V256.6z"/>
<path class="st10" d="M727.4,890.5c0.8,6.7,3.4,9.8,1.8,16.4c-1.2,4.8-2.2,14.2-1.8,19.1c0.3,3.9,2.7,17.6,9.4,17.3
	c0.8,0,1.3-0.3,1.8-0.8c1.3,2.9,5.8,0.3,7.4-0.8c1.6,2.8,6.6,0.8,8.1-1c1.9,4.7,11-1.2,13.7-8.5c3.6-3.4,3.1-14.4,2.2-18.3
	c0.3-0.2-0.9-2.4-2.4-5.4c-2.8-5.1-7-12.3-7.7-13.8c-1.8-3.4-4.6-6.3-4.4-10.3L727.4,890.5z"/>
<g>
	<g>
		<defs>
			<path id="SVGID_7_" d="M857.6,626c9.3-19.3,2.2-57.2-17.5-65.7c-5.2-2.3-19.9-9.3-29.4-3.9c-33.8,19-80.7,139.2-86,183.5
				c-4.4,36.3-9.6,124.6,3.7,172.4c2.9,10.3,21.3,2.6,25.9-0.2c11.6-4,13.7-84.2,36.7-161.8C810,686.3,849.2,643.3,857.6,626"/>
		</defs>
		<clipPath id="SVGID_8_">
			<use xlink:href="#SVGID_7_"  style="overflow:visible;"/>
		</clipPath>
		
			<linearGradient id="SVGID_9_" gradientUnits="userSpaceOnUse" x1="747.2818" y1="641.5628" x2="896.1525" y2="766.7975" gradientTransform="matrix(1 0 0 -1 0 1415.0127)">
			<stop  offset="0" style="stop-color:#000446"/>
			<stop  offset="1" style="stop-color:#03096B"/>
		</linearGradient>
		<rect x="715.1" y="550.9" class="st11" width="151.7" height="371.6"/>
	</g>
</g>
<path class="st12" d="M1146.1,642.2l8.4-10.4l5.5-28.4c-0.2-3.4,2.7-24.6,7-17c3.1,5.4,6.3,19.3,6.9,19.2
	c12.2-16.5,31.4-33.5,32-33.6c10.1-1.8-5.2,20.1-7.4,23.9c-1,1.8,6.1-6,7.2,3.2c0.3,2.9-1.6,2.8-2.8,6.1c-0.8,2.2,4.8-5.9,5.6,1.6
	c0.6,4.9-0.8,4.9-1.9,7.8c-0.3,0.8,1.8-1,3.1-0.4c1.1,0.5,1.5,3.3,0.4,5c-13.5,23.2-23.7,13.6-38.8,43.3
	C1162.7,679.7,1146.5,649.4,1146.1,642.2"/>
<g>
	<g>
		<defs>
			<path id="SVGID_10_" d="M1023.5,845.6c28.3,49.4-32.5,329.9-42.9,500l1.7-0.2c0,0,1.3,14.7,12.6,20.8
				c11.2,6.1,52.8,11.2,59.5,17.6c4.8,4.6,12.8,23.2-53.1,21.4c-46.8-1.3-69.5,2.8-74.4-4.8c-3.9-5.9-2.5-34.6-1.7-47.5h-0.3
				c-6-116.3,6-223.7-16.6-360.3c-18,80.4-38.3,156.1-50.2,198.7c-7.2,25.7-49.2,139.2-45.6,164.7c0.8,5.6,27.3,8.2,38.4,17.2
				c4.7,4.4,13.3,23.2-32,22.7c-45.4-0.4-67.3,2.7-72.1-4.7c-4.5-6.9,29.4-198.5,32-225.5c11.7-119.4,15.3-251.4,31-329.1l0,0
				c8.1-324.3,180.4-240.6,164.9-44.4C972.8,814.4,1015.7,815,1023.5,845.6"/>
		</defs>
		<clipPath id="SVGID_11_">
			<use xlink:href="#SVGID_10_"  style="overflow:visible;"/>
		</clipPath>
		
			<linearGradient id="SVGID_12_" gradientUnits="userSpaceOnUse" x1="872.6946" y1="123.5309" x2="946.434" y2="891.2952" gradientTransform="matrix(1 0 0 -1 0 1415.0127)">
			<stop  offset="0" style="stop-color:#031542"/>
			<stop  offset="0.1083" style="stop-color:#051C4C"/>
			<stop  offset="0.2906" style="stop-color:#093066"/>
			<stop  offset="0.5245" style="stop-color:#115191"/>
			<stop  offset="0.7981" style="stop-color:#1B7DCB"/>
			<stop  offset="1" style="stop-color:#24A1FB"/>
		</linearGradient>
		<rect x="742" y="512.4" class="st13" width="325.1" height="895.7"/>
	</g>
</g>
<path class="st10" d="M887.1,398.3c0,0,44.8-16.7,65.4,17.4c5.2,8.6,13.3,9.9,13.1,21.5c-0.1,3.9,0,12.5,1.3,19.9
	c1.1,6.2,5.8,15.3,6.8,20.3c1.3,6.2-8,9.6-8.2,12.2c-1.6,21.6-2.9,32.1-12.8,35.8c-25.2,3.5-60.6,5-72.1-16.3s-22-52.2-21.5-72.8
	C859.6,415.8,875.4,404.3,887.1,398.3"/>
<path class="st10" d="M941.2,524.4c0,0-1.8,11.7,1.2,17.5c3,5.8-56.4,6-56.4,6s-4.8-31.5-13.9-58
	C862.9,463.2,941.2,524.4,941.2,524.4"/>
<g>
	<g>
		<defs>
			<path id="SVGID_13_" d="M895.8,518.7c11.1-3.3,21.6-6.6,30.8-16.8c3.3-3.6,8.6-34.6,10.4-35.3c7-2.4,10.3,21.6,10.3,21.6
				c1-1.3,4.7-2.3,5.5-6.3c0.3-1.8-2-11.7-0.4-14.2c1.1-1.8,8.7-8.4,10.4-10.8c13.4-20,28.9-41.6,10.7-57c-0.8-0.6-5.8-4.2-11.6-4.3
				c-8-0.1-14.3-3-17.5-4.5c-44.1-20.9-130.6,11-85,100.2C865.8,503.7,885.3,517.7,895.8,518.7"/>
		</defs>
		<clipPath id="SVGID_14_">
			<use xlink:href="#SVGID_13_"  style="overflow:visible;"/>
		</clipPath>
		
			<linearGradient id="SVGID_15_" gradientUnits="userSpaceOnUse" x1="906.8271" y1="906.8108" x2="894.7845" y2="1091.2261" gradientTransform="matrix(1 0 0 -1 0 1415.0127)">
			<stop  offset="0" style="stop-color:#031542"/>
			<stop  offset="0.1083" style="stop-color:#051C4C"/>
			<stop  offset="0.2906" style="stop-color:#093066"/>
			<stop  offset="0.5245" style="stop-color:#115191"/>
			<stop  offset="0.7981" style="stop-color:#1B7DCB"/>
			<stop  offset="1" style="stop-color:#24A1FB"/>
		</linearGradient>
		<rect x="813.8" y="370.2" class="st14" width="177.8" height="148.5"/>
	</g>
</g>
<path class="st15" d="M945.9,541.2c0,0-0.2-11.1-5.2-12.1c-5-1.1-58.5-4.5-64.7-2.1l-0.7,14.1C875.3,541,891.1,545.8,945.9,541.2"/>
<path class="st10" d="M943.7,473.6c-0.9-3.9-10.6-20-14.4-8c-3.9,12,5.8,28.2,11.2,26.8C945.8,491,946.1,483.5,943.7,473.6"/>
<g>
	<g>
		<defs>
			<path id="SVGID_16_" d="M874.7,538.2c-23,0-55.7,7-69.6,23.3c-19.9,23.3-15,307.8-8.9,344.2c19.8,54.4,188.3,33.4,239.3,4.5
				l-9.3-328.6C989.6,525.9,932.4,538.2,874.7,538.2"/>
		</defs>
		<clipPath id="SVGID_17_">
			<use xlink:href="#SVGID_16_"  style="overflow:visible;"/>
		</clipPath>
		
			<linearGradient id="SVGID_18_" gradientUnits="userSpaceOnUse" x1="910.3812" y1="608.8671" x2="910.3812" y2="857.2025" gradientTransform="matrix(1 0 0 -1 0 1415.0127)">
			<stop  offset="0" style="stop-color:#000446"/>
			<stop  offset="1" style="stop-color:#03096B"/>
		</linearGradient>
		<rect x="785.2" y="525.9" class="st16" width="250.3" height="434.2"/>
	</g>
</g>
<g>
	<g>
		<defs>
			<path id="SVGID_19_" d="M1048.7,767.7c28.3,14,115.6-75.7,122.6-99.7c7-24.1-21.1-38.3-21.1-38.3s-63.6,52.3-74.5,48.7
				c-8.1-2.7-31.2-72.9-52.8-101.5C1000.1,556.1,950.6,701.6,1048.7,767.7"/>
		</defs>
		<clipPath id="SVGID_20_">
			<use xlink:href="#SVGID_19_"  style="overflow:visible;"/>
		</clipPath>
		
			<linearGradient id="SVGID_21_" gradientUnits="userSpaceOnUse" x1="1088.1421" y1="698.112" x2="1015.5946" y2="844.8926" gradientTransform="matrix(1 0 0 -1 0 1415.0127)">
			<stop  offset="0" style="stop-color:#000446"/>
			<stop  offset="1" style="stop-color:#03096B"/>
		</linearGradient>
		<rect x="950.6" y="556.1" class="st17" width="227.7" height="225.6"/>
	</g>
</g>
<path class="st18" d="M1644.9,1354.2v-11.2v-139.5l8,13.1c26.8,19.1,62.6,40.8,102.5,55l-9.1,65.1l-3.2,17.5L1644.9,1354.2
	L1644.9,1354.2z"/>
<path class="st18" d="M1644.9,1275.9v-63.3c2.5,1.1,5,2.2,7.5,3.3l0.4,0.8c26.8,19.1,62.6,40.8,102.5,55l-6,43.5
	C1711.3,1302.9,1677.4,1292,1644.9,1275.9"/>
<rect x="1496.5" y="1362.7" class="st19" width="232" height="29.8"/>
<rect x="1699.2" y="1362.7" class="st19" width="29.4" height="29.8"/>
<rect x="1669.4" y="1362.7" class="st20" width="29.8" height="29.8"/>
<rect x="1562.4" y="1362.7" class="st21" width="106.9" height="29.8"/>
<rect x="1517.4" y="1362.7" class="st22" width="45" height="29.8"/>
<rect x="1507.5" y="1392.5" class="st23" width="209.7" height="2.9"/>
<rect x="1496.5" y="1332.9" class="st19" width="232" height="29.8"/>
<rect x="1699.2" y="1332.9" class="st19" width="29.4" height="29.8"/>
<rect x="1669.4" y="1332.9" class="st20" width="29.8" height="29.8"/>
<rect x="1562.4" y="1332.9" class="st21" width="106.9" height="29.8"/>
<rect x="1517.4" y="1332.9" class="st22" width="45" height="29.8"/>
<rect x="1507.5" y="1362.7" class="st23" width="209.7" height="2.9"/>
<rect x="1496.5" y="1300.4" class="st19" width="232" height="29.8"/>
<rect x="1699.2" y="1300.4" class="st19" width="29.4" height="29.8"/>
<rect x="1669.4" y="1300.4" class="st20" width="29.8" height="29.8"/>
<rect x="1562.4" y="1300.4" class="st21" width="106.9" height="29.8"/>
<rect x="1517.4" y="1300.4" class="st22" width="45" height="29.8"/>
<rect x="1507.5" y="1330.1" class="st23" width="209.7" height="2.9"/>
<rect x="1496.5" y="1267.7" class="st19" width="232" height="29.8"/>
<rect x="1699.2" y="1267.7" class="st19" width="29.4" height="29.8"/>
<rect x="1669.4" y="1267.7" class="st20" width="29.8" height="29.8"/>
<rect x="1562.4" y="1267.7" class="st21" width="106.9" height="29.8"/>
<rect x="1517.4" y="1267.7" class="st22" width="45" height="29.8"/>
<rect x="1507.5" y="1297.5" class="st23" width="209.7" height="2.9"/>
<rect x="1496.5" y="1235.2" class="st19" width="232" height="29.8"/>
<rect x="1699.2" y="1235.2" class="st19" width="29.4" height="29.8"/>
<rect x="1669.4" y="1235.2" class="st20" width="29.8" height="29.8"/>
<rect x="1562.4" y="1235.2" class="st21" width="106.9" height="29.8"/>
<rect x="1517.4" y="1235.2" class="st22" width="45" height="29.8"/>
<rect x="1507.5" y="1264.9" class="st23" width="209.7" height="2.9"/>
<rect x="1496.5" y="1202.6" class="st19" width="232" height="29.8"/>
<rect x="1699.2" y="1202.6" class="st19" width="29.4" height="29.8"/>
<rect x="1669.4" y="1202.6" class="st20" width="29.8" height="29.8"/>
<rect x="1562.4" y="1202.6" class="st21" width="106.9" height="29.8"/>
<rect x="1517.4" y="1202.6" class="st22" width="45" height="29.8"/>
<rect x="1507.5" y="1232.3" class="st23" width="209.7" height="2.9"/>
<rect x="1477.1" y="1169.9" class="st19" width="232" height="29.8"/>
<rect x="1679.6" y="1169.9" class="st19" width="29.4" height="29.8"/>
<rect x="1649.9" y="1169.9" class="st20" width="29.8" height="29.8"/>
<rect x="1542.9" y="1169.9" class="st21" width="106.9" height="29.8"/>
<rect x="1498" y="1169.9" class="st22" width="45" height="29.8"/>
<rect x="1488.1" y="1199.7" class="st23" width="209.7" height="2.9"/>
<rect x="1496.5" y="1137.4" class="st19" width="232" height="29.8"/>
<rect x="1699.2" y="1137.4" class="st19" width="29.4" height="29.8"/>
<rect x="1669.4" y="1137.4" class="st20" width="29.8" height="29.8"/>
<rect x="1562.4" y="1137.4" class="st21" width="106.9" height="29.8"/>
<rect x="1517.4" y="1137.4" class="st22" width="45" height="29.8"/>
<rect x="1507.5" y="1167.2" class="st23" width="209.7" height="2.9"/>
<rect x="1660.1" y="1362.7" class="st19" width="232" height="29.8"/>
<rect x="1862.7" y="1362.7" class="st19" width="29.4" height="29.8"/>
<rect x="1833" y="1362.7" class="st20" width="29.8" height="29.8"/>
<rect x="1726" y="1362.7" class="st21" width="106.9" height="29.8"/>
<rect x="1681" y="1362.7" class="st22" width="45" height="29.8"/>
<rect x="1671.1" y="1392.5" class="st23" width="209.7" height="2.9"/>
<rect x="1660.1" y="1332.9" class="st19" width="232" height="29.8"/>
<rect x="1862.7" y="1332.9" class="st19" width="29.4" height="29.8"/>
<rect x="1833" y="1332.9" class="st20" width="29.8" height="29.8"/>
<rect x="1726" y="1332.9" class="st21" width="106.9" height="29.8"/>
<rect x="1681" y="1332.9" class="st22" width="45" height="29.8"/>
<rect x="1671.1" y="1362.7" class="st23" width="209.7" height="2.9"/>
<rect x="1660.1" y="1300.4" class="st19" width="232" height="29.8"/>
<rect x="1862.7" y="1300.4" class="st19" width="29.4" height="29.8"/>
<rect x="1833" y="1300.4" class="st20" width="29.8" height="29.8"/>
<rect x="1726" y="1300.4" class="st21" width="106.9" height="29.8"/>
<rect x="1681" y="1300.4" class="st22" width="45" height="29.8"/>
<rect x="1671.1" y="1330.1" class="st23" width="209.7" height="2.9"/>
<rect x="1660.1" y="1267.7" class="st19" width="232" height="29.8"/>
<rect x="1862.7" y="1267.7" class="st19" width="29.4" height="29.8"/>
<rect x="1833" y="1267.7" class="st20" width="29.8" height="29.8"/>
<rect x="1726" y="1267.7" class="st21" width="106.9" height="29.8"/>
<rect x="1681" y="1267.7" class="st22" width="45" height="29.8"/>
<rect x="1671.1" y="1297.5" class="st23" width="209.7" height="2.9"/>
<rect x="1660.1" y="1235.2" class="st19" width="232" height="29.8"/>
<rect x="1862.7" y="1235.2" class="st19" width="29.4" height="29.8"/>
<rect x="1833" y="1235.2" class="st20" width="29.8" height="29.8"/>
<rect x="1726" y="1235.2" class="st21" width="106.9" height="29.8"/>
<rect x="1681" y="1235.2" class="st22" width="45" height="29.8"/>
<rect x="1671.1" y="1264.9" class="st23" width="209.7" height="2.9"/>
<rect x="1660.1" y="1202.6" class="st19" width="232" height="29.8"/>
<rect x="1862.7" y="1202.6" class="st19" width="29.4" height="29.8"/>
<rect x="1833" y="1202.6" class="st20" width="29.8" height="29.8"/>
<rect x="1726" y="1202.6" class="st21" width="106.9" height="29.8"/>
<rect x="1681" y="1202.6" class="st22" width="45" height="29.8"/>
<rect x="1671.1" y="1232.3" class="st23" width="209.7" height="2.9"/>
<g>
	<g>
		<defs>
			<path id="SVGID_22_" d="M1745.5,468.5c-4.7-3-30.7-18.5-35.2-21.7c-103.8-74.1-169.3-211-159-337.8l2.5-31.3l31-4.9
				c54.4-8.6,94.3-25,142.1-51.9l19.5-11l19.5,11c48,27.1,87.8,42.9,142.4,51.9l30.6,5.1l2.5,31c10.7,132.4-61.2,275.8-173,347.2
				L1745.5,468.5z"/>
		</defs>
		<clipPath id="SVGID_23_">
			<use xlink:href="#SVGID_22_"  style="overflow:visible;"/>
		</clipPath>
		
			<linearGradient id="SVGID_24_" gradientUnits="userSpaceOnUse" x1="1746.5303" y1="995.6696" x2="1746.5303" y2="1508.83" gradientTransform="matrix(1 0 0 -1 0 1415.0127)">
			<stop  offset="0" style="stop-color:#57AAFF"/>
			<stop  offset="1" style="stop-color:#F2F8FC"/>
		</linearGradient>
		<rect x="1541" y="9.9" class="st24" width="411.1" height="458.7"/>
	</g>
</g>
<path class="st25" d="M1605.7,125.1c-2.3,44.4,6.5,89.2,23,130.3c23.6,58.6,64.7,113.9,117.5,149.3c52.9-35.5,94-90.7,117.5-149.3
	c16.5-41.1,25.3-86,23-130.3c-24.2-4.4-47.9-10.4-71-19c-24.2-8.9-47.1-20.2-69.5-32.6c-23.6,13.1-47.6,24.9-73.1,34.1
	C1651.2,115.4,1628.8,121.1,1605.7,125.1"/>
<path class="st25" d="M1605.7,125.1c-2.3,44.4,6.5,89.2,23,130.3c23.6,58.6,64.7,113.9,117.5,149.3l0,0V73.4
	c-23.6,13.1-47.6,24.9-73.1,34.1C1651.2,115.4,1628.8,121.1,1605.7,125.1"/>
<g>
	<g>
		<defs>
			<path id="SVGID_25_" d="M1746.3,88.3v300.5c47.1-34.1,83.9-84.7,105.4-138.2c14.6-36.2,22.9-75.5,22.4-114.7
				c-21.4-4.4-42.4-10.1-62.8-17.6C1788.8,110,1767.4,99.7,1746.3,88.3"/>
		</defs>
		<clipPath id="SVGID_26_">
			<use xlink:href="#SVGID_25_"  style="overflow:visible;"/>
		</clipPath>
		
			<linearGradient id="SVGID_27_" gradientUnits="userSpaceOnUse" x1="1810.4537" y1="1064.5106" x2="1810.431" y2="1398.4486" gradientTransform="matrix(1 0 0 -1 0 1415.0127)">
			<stop  offset="0" style="stop-color:#1A47B6"/>
			<stop  offset="0.2676" style="stop-color:#245FC7"/>
			<stop  offset="0.831" style="stop-color:#3D9DF1"/>
			<stop  offset="1" style="stop-color:#45B1FF"/>
		</linearGradient>
		<rect x="1746.3" y="88.3" class="st26" width="128.3" height="300.5"/>
	</g>
</g>
<path class="st27" d="M1805.3,207.6v65.8c0,11.5-3.4,22.5-14.9,22.5h-93c-11.5,0-14.9-9.4-14.9-20.9v-65.8
	C1682.4,182.2,1805.3,188.9,1805.3,207.6"/>
<path class="st28" d="M1774.8,188.9v-14.2c0-0.5,0-0.9,0-1.4s0-0.9,0-1.4v-0.1l0,0c-0.8-16.3-14.5-29.3-31.4-29.3
	c-16.4,0-30.6,12.6-31.4,29.3v1.4v15.5h-18v-17.4v-0.4c1.3-26.3,23.3-46.4,49.4-46.4c26.1,0,48.1,20.2,49.3,46.4v0.1
	c0,0.8,0.1,1.5,0.1,2.3c0,0.6,0,1.2,0,1.8v13.8h-18V188.9z"/>
<g>
	<g>
		<defs>
			<path id="SVGID_28_" d="M1743.9,210.7c11.6,0,21.1,9.4,21.1,21.1c0,8.1-4.5,15.1-11.2,18.6v34.7h-19.5v-34.7
				c-6.7-3.5-11.2-10.6-11.2-18.6C1722.8,220.1,1732.3,210.7,1743.9,210.7 M1712,188.3h62.7h18v0.2c10.4,1.2,18.5,10.1,18.5,20.8
				v75.2c0,11.5-9.4,20.9-20.9,20.9h-93c-11.5,0-20.9-9.4-20.9-20.9v-75.2c0-10.3,7.6-19,17.5-20.6v-0.3L1712,188.3L1712,188.3z"/>
		</defs>
		<clipPath id="SVGID_29_">
			<use xlink:href="#SVGID_28_"  style="overflow:visible;"/>
		</clipPath>
		
			<linearGradient id="SVGID_30_" gradientUnits="userSpaceOnUse" x1="1743.8881" y1="1104.0759" x2="1743.8881" y2="1240.0731" gradientTransform="matrix(1 0 0 -1 0 1415.0127)">
			<stop  offset="0" style="stop-color:#57AAFF"/>
			<stop  offset="0.1388" style="stop-color:#74B8FE"/>
			<stop  offset="0.4284" style="stop-color:#AAD4FD"/>
			<stop  offset="0.6789" style="stop-color:#D1E7FD"/>
			<stop  offset="0.8777" style="stop-color:#E9F4FC"/>
			<stop  offset="1" style="stop-color:#F2F8FC"/>
		</linearGradient>
		<rect x="1676.4" y="188.3" class="st29" width="134.9" height="117.1"/>
	</g>
</g>
<g>
	<g>
		<defs>
			<path id="SVGID_31_" d="M1188.9,701.4h373.3c17.1,0,31.1,14,31.1,31.1c0,17.1-14,31.1-31.1,31.1h-373.3
				c-17.1,0-31.1-14-31.1-31.1C1157.9,715.4,1171.9,701.4,1188.9,701.4"/>
		</defs>
		<clipPath id="SVGID_32_">
			<use xlink:href="#SVGID_31_"  style="overflow:visible;"/>
		</clipPath>
		
			<linearGradient id="SVGID_33_" gradientUnits="userSpaceOnUse" x1="1375.6167" y1="672.3154" x2="1375.6167" y2="721.2498" gradientTransform="matrix(1 0 0 -1 0 1415.0127)">
			<stop  offset="0" style="stop-color:#022FA0"/>
			<stop  offset="0.6782" style="stop-color:#197BDD"/>
			<stop  offset="1" style="stop-color:#24A1FB"/>
		</linearGradient>
		<rect x="1157.9" y="701.4" class="st30" width="435.4" height="62.2"/>
	</g>
</g>
<path class="st31" d="M1188.3,724.4h374.6c4.4,0,8.1,3.7,8.1,8.1c0,4.4-3.7,8.1-8.1,8.1h-374.6c-4.4,0-8.1-3.7-8.1-8.1
	C1180.1,728,1183.8,724.4,1188.3,724.4"/>
<g>
	<g>
		<defs>
			<polygon id="SVGID_34_" points="1191.1,732.5 1560.1,732.5 1560.1,1076.3 1546.9,1102.5 1533.8,1076.3 1520.5,1102.5 
				1507.3,1076.3 1494.2,1102.5 1481,1076.3 1467.8,1102.5 1454.7,1076.3 1441.5,1102.5 1428.3,1076.3 1415.2,1102.5 1401.9,1076.3 
				1388.7,1102.5 1375.6,1076.3 1362.4,1102.5 1349.2,1076.3 1336.1,1102.5 1322.9,1076.3 1309.7,1102.5 1296.6,1076.3 
				1283.3,1102.5 1270.1,1076.3 1257,1102.5 1243.8,1076.3 1230.6,1102.5 1217.5,1076.3 1204.3,1102.5 1191.1,1076.3 			"/>
		</defs>
		<clipPath id="SVGID_35_">
			<use xlink:href="#SVGID_34_"  style="overflow:visible;"/>
		</clipPath>
		
			<linearGradient id="SVGID_36_" gradientUnits="userSpaceOnUse" x1="1375.6167" y1="326.0438" x2="1375.6167" y2="644.1632" gradientTransform="matrix(1 0 0 -1 0 1415.0127)">
			<stop  offset="0" style="stop-color:#A2BEE5"/>
			<stop  offset="1" style="stop-color:#DDEBFF"/>
		</linearGradient>
		<rect x="1191.1" y="732.5" class="st32" width="369" height="370"/>
	</g>
</g>
<polygon class="st33" points="991.3,176.1 990.7,313.9 759.2,312.9 759.8,175.2 878.4,74.4 "/>
<g>
	<g>
		<defs>
			
				<rect id="SVGID_37_" x="779.7" y="121.3" transform="matrix(3.888614e-03 -1 1 3.888614e-03 668.3217 1075.2582)" width="188.4" height="161.6"/>
		</defs>
		<clipPath id="SVGID_38_">
			<use xlink:href="#SVGID_37_"  style="overflow:visible;"/>
		</clipPath>
		
			<linearGradient id="SVGID_39_" gradientUnits="userSpaceOnUse" x1="873.8937" y1="1175.3656" x2="873.8937" y2="1307.0261" gradientTransform="matrix(1 0 0 -1 5.614881e-05 1415.0126)">
			<stop  offset="0" style="stop-color:#A2BEE5"/>
			<stop  offset="1" style="stop-color:#DDEBFF"/>
		</linearGradient>
		<rect x="792.7" y="107.8" class="st34" width="162.4" height="189"/>
	</g>
</g>
<polygon class="st35" points="759.8,175.2 873.4,277.2 991.3,176.1 990.7,313.9 759.2,312.9 "/>
<path class="st36" d="M759.2,312.9l105.4-73.3c7.4-5.8,16.8-4.9,23.2,0.3l102.8,73.9L759.2,312.9z"/>
<path class="st37" d="M822,159.7l103.9,0.4c2.7,0,4.9,2.2,4.9,4.9l0,0c0,2.7-2.2,4.9-4.9,4.9l-103.9-0.4c-2.7,0-4.9-2.3-4.9-4.9l0,0
	C817,161.9,819.3,159.6,822,159.7"/>
<path class="st37" d="M821.9,182l103.8,0.4c2.7,0,4.9,2.2,4.9,4.9l0,0c0,2.7-2.3,4.9-4.9,4.9l-103.8-0.4c-2.7,0-4.9-2.2-4.9-4.9l0,0
	C817,184.2,819.2,182,821.9,182"/>
<path class="st37" d="M821.8,204.4l103.8,0.4c2.7,0,4.9,2.2,4.9,4.9l0,0c0,2.7-2.2,4.9-4.9,4.9l-103.8-0.4c-2.7,0-4.9-2.3-4.9-4.9
	l0,0C816.9,206.6,819.1,204.4,821.8,204.4"/>
<path class="st37" d="M821.9,138L845,138c2.7,0,4.9,2.2,4.9,4.9l0,0c0,2.7-2.3,4.9-4.9,4.9l-23.2-0.1c-2.7,0-4.9-2.3-4.9-4.9l0,0
	C816.9,140.1,819.2,138,821.9,138"/>
<g>
	<g>
		<defs>
			<path id="SVGID_40_" d="M1380.4,371.1c7.7,3.4,23.7,11.1,26.3,11c0.8-6.3-33.3-20.4-39.3-22.7c-18-7-33.1-9.2-53.3-8
				c-4.2,0.3-27.2,4.1-20.7-4.5c3.6-4.8,16.5-6.2,22.6-6.5c33.6-1.9,68.4,11.2,94.4,30c2.4,1.8,10.7,8.1,12.4,10.3l10,12.8
				c2.4,2.8,3.9,5.4,7,8.1c18.9,15.9,48.4,72.1,50.9,97.3c1.3,13.6,4.7,24.7-0.7,39.3c-1.4,3.9-4.6,9.1-7,2.5
				c-5.8-16,5.9-45.9-35.3-110.6c-3.7-5.7-7.8-12.7-12.8-17.2c-5-4.5-10.6-9.2-17.5-13.3c-12.1-7-27.8-15.9-41.9-20.8
				C1361.9,374.1,1365.9,368.5,1380.4,371.1 M1268,386.7c-0.7-7.3,13.1-22.3,18.9-25c2.5-1.2,7.9,0.7,10.7-0.1
				c8.9-2.5,62.8-6.2,64.2,6.6c0.3,2.3-7.4,6.5-12.2,4.6c-21.6-2.7-44.9-0.7-64,6.9C1282,381.1,1274,385.8,1268,386.7z
				 M1281.6,424.7c-4.3,3.2-4.6,7.1-9.1,11.7c-1.1,1.1-1.9,1.5-2.9,2.7c-2.9,3.2-5,4.9-8.1,8.8c-9.2,11.4-14.2,23.1-18.2,27.8
				c-7,8.1-6.9-4.1-5.5-10.2c3.4-14.9,15.4-27.4,25.2-37.7c3.4-3.6,10.9-9.6,15.2-12.7C1289.1,408.3,1287.5,420.5,1281.6,424.7z
				 M1441,485.2c-9.6,2-20-25.5-28.8-37.4c-16.1-21.9-46.8-37.2-78.2-37.5c-12-0.1-38.4,5.7-38.5,5.5c-1.6-1.9-2-7.3-0.3-9.1
				c8.8-9.9,39.6-10.1,51.6-8.1c24.2,4.2,48.4,16.8,63.6,29.4c8.9,7.5,14.9,14.1,20.3,24.5C1432.9,456.8,1444,480.1,1441,485.2z
				 M1392.4,525.5c-2.3,0.5-13.6-13.3-16.2-11.9c-1.4,0.8-9.3,5.6,8.5,20c4.9,3.9,8.9,6,12.2-0.7c2.4-5,2.3-11.8,1.6-17.4
				c-3.1-28.3-22.2-41.7-18.3-48.8c4.3-7.8,13.9,4.9,16.3,8.5c2.3,3.4,4.8,8.7,6.7,13.2c4.4,10.1,7.4,17.5,7.6,30.4
				c0.2,8.7-1,17.8-5.9,25c-0.8,1.1-1.3,1.8-2.1,2.8c-4.9,5.9-10.6,6.1-18.3,3.3c-8.4-3.2-8.6-9.1-14-15.9c-1.3-1.6-3-3.9-4.1-5.7
				c-1.3-2.2-2.5-3.7-3.9-6c-6.3-11.2-6.2-24,6.5-34.9c5.9-5,16.3,14.6,19.3,23.2C1389.6,514.7,1393.1,521.3,1392.4,525.5z
				 M1337.6,322.2c20.6,2.2,42.8,9.6,59.2,18.2c16.5,8.6,44.8,32.5,57.5,46.6c5.8,3.1,7.3,0.8,14.1,8.9c8.1,9.5,13.6,27,16.3,40.7
				c2.9,14.8-3.1,10-7.8,2.2c-6.8-11.2-12.7-24-20.6-34c-0.8-1-1.3-1.3-1.9-2.3c-7-9.9-20.8-23.2-30-30.4
				c-56.5-43.9-104.6-35.1-111.8-41.9c-4.1-3.8,5.3-6.9,8.5-7.7C1326.7,321.2,1331.6,321.6,1337.6,322.2z M1260.9,599
				c-4.4,0.9-10-10.3-11.7-14.5c-4.4-10.3-8.4-31.3-9.1-42.8c-0.7-10.2,0.4-32.2,4.4-41.4c2.6-5.9,2.1-9,7.8-20.6
				c5.1-10.5,13.6-27.5,21.1-35.4c2.3-2.5,16.4-14.9,19.6-16.5c5.5-2.7-7,13.2-8.3,17c-0.8,2.4-7.9,14.6-9.8,18.3
				c-18.1,34.6-26,74.8-16.5,113.5C1259.3,581.4,1263.1,594.2,1260.9,599z M1362.1,307.4c7.3,1.4,11,3.2,16.5,6.7
				c2.2,1.4,4.7,3.1,7.3,4.3c14.9,6.5,24,9.4,38.8,19.3c9.6,6.4,18.8,13.3,25.2,20.4c1.5,1.7,8.7,10.2,6.4,14.8
				c-2.5,5-12.7-5.3-13.8-6.3c-4.7-4.3-6.7-6.3-12.1-10.2c-24.8-18.5-44.7-33.9-78.9-37.3c-2.8-0.3-8.1-0.6-10-2.2
				C1336.9,313.1,1350.6,305.1,1362.1,307.4z M1405.7,308.4c5.2,1.2,10.6,4.4,14,7.1l11.6,9.5c3,2.3,10.5,7,10.3,10.1
				c-0.2,3.4-4.4,3-7,1.8c-2.2-1-4.6-2.7-6.7-3.9c-7.8-4.9-19-10.6-28.2-14.3c-2.8-1.1-14-4.7-11.2-8.3
				C1390.8,307.7,1401.6,307.4,1405.7,308.4z M1345.7,492c-0.2-0.9,0.6-15,5.8-19.5c5.1-4.5,19.6-10.8,20.9-4.1
				c2.9,15.3-10.1,5.3-14.3,11.2c-3.6,5.4-3.1,18.2-6.5,18.4C1348.2,498.3,1345.7,492,1345.7,492z M1339.2,431.7
				c-7-3.9-22.6,5.3-26.1,8.1c-4.2,3.4-12.7,15.3-16.3,21.5c-8.5,14.7-14.2,43.8-16.1,62.5c-2.3,22.1,0.5,44.7,4.3,65.4
				c2.5,13.8,5.4,29.3,14.3,39.6c2.9,3.4,5.8,8.6,4.2,13.1c-8.7,3.1-26.1-14-28.4-17.5c-10.6-16.1,0.5-22.4-3.7-38.2
				c-12.9-48.8-5.5-109,26.8-147.9c3.8-4.5,0-9.1,3.7-11.7c16.9-12.6,41-6.9,64.3,0.5c21.3,6.8,40.3,24.2,49.6,44
				c9.8,21.1,15,49.7,10.4,76.7c-2.5,14.6-4.2,5.2-13.2,15.8c-2.7,3.2-6.6,5.6-10.4,7.1c-14.5,5.8-32.4-2.6-41.9-12.5
				c-6.5-6.8-10.1-11.5-14.3-20.4c-2.6-5.6-9.3-32.2-3.6-37.8c4.5-0.4,6.7,7.8,7.9,12.2c1.4,5.4,2.4,10.1,4.4,15.1
				c3.8,9.5,9.2,17.2,16.4,23.8c20.7,19.5,41.2,3.4,44.5-20.5c2.9-21-2.7-41.4-13.3-58.8l-4.2-5.7c-0.8-1-1.7-1.6-2.6-2.6
				c-0.8-1-1.3-1.9-2.2-2.9l-7.7-7.5c-2-1.8-3.4-2.9-6-4.6c-10.7-6.8-17.3-10.3-32-7.6c-22.1,4-32.9,28.4-34.1,49
				c-1.3,20.6,4.9,46.6,11.6,65.8c6.2,17.7,19,36.5,39.5,42c12,3.3,23.8,1.3,33.9-2.9c5.1-2.1,8.6-4.4,13.3-6.5
				c2.9-1.3,13.3-4.3,10.3-8.1c-2.5-1.1-12.3,3.5-15,4.4c-18,6.4-34,10.5-50.2-1.4c-8.2-6.1-15.3-14.3-20.1-22.7
				c-12.2-21.2-18.3-51.6-11.8-76.5c2.5-9.7-5.7-9.2,1.1-16.4c2.6-2.8,18.2-14.6,21.5-16.8c10.8-7.3,29.1-2.3,27.9,8.2
				c-0.8,6.5-11.4,0.3-16.5,0.5c-9.1,0.5-17,13.3-20.6,22.6c-10.1,26.5-0.3,68.9,21.1,87.7c22.6,19.9,34.7,7.5,54.4,0.4
				c5.1-1.8,11.6-2.3,15.6-5.3c7.4-5.4,8.5-27.2,8.3-36.1c-0.2-6.5-0.7-12.3-1.7-18.6c-0.8-5.2-3.4-13-1-17.9
				c5.7-0.8,12.7,10.4,13.8,16.7c3.9,25.4,1.2,56.7-14.8,75.9c-10.1,12.1-23,18.6-38.8,22.4c-32.9,7.9-40.9-7.9-51.5-6.8
				c-2,9.1,11.5,15.8,18.3,17.4c17.4,3.9,42.2-1.4,56.9-10.1c2.7-1.6,5.4-3.2,7.6-5.2c4.1-3.6,8.6-6.6,12.8-10
				c2.8-2.2,6.2-6,8.7-9.1c2.6-3.4,4.9-6.6,7-11.2c12.3-27.3,5.9-62.7-2.9-88.8c-2.9-8.8-5.7-16.9-9.3-25
				c-4.4-9.8-10.1-19-17.2-26.8l-6.5-7c-18.1-17.2-34.3-23.3-59.2-28.5c-21.8-4.5-41.2-8.5-62.5-1.3c-17.5,5.9-22.9,12.2-34.5,22.7
				c-16,14.5-13.1-4.1-0.3-16.9c4.9-4.9,15.4-10.8,21.5-13.5c7.6-3.4,18-6,27.1-7.3c21.9-3.3,42.4,2.5,62.8,8.5
				c22.7,6.5,35.2,10.3,50.2,23.7l8.9,9c1.5,1.7,2.4,3,3.8,4.9c0.8,1.1,1.2,1.3,1.9,2.3c0.8,1,1.1,1.8,1.8,2.9
				c4.5,6.1,9.2,14.6,12.8,22.4c11.2,24.3,20.3,53.3,21.3,81c0.4,11,0.4,22,0.3,33c-0.1,12.2-0.3,20.3-4.9,31.3
				c-3.9,9.4-8.5,16.1-13.9,22.9c-8.1,10.1-18.4,17.3-29.8,23.2l-10.9,6.5c-18.5,12.1-23,6.7-42.7,4.3c-6-0.8-11.2-1-17.3-2.3
				c-38-8.8-58.3-40.4-64.3-77.9c-1.2-7.1-4.5-38.8-3.8-46.1c0.9-8.1,6.4-9.8,9.1-5.3c3.9,6.2,4.2,19.9,5.4,28.4
				c0.7,4.9,2.3,8.9,3.2,13.8c0.9,4.9,1.6,9.8,2.4,14.8c3.4,20,9.5,33.1,23.8,46c21.5,19.3,54.4,22.6,81.5,9.5
				c12.2-6,37.7-23,43.4-36c1-2.3,1.5-5.7-0.9-6c-1.6-0.3-16.9,13.2-19.7,15.8c-7.4,7-26.7,13.3-35.7,16.5c-19,7-39.5,8.8-56.2-4.6
				c-12.6-10.1-18.3-25.9-24.7-45.4c-2.8-8.6-5.8-16.9-8.3-25.8c-2.6-9.4-4.6-18-6.5-27.8c-0.8-4.3-1.2-10.6-2.3-14.4
				c-1.4-4.6-4.8-3.1-6-11.5c-1.9-13.8,12.9-42.4,22.7-49.8c1-0.8,1.5-1.1,2.5-1.8c1-0.7,1.4-1.2,2.4-1.8l13.2-9.1
				C1338.2,433.6,1338.8,433.4,1339.2,431.7z"/>
		</defs>
		<clipPath id="SVGID_41_">
			<use xlink:href="#SVGID_40_"  style="overflow:visible;"/>
		</clipPath>
		
			<linearGradient id="SVGID_42_" gradientUnits="userSpaceOnUse" x1="1365.8448" y1="887.6002" x2="1365.8448" y2="1244.9255" gradientTransform="matrix(1 0 0 -1 0 1415.0127)">
			<stop  offset="0" style="stop-color:#A2BEE5"/>
			<stop  offset="1" style="stop-color:#DDEBFF"/>
		</linearGradient>
		<rect x="1236.2" y="305.1" class="st38" width="259.4" height="358.2"/>
	</g>
</g>
<g>
	<g>
		<defs>
			<path id="SVGID_43_" d="M1219.1,322.8h5.9h33.6c1.6,0,2.9,1.3,2.9,2.9s-1.3,2.9-2.9,2.9h-33.6v33.6c0,1.6-1.3,2.9-2.9,2.9
				c-1.6,0-2.9-1.3-2.9-2.9v-33.6V322.8z M1519.4,322.8h-5.9h-33.6c-1.6,0-2.9,1.3-2.9,2.9s1.3,2.9,2.9,2.9h33.6v33.6
				c0,1.6,1.3,2.9,2.9,2.9s2.9-1.3,2.9-2.9v-33.6V322.8z M1519.4,643.8h-5.9h-33.6c-1.6,0-2.9-1.3-2.9-2.9c0-1.6,1.3-2.9,2.9-2.9
				h33.6v-33.6c0-1.6,1.3-2.9,2.9-2.9s2.9,1.3,2.9,2.9V638V643.8z M1219.1,643.8h5.9h33.6c1.6,0,2.9-1.3,2.9-2.9
				c0-1.6-1.3-2.9-2.9-2.9h-33.6v-33.6c0-1.6-1.3-2.9-2.9-2.9c-1.6,0-2.9,1.3-2.9,2.9V638V643.8z"/>
		</defs>
		<clipPath id="SVGID_44_">
			<use xlink:href="#SVGID_43_"  style="overflow:visible;"/>
		</clipPath>
		
			<linearGradient id="SVGID_45_" gradientUnits="userSpaceOnUse" x1="1369.2419" y1="891.0831" x2="1369.2419" y2="1128.2065" gradientTransform="matrix(1 0 0 -1 0 1415.0127)">
			<stop  offset="0" style="stop-color:#A2BEE5"/>
			<stop  offset="1" style="stop-color:#DDEBFF"/>
		</linearGradient>
		<rect x="1219.1" y="322.8" class="st39" width="300.4" height="321.1"/>
	</g>
</g>
<path class="st40" d="M1244.4,761.4h87.4c4.5,0,8.2,3.7,8.2,8.2c0,4.5-3.7,8.2-8.2,8.2h-87.4c-4.5,0-8.2-3.7-8.2-8.2
	C1236.2,765.1,1239.9,761.4,1244.4,761.4"/>
<path class="st40" d="M1224.2,981.7h303.1c1.4,0,2.5,1.2,2.5,2.5l0,0c0,1.4-1.2,2.5-2.5,2.5h-303.1c-1.4,0-2.5-1.2-2.5-2.5l0,0
	C1221.7,982.9,1222.7,981.7,1224.2,981.7"/>
<path class="st2" d="M1936.2,726.3l-3.4-7.1c-1.4-3-4.6-4.7-7.9-4.1c-6.3,1.1-12.6,1.4-18.8,0.9c-3.3-0.3-6.4,1.8-7.5,4.9l-2.7,7.5
	c-1.3,3.9-5.6,5.9-9.5,4.5l-14.3-5.1c-3.9-1.3-5.9-5.6-4.5-9.5l2.7-7.5c1.1-3.1,0-6.6-2.7-8.5c-5.1-3.6-9.8-7.8-14-12.7
	c-2.2-2.5-5.7-3.2-8.7-1.8l-7.1,3.4c-3.7,1.8-8.1,0.2-9.9-3.5l-6.5-13.7c-1.8-3.7-0.2-8.1,3.5-9.9l7.1-3.4c3-1.4,4.7-4.6,4.1-7.9
	c-1.1-6.3-1.4-12.6-0.9-18.8c0.3-3.3-1.8-6.4-4.9-7.5l-7.5-2.7c-3.9-1.3-5.9-5.6-4.5-9.5l5-14.3c1.3-3.9,5.6-5.9,9.5-4.5l7.5,2.7
	c3.1,1.1,6.6,0,8.5-2.7c3.6-5.1,7.8-9.8,12.7-14c2.5-2.2,3.2-5.7,1.8-8.7l-3.4-7.1c-1.8-3.7-0.2-8.1,3.5-9.9l13.7-6.5
	c3.7-1.8,8.1-0.2,9.9,3.5l3.4,7.1c1.4,3,4.6,4.7,7.9,4.1c6.3-1.1,12.6-1.4,18.8-0.9c3.3,0.3,6.4-1.8,7.5-4.9l2.7-7.5
	c1.3-3.9,5.6-5.9,9.5-4.5l14.3,5c3.9,1.3,5.9,5.6,4.5,9.5l-2.7,7.5c-1.1,3.1,0,6.6,2.7,8.5c5.1,3.6,9.8,7.8,14,12.7
	c2.2,2.5,5.7,3.2,8.7,1.8l7.1-3.4c3.7-1.8,8.1-0.2,9.9,3.5l6.5,13.7c1.8,3.7,0.2,8.1-3.5,9.9l-7.1,3.4c-3,1.4-4.7,4.6-4.1,7.9
	c1.1,6.3,1.4,12.6,0.9,18.8c-0.3,3.3,1.8,6.4,4.9,7.5l7.5,2.7c3.9,1.3,5.9,5.6,4.5,9.5l-5.1,14.3c-1.3,3.9-5.6,5.9-9.5,4.5l-7.5-2.7
	c-3.1-1.1-6.6,0-8.5,2.7c-3.6,5.1-7.8,9.8-12.6,14c-2.5,2.2-3.2,5.7-1.8,8.7l3.4,7.1c1.8,3.7,0.2,8.1-3.5,9.9l-13.7,6.5
	C1942.4,731.6,1938,730,1936.2,726.3 M1893.3,627.6c-6.7,10.1-3.9,23.8,6.4,30.5c10.1,6.7,23.8,3.9,30.5-6.4
	c6.7-10.1,3.9-23.8-6.4-30.5C1913.6,614.6,1899.9,617.4,1893.3,627.6z M1935.3,673.3c14.2-9.8,20.7-28.1,15.9-44.6
	c-7.9-27.3-39.8-38.7-63.2-22.5c-14.2,9.8-20.7,28.1-15.9,44.6C1880,678.1,1911.9,689.5,1935.3,673.3z"/>
<path class="st40" d="M1244.4,804.4h163c4.5,0,8.2,3.7,8.2,8.2s-3.7,8.2-8.2,8.2h-163c-4.5,0-8.2-3.7-8.2-8.2
	C1236.2,808.1,1239.9,804.4,1244.4,804.4"/>
<path class="st40" d="M1481.5,804.4h29.3c4.5,0,8.2,3.7,8.2,8.2s-3.7,8.2-8.2,8.2h-29.3c-4.5,0-8.2-3.7-8.2-8.2
	S1477,804.4,1481.5,804.4"/>
<path class="st40" d="M1244.4,848.3h163c4.5,0,8.2,3.7,8.2,8.2s-3.7,8.2-8.2,8.2h-163c-4.5,0-8.2-3.7-8.2-8.2
	C1236.2,852,1239.9,848.3,1244.4,848.3"/>
<path class="st40" d="M1244.4,892.3h163c4.5,0,8.2,3.7,8.2,8.2c0,4.5-3.7,8.2-8.2,8.2h-163c-4.5,0-8.2-3.7-8.2-8.2
	C1236.2,896,1239.9,892.3,1244.4,892.3"/>
<path class="st40" d="M1244.4,936.2h58.6c4.5,0,8.2,3.7,8.2,8.2s-3.7,8.2-8.2,8.2h-58.6c-4.5,0-8.2-3.7-8.2-8.2
	C1236.2,939.9,1239.9,936.2,1244.4,936.2"/>
<path class="st40" d="M1481.5,848.3h29.3c4.5,0,8.2,3.7,8.2,8.2s-3.7,8.2-8.2,8.2h-29.3c-4.5,0-8.2-3.7-8.2-8.2
	S1477,848.3,1481.5,848.3"/>
<path class="st40" d="M1481.5,892.3h29.3c4.5,0,8.2,3.7,8.2,8.2c0,4.5-3.7,8.2-8.2,8.2h-29.3c-4.5,0-8.2-3.7-8.2-8.2
	C1473.3,896,1477,892.3,1481.5,892.3"/>
<path class="st40" d="M1481.5,936.2h29.3c4.5,0,8.2,3.7,8.2,8.2s-3.7,8.2-8.2,8.2h-29.3c-4.5,0-8.2-3.7-8.2-8.2
	C1473.3,939.9,1477,936.2,1481.5,936.2"/>
<path class="st40" d="M1244.4,1013.9h163c4.5,0,8.2,3.7,8.2,8.2c0,4.5-3.7,8.2-8.2,8.2h-163c-4.5,0-8.2-3.7-8.2-8.2
	C1236.2,1017.6,1239.9,1013.9,1244.4,1013.9"/>
<path class="st40" d="M1481.5,1013.9h29.3c4.5,0,8.2,3.7,8.2,8.2c0,4.5-3.7,8.2-8.2,8.2h-29.3c-4.5,0-8.2-3.7-8.2-8.2
	C1473.3,1017.6,1477,1013.9,1481.5,1013.9"/>
</svg>
