<?xml version="1.0" encoding="UTF-8"?>
<!DOCTYPE svg PUBLIC "-//W3C//DTD SVG 1.1//EN" "http://www.w3.org/Graphics/SVG/1.1/DTD/svg11.dtd">
<!-- Creator: CorelDRAW 2021 (64-Bit) -->
<svg xmlns="http://www.w3.org/2000/svg" xml:space="preserve" width="35px" height="35px" version="1.1" style="shape-rendering:geometricPrecision; text-rendering:geometricPrecision; image-rendering:optimizeQuality; fill-rule:evenodd; clip-rule:evenodd"
viewBox="0 0 1.93 1.93"
 xmlns:xlink="http://www.w3.org/1999/xlink"
 xmlns:xodm="http://www.corel.com/coreldraw/odm/2003">
 <defs>
  <style type="text/css">
   <![CDATA[
    .fil0 {fill:none}
    .fil1 {fill:#EF7F1A}
    .fil2 {fill:#0092E0}
   ]]>
  </style>
 </defs>
 <g id="Layer_x0020_1">
  <metadata id="CorelCorpID_0Corel-Layer"/>
  <rect class="fil0" width="1.93" height="1.93"/>
  <g id="_1995717038320">
   <rect class="fil0" x="0.03" y="0.03" width="1.87" height="1.87"/>
   <g>
    <path class="fil1" d="M1.9 1.29c0,-0.04 0,-0.14 0,-0.18 0,-0.06 -0.01,-0.1 -0.03,-0.15 -0.06,-0.18 -0.23,-0.31 -0.43,-0.25 -0.04,0.01 -0.08,0.04 -0.11,0.06 0,0.08 -0.03,0.15 -0.07,0.19 -0.02,0.02 -0.04,0.04 -0.07,0.05 -0.01,0.05 -0.01,0.09 -0.01,0.14 0.09,0.04 0.15,0.13 0.19,0.23l0 0c0.09,0.02 0.2,0.02 0.28,0.01 0.05,0 0.1,-0.01 0.15,-0.03 0.02,-0.01 0.04,-0.01 0.06,-0.03 0.02,-0.01 0.03,-0.02 0.04,-0.04z"/>
    <path class="fil1" d="M1.51 0.04c-0.08,0 -0.12,0.03 -0.18,0.07 0,0.01 -0.01,0.02 -0.01,0.02 -0.09,0.1 -0.09,0.26 0,0.37 0.02,0.02 0.01,0.01 0.04,0.03 0.12,0.1 0.3,0.08 0.41,-0.04 0.04,-0.04 0.07,-0.12 0.06,-0.21 -0.01,-0.09 -0.05,-0.14 -0.1,-0.18 -0.05,-0.04 -0.14,-0.08 -0.22,-0.06z"/>
   </g>
   <g>
    <path class="fil2" d="M1.35 1.78c0,-0.04 0,-0.16 0,-0.2 -0.01,-0.07 -0.01,-0.12 -0.03,-0.17 -0.06,-0.2 -0.25,-0.35 -0.46,-0.28 -0.09,0.03 -0.16,0.1 -0.21,0.18 -0.08,0.14 -0.07,0.27 -0.07,0.43 0,0.04 0,0.06 0.02,0.07 0.04,0.03 0.09,0.05 0.13,0.07 0.1,0.03 0.24,0.03 0.35,0.02 0.06,-0.01 0.11,-0.02 0.16,-0.04 0.02,-0.01 0.04,-0.01 0.06,-0.03 0.02,-0.01 0.04,-0.02 0.05,-0.05z"/>
    <path class="fil2" d="M0.93 0.46c-0.08,0.01 -0.13,0.04 -0.18,0.08 -0.01,0.01 -0.01,0.02 -0.02,0.03 -0.1,0.09 -0.1,0.27 0,0.38 0.03,0.03 0.01,0.01 0.04,0.04 0.13,0.1 0.33,0.08 0.43,-0.04 0.05,-0.05 0.09,-0.14 0.07,-0.23 -0.01,-0.09 -0.06,-0.15 -0.11,-0.19 -0.05,-0.05 -0.14,-0.08 -0.23,-0.07z"/>
   </g>
   <g>
    <path class="fil1" d="M0.03 1.29c0,-0.04 0,-0.14 0,-0.18 0.01,-0.06 0.01,-0.1 0.03,-0.15 0.06,-0.18 0.24,-0.31 0.43,-0.25 0.05,0.01 0.08,0.04 0.12,0.06 0,0.08 0.03,0.15 0.06,0.19 0.02,0.02 0.05,0.04 0.07,0.05 0.01,0.05 0.01,0.09 0.01,0.14 -0.08,0.04 -0.15,0.13 -0.18,0.23l-0.01 0c-0.08,0.02 -0.19,0.02 -0.28,0.01 -0.05,0 -0.1,-0.01 -0.14,-0.03 -0.03,-0.01 -0.04,-0.01 -0.07,-0.03 -0.02,-0.01 -0.03,-0.02 -0.04,-0.04z"/>
    <path class="fil1" d="M0.43 0.04c0.07,0 0.12,0.03 0.17,0.07 0,0.01 0.01,0.02 0.01,0.02 0.09,0.1 0.1,0.26 0,0.37 -0.02,0.02 0,0.01 -0.03,0.03 -0.12,0.1 -0.31,0.08 -0.41,-0.04 -0.04,-0.04 -0.08,-0.12 -0.07,-0.21 0.01,-0.09 0.06,-0.14 0.11,-0.18 0.05,-0.04 0.13,-0.08 0.22,-0.06z"/>
   </g>
  </g>
 </g>
</svg>
