<?xml version="1.0" encoding="UTF-8"?>
<!DOCTYPE svg PUBLIC "-//W3C//DTD SVG 1.1//EN" "http://www.w3.org/Graphics/SVG/1.1/DTD/svg11.dtd">
<!-- Creator: CorelDRAW 2021 (64-Bit) -->
<svg xmlns="http://www.w3.org/2000/svg" xml:space="preserve" width="35px" height="35px" version="1.1" style="shape-rendering:geometricPrecision; text-rendering:geometricPrecision; image-rendering:optimizeQuality; fill-rule:evenodd; clip-rule:evenodd"
viewBox="0 0 2.77 2.77"
 xmlns:xlink="http://www.w3.org/1999/xlink"
 xmlns:xodm="http://www.corel.com/coreldraw/odm/2003">
 <defs>
  <style type="text/css">
   <![CDATA[
    .fil0 {fill:none}
    .fil2 {fill:#EF7F1A}
    .fil1 {fill:#0092E0}
   ]]>
  </style>
 </defs>
 <g id="Layer_x0020_1">
  <metadata id="CorelCorpID_0Corel-Layer"/>
  <g id="_1995624723392">
   <rect class="fil0" width="2.77" height="2.77"/>
   <g>
    <path class="fil1" d="M1.53 0.29c0.51,0.17 0.79,0.73 0.61,1.25 -0.17,0.52 -0.73,0.79 -1.25,0.62 -0.51,-0.18 -0.79,-0.74 -0.62,-1.25 0.18,-0.52 0.74,-0.8 1.26,-0.62zm-1.48 0.91c0,0.25 0.07,0.48 0.2,0.67 0.01,0.01 0.02,0.03 0.03,0.04l0.1 0.12c0.36,0.36 0.94,0.46 1.4,0.19l0.15 -0.1c0.02,0.02 0.1,0.11 0.13,0.13 0.03,0.03 0.01,0.03 0.03,0.06 0.01,0.02 0.02,0.04 0.04,0.05 0.02,0.04 0.15,0.2 0.19,0.24 0.03,0.04 0.03,0.06 0.09,0.09 0.19,0.11 0.39,-0.12 0.28,-0.29 -0.04,-0.06 -0.13,-0.12 -0.18,-0.17 -0.03,-0.03 -0.07,-0.05 -0.1,-0.08 -0.1,-0.07 -0.12,-0.06 -0.16,-0.1l-0.13 -0.13c0.12,-0.14 0.21,-0.33 0.24,-0.57 0.03,-0.25 -0.03,-0.5 -0.13,-0.68 -0.06,-0.11 -0.09,-0.15 -0.17,-0.24 -0.2,-0.24 -0.52,-0.38 -0.87,-0.38 -0.62,0 -1.14,0.53 -1.14,1.15z"/>
    <g>
     <path class="fil2" d="M0.64 0.84c-0.05,0.01 -0.12,0.05 -0.11,0.12 0,0.06 0.04,0.12 0.07,0.15 0.07,0.08 0.16,0.14 0.29,0.18 0.26,0.08 0.55,0.05 0.77,-0.07 0.08,-0.05 0.18,-0.14 0.21,-0.25 0.01,-0.04 0,-0.07 -0.02,-0.09 -0.09,-0.08 -0.14,-0.06 -0.29,-0.06 -0.11,0 -0.89,0.01 -0.92,0.02z"/>
     <path class="fil1" d="M1.38 1.44c0,0.05 0.01,0.09 -0.02,0.12 -0.04,0.07 -0.11,0.06 -0.19,0.06 -0.16,0 -0.13,-0.13 -0.14,-0.19 -0.17,-0.03 -0.36,-0.09 -0.48,-0.21 -0.01,-0.01 -0.02,-0.02 -0.02,-0.03 -0.02,-0.02 -0.02,-0.02 -0.03,-0.03 -0.01,0.01 -0.01,0.01 -0.01,0.02l0.01 0.37c0,0.11 0.07,0.19 0.18,0.18l1.05 -0.01c0.13,0 0.19,-0.08 0.19,-0.21l-0.01 -0.29c0,-0.11 0.01,-0.08 -0.12,0.04 -0.03,0.03 -0.07,0.05 -0.12,0.07 -0.05,0.04 -0.15,0.07 -0.21,0.08l-0.06 0.02c-0.03,0 -0.01,-0.01 -0.02,0.01z"/>
     <path class="fil2" d="M0.88 0.76l0.14 0c0.02,-0.11 0.11,-0.09 0.18,-0.09 0.17,0 0.13,0.02 0.18,0.08l0.13 0c0,-0.07 -0.04,-0.13 -0.09,-0.17 -0.07,-0.06 -0.13,-0.05 -0.23,-0.05 -0.11,0 -0.14,0 -0.22,0.05 -0.04,0.03 -0.08,0.1 -0.09,0.18z"/>
     <path class="fil2" d="M1.12 1.52c0.02,0.01 0.13,0.01 0.16,0 0.02,-0.02 0.01,-0.04 0.01,-0.08l-0.17 0c0,0.03 0,0.06 0,0.08z"/>
    </g>
   </g>
  </g>
 </g>
</svg>
