<?xml version="1.0" encoding="UTF-8"?>
<!DOCTYPE svg PUBLIC "-//W3C//DTD SVG 1.1//EN" "http://www.w3.org/Graphics/SVG/1.1/DTD/svg11.dtd">
<!-- Creator: CorelDRAW 2021 (64-Bit) -->
<svg xmlns="http://www.w3.org/2000/svg" xml:space="preserve" width="35px" height="35px" version="1.1" style="shape-rendering:geometricPrecision; text-rendering:geometricPrecision; image-rendering:optimizeQuality; fill-rule:evenodd; clip-rule:evenodd"
viewBox="0 0 4.05 4.05"
 xmlns:xlink="http://www.w3.org/1999/xlink"
 xmlns:xodm="http://www.corel.com/coreldraw/odm/2003">
 <defs>
  <style type="text/css">
   <![CDATA[
    .fil0 {fill:none}
    .fil2 {fill:#EF7F1A}
    .fil1 {fill:#0092E0}
   ]]>
  </style>
 </defs>
 <g id="Layer_x0020_1">
  <metadata id="CorelCorpID_0Corel-Layer"/>
  <g id="_1995629152816">
   <rect class="fil0" width="4.05" height="4.05"/>
   <g>
    <path class="fil1" d="M2.49 0.19c-0.07,0.02 -0.14,0.1 -0.08,0.19 0.03,0.07 0.1,0.07 0.2,0.11 0.42,0.16 0.77,0.47 0.95,0.92 0.2,0.48 0.13,1.06 -0.16,1.49 -0.05,0.06 -0.09,0.11 -0.14,0.17 -0.04,0.04 -0.12,0.12 -0.16,0.15 -0.14,0.11 -0.21,0.16 -0.39,0.24 -0.63,0.29 -1.4,0.12 -1.85,-0.36 -0.1,-0.11 -0.18,-0.22 -0.26,-0.37 -0.04,-0.07 -0.07,-0.13 -0.1,-0.21 -0.02,-0.07 -0.04,-0.16 -0.14,-0.17 -0.1,0 -0.17,0.06 -0.16,0.16 0,0.05 0.06,0.18 0.08,0.23 0.03,0.07 0.07,0.14 0.11,0.2 0.04,0.07 0.08,0.14 0.12,0.19 0.09,0.11 0.2,0.23 0.31,0.32 0.69,0.55 1.62,0.58 2.35,0.08 0.37,-0.26 0.65,-0.67 0.75,-1.12 0.08,-0.36 0.05,-0.77 -0.08,-1.08 -0.06,-0.16 -0.12,-0.28 -0.21,-0.41 -0.19,-0.26 -0.4,-0.43 -0.67,-0.58 -0.08,-0.05 -0.36,-0.18 -0.47,-0.15z"/>
    <path class="fil2" d="M1.44 0.98c-0.05,0.02 -0.12,0.09 -0.15,0.13 -0.05,0.04 -0.09,0.09 -0.14,0.13 -0.04,0.05 -0.1,0.08 -0.1,0.17 -0.03,0.33 0.26,0.74 0.43,0.93 0.23,0.25 0.61,0.58 0.99,0.65 0.25,0.04 0.27,-0.04 0.38,-0.15 0.05,-0.05 0.09,-0.09 0.14,-0.13 0.03,-0.04 0.11,-0.1 0.06,-0.18 -0.02,-0.02 -0.12,-0.08 -0.17,-0.11 -0.05,-0.03 -0.11,-0.06 -0.17,-0.1 -0.08,-0.04 -0.18,-0.13 -0.28,-0.02 -0.02,0.02 -0.04,0.04 -0.07,0.07 -0.05,0.05 -0.06,0.06 -0.18,0 -0.18,-0.1 -0.45,-0.36 -0.53,-0.56 -0.03,-0.09 -0.02,-0.08 0.07,-0.17 0.12,-0.12 0.05,-0.16 -0.05,-0.36 -0.03,-0.06 -0.06,-0.12 -0.09,-0.18 -0.03,-0.05 -0.06,-0.14 -0.14,-0.12z"/>
    <path class="fil1" d="M1.62 0.17c-0.48,0.09 -0.87,0.36 -1.1,0.62 -0.13,0.15 -0.23,0.31 -0.32,0.53 -0.05,0.1 -0.08,0.21 -0.11,0.32 -0.01,0.08 -0.02,0.12 0.02,0.17 0.06,0.09 0.22,0.09 0.27,-0.03l0.04 -0.18c0.07,-0.21 0.17,-0.38 0.3,-0.56 0.2,-0.26 0.57,-0.5 0.92,-0.57 0.08,-0.02 0.11,-0.03 0.14,-0.08 0.06,-0.12 -0.03,-0.25 -0.16,-0.22z"/>
   </g>
  </g>
 </g>
</svg>
