<?xml version="1.0" encoding="UTF-8"?>
<!DOCTYPE svg PUBLIC "-//W3C//DTD SVG 1.1//EN" "http://www.w3.org/Graphics/SVG/1.1/DTD/svg11.dtd">
<!-- Creator: CorelDRAW 2021 (64-Bit) -->
<svg xmlns="http://www.w3.org/2000/svg" xml:space="preserve" width="35px" height="35px" version="1.1" style="shape-rendering:geometricPrecision; text-rendering:geometricPrecision; image-rendering:optimizeQuality; fill-rule:evenodd; clip-rule:evenodd"
viewBox="0 0 1.88 1.88"
 xmlns:xlink="http://www.w3.org/1999/xlink"
 xmlns:xodm="http://www.corel.com/coreldraw/odm/2003">
 <defs>
  <style type="text/css">
   <![CDATA[
    .fil0 {fill:none}
    .fil2 {fill:#EF7F1A}
    .fil1 {fill:#0092E0}
   ]]>
  </style>
 </defs>
 <g id="Layer_x0020_1">
  <metadata id="CorelCorpID_0Corel-Layer"/>
  <g id="_2001375302704">
   <rect class="fil0" width="1.88" height="1.88"/>
   <g>
    <path class="fil1" d="M0.24 1.09l0 0.73c0.1,0 0.42,0.01 0.51,0 0,-0.15 0,-0.31 0,-0.46 0,-0.09 -0.01,-0.14 0.03,-0.2 0.07,-0.1 0.23,-0.12 0.31,0 0.05,0.06 0.04,0.1 0.04,0.19 0,0.16 0,0.32 0,0.47 0.1,0 0.43,0.01 0.51,0l0 -0.73c0,-0.04 -0.09,-0.12 -0.12,-0.15l-0.23 -0.23c-0.06,-0.07 -0.2,-0.22 -0.26,-0.28 -0.03,-0.03 -0.07,-0.09 -0.1,-0.1 -0.02,0.04 -0.05,0.07 -0.08,0.1l-0.45 0.46c-0.02,0.03 -0.06,0.06 -0.08,0.09 -0.04,0.05 -0.08,0.07 -0.08,0.11zm0.69 -0.82c0.03,0.01 0.04,0.03 0.05,0.04l0.48 0.51c0.01,0.01 0.03,0.02 0.04,0.04l0.13 0.14c0.09,0.09 0.11,0.14 0.2,0.03 0.05,-0.07 -0.01,-0.09 -0.11,-0.2 -0.03,-0.03 -0.06,-0.06 -0.09,-0.09 -0.05,-0.06 -0.05,-0.03 -0.05,-0.13 0,-0.12 0,-0.24 0,-0.36l-0.23 0 0 0.19c-0.04,-0.04 -0.16,-0.15 -0.21,-0.21 -0.02,-0.03 -0.04,-0.05 -0.06,-0.07 -0.03,-0.03 -0.05,-0.05 -0.07,-0.07 -0.09,-0.1 -0.16,0.02 -0.24,0.11 -0.09,0.09 -0.19,0.18 -0.28,0.28 -0.04,0.05 -0.09,0.1 -0.14,0.15l-0.3 0.32c-0.02,0.01 -0.03,0.02 -0.02,0.05 0.02,0.03 0.05,0.06 0.07,0.08 0.04,0.03 0.05,0.01 0.08,-0.02l0.34 -0.35c0.07,-0.07 0.38,-0.39 0.41,-0.44z"/>
    <path class="fil2" d="M0.93 0.27c0.03,0.01 0.04,0.03 0.05,0.04 0.22,0.23 0.44,0.46 0.65,0.69 0.09,0.09 0.11,0.14 0.2,0.03 0.05,-0.07 -0.01,-0.09 -0.11,-0.2 -0.03,-0.03 -0.06,-0.06 -0.09,-0.09 -0.05,-0.06 -0.05,-0.03 -0.05,-0.13 0,-0.12 0,-0.24 0,-0.36l-0.23 0 0 0.19c-0.04,-0.04 -0.16,-0.15 -0.21,-0.21 -0.02,-0.03 -0.04,-0.05 -0.06,-0.07 -0.03,-0.03 -0.05,-0.05 -0.07,-0.07 -0.09,-0.1 -0.16,0.02 -0.24,0.11 -0.09,0.09 -0.19,0.18 -0.28,0.28 -0.04,0.05 -0.09,0.1 -0.14,0.15l-0.3 0.32c-0.02,0.01 -0.03,0.02 -0.02,0.05 0.02,0.03 0.05,0.06 0.07,0.08 0.04,0.03 0.05,0.01 0.08,-0.02l0.34 -0.35c0.07,-0.07 0.38,-0.39 0.41,-0.44z"/>
   </g>
  </g>
 </g>
</svg>
