<?xml version="1.0" encoding="UTF-8"?>
<!DOCTYPE svg PUBLIC "-//W3C//DTD SVG 1.1//EN" "http://www.w3.org/Graphics/SVG/1.1/DTD/svg11.dtd">
<!-- Creator: CorelDRAW 2021 (64-Bit) -->
<svg xmlns="http://www.w3.org/2000/svg" xml:space="preserve" width="35px" height="35px" version="1.1" style="shape-rendering:geometricPrecision; text-rendering:geometricPrecision; image-rendering:optimizeQuality; fill-rule:evenodd; clip-rule:evenodd"
viewBox="0 0 1.59 1.59"
 xmlns:xlink="http://www.w3.org/1999/xlink"
 xmlns:xodm="http://www.corel.com/coreldraw/odm/2003">
 <defs>
  <style type="text/css">
   <![CDATA[
    .fil0 {fill:none}
    .fil8 {fill:white}
    .fil3 {fill:url(#id1);fill-rule:nonzero}
    .fil2 {fill:url(#id2);fill-rule:nonzero}
    .fil1 {fill:url(#id3);fill-rule:nonzero}
    .fil6 {fill:url(#id4);fill-rule:nonzero}
    .fil4 {fill:url(#id5);fill-rule:nonzero}
    .fil5 {fill:url(#id6);fill-rule:nonzero}
    .fil7 {fill:url(#id7);fill-rule:nonzero;fill-opacity:0.368627}
   ]]>
  </style>
      <clipPath id="id0">
       <rect width="1.59" height="1.59"/>
      </clipPath>
  <linearGradient id="id1" gradientUnits="userSpaceOnUse" x1="0.77" y1="0.1" x2="0.77" y2="1.53">
   <stop offset="0" style="stop-opacity:1; stop-color:#AAB1B8"/>
   <stop offset="0.368627" style="stop-opacity:1; stop-color:#D4D8DB"/>
   <stop offset="1" style="stop-opacity:1; stop-color:white"/>
  </linearGradient>
  <linearGradient id="id2" gradientUnits="userSpaceOnUse" x1="0.77" y1="0.04" x2="0.77" y2="1.61">
   <stop offset="0" style="stop-opacity:1; stop-color:white"/>
   <stop offset="0.619608" style="stop-opacity:1; stop-color:#D5D8DC"/>
   <stop offset="1" style="stop-opacity:1; stop-color:#AAB1B8"/>
  </linearGradient>
  <linearGradient id="id3" gradientUnits="userSpaceOnUse" x1="0.05" y1="0.77" x2="1.5" y2="0.77">
   <stop offset="0" style="stop-opacity:1; stop-color:white"/>
   <stop offset="0.101961" style="stop-opacity:1; stop-color:white"/>
   <stop offset="0.45098" style="stop-opacity:1; stop-color:#AAB1B8"/>
   <stop offset="0.909804" style="stop-opacity:1; stop-color:#FBFBFB"/>
   <stop offset="0.921569" style="stop-opacity:1; stop-color:#FBFBFB"/>
   <stop offset="1" style="stop-opacity:1; stop-color:#BFC3CA"/>
  </linearGradient>
  <linearGradient id="id4" gradientUnits="userSpaceOnUse" x1="0.19" y1="0.77" x2="1.35" y2="0.77">
   <stop offset="0" style="stop-opacity:1; stop-color:#31C3FF"/>
   <stop offset="0.4" style="stop-opacity:1; stop-color:#3286D2"/>
   <stop offset="1" style="stop-opacity:1; stop-color:#3449A5"/>
  </linearGradient>
  <linearGradient id="id5" gradientUnits="userSpaceOnUse" x1="0.13" y1="0.77" x2="1.41" y2="0.77">
   <stop offset="0" style="stop-opacity:1; stop-color:#31C3FF"/>
   <stop offset="0.729412" style="stop-opacity:1; stop-color:#3286D2"/>
   <stop offset="1" style="stop-opacity:1; stop-color:#3449A5"/>
  </linearGradient>
  <radialGradient id="id6" gradientUnits="userSpaceOnUse" gradientTransform="matrix(1.19747 -0 -0 1.19748 0 0)" cx="0.76" cy="0.76" r="14.9" fx="0.76" fy="0.76">
   <stop offset="0" style="stop-opacity:1; stop-color:#31C3FF"/>
   <stop offset="0.741176" style="stop-opacity:1; stop-color:#338FD9"/>
   <stop offset="1" style="stop-opacity:1; stop-color:#345BB3"/>
  </radialGradient>
  <radialGradient id="id7" gradientUnits="userSpaceOnUse" gradientTransform="matrix(1.5649 -0 -0 1.56495 0 -1)" xlink:href="#id6" cx="0.82" cy="0.91" r="0.55" fx="0.82" fy="0.91">
  </radialGradient>
 </defs>
 <g id="Layer_x0020_1">
  <metadata id="CorelCorpID_0Corel-Layer"/>
  <g id="_2242327051968">
   <rect class="fil0" width="1.59" height="1.59"/>
   <g>
    <g>
     <g style="clip-path:url(#id0)">
      <image x="0" y="0" width="1.59" height="1.59" xlink:href="Login_Images\Login_ImgID1.png"/>
     </g>
     <g>
      <g>
       <g>
        <path class="fil1" d="M0.77 0.05c-0.4,0 -0.72,0.32 -0.72,0.72 0,0.4 0.32,0.73 0.72,0.73 0.4,0 0.73,-0.33 0.73,-0.73 0,-0.4 -0.33,-0.72 -0.73,-0.72zm0 1.38l0 0c-0.36,0 -0.66,-0.29 -0.66,-0.66 0,-0.36 0.3,-0.66 0.66,-0.66 0.37,0 0.66,0.3 0.66,0.66 0,0.37 -0.29,0.66 -0.66,0.66z"/>
        <path class="fil2" d="M0.77 0.11c-0.36,0 -0.66,0.3 -0.66,0.66 0,0.37 0.3,0.66 0.66,0.66 0.37,0 0.66,-0.29 0.66,-0.66 0,-0.36 -0.29,-0.66 -0.66,-0.66z"/>
        <path class="fil3" d="M0.77 0.11c-0.36,0 -0.66,0.3 -0.66,0.66 0,0.37 0.3,0.66 0.66,0.66 0.37,0 0.66,-0.29 0.66,-0.66 0,-0.36 -0.29,-0.66 -0.66,-0.66z"/>
       </g>
       <g>
        <g>
         <g>
          <g>
           <g>
            <g>
             <path class="fil4" d="M1.41 0.77c0,-0.35 -0.29,-0.64 -0.64,-0.64 -0.35,0 -0.64,0.29 -0.64,0.64 0,0.35 0.29,0.64 0.64,0.64 0.35,0 0.64,-0.29 0.64,-0.64z"/>
             <path class="fil5" d="M1.35 0.75c0.01,0.34 -0.26,0.61 -0.6,0.6 -0.3,-0.01 -0.55,-0.26 -0.56,-0.56 -0.01,-0.34 0.26,-0.61 0.6,-0.6 0.3,0.01 0.55,0.26 0.56,0.56z"/>
            </g>
           </g>
          </g>
         </g>
         <g>
          <path class="fil6" d="M0.77 1.35c-0.32,0 -0.58,-0.26 -0.58,-0.58 0,-0.32 0.26,-0.58 0.58,-0.58 0.32,0 0.58,0.26 0.58,0.58 0,0.32 -0.26,0.58 -0.58,0.58zm0 -1.16l0 0c-0.32,0 -0.58,0.26 -0.58,0.58 0,0.32 0.26,0.58 0.58,0.58 0.32,0 0.58,-0.26 0.58,-0.58 0,-0.32 -0.26,-0.58 -0.58,-0.58z"/>
         </g>
        </g>
        <path class="fil7" d="M0.54 1.06c-0.1,0 -0.2,-0.02 -0.3,-0.05 0.09,0.2 0.29,0.33 0.51,0.34 0.37,0.01 0.66,-0.31 0.59,-0.68 -0.18,0.24 -0.47,0.39 -0.8,0.39z"/>
       </g>
      </g>
     </g>
    </g>
    <g>
     <path class="fil8" d="M0.8 0.85c0.06,0 0.13,0 0.19,0 0.06,0 0.13,0.01 0.13,-0.06 0,-0.07 -0.08,-0.05 -0.13,-0.05 -0.06,0 -0.12,0 -0.19,0 0.02,-0.03 0.1,-0.09 0.11,-0.11 0.02,-0.06 -0.05,-0.11 -0.1,-0.06l-0.16 0.16c-0.08,0.08 -0.03,0.1 0.06,0.18 0.03,0.04 0.06,0.08 0.1,0.11 0.05,0.04 0.12,0 0.09,-0.06 -0.01,-0.03 -0.07,-0.09 -0.1,-0.11z"/>
     <path class="fil8" d="M0.64 0.55c0.04,-0.08 -0.1,-0.06 -0.13,-0.03 -0.05,0.03 -0.04,0.1 -0.04,0.18 0,0.07 0,0.15 0,0.22 0,0.05 -0.01,0.14 0.06,0.17 0.02,0 0.09,0.01 0.1,0 0.01,-0.01 0.02,-0.02 0.02,-0.04 0,-0.02 -0.01,-0.02 -0.03,-0.02 -0.1,0 -0.09,0 -0.09,-0.14 0,-0.07 0,-0.15 0,-0.22 0,-0.03 -0.01,-0.08 0.01,-0.1 0.02,-0.02 0.07,-0.01 0.1,-0.02z"/>
    </g>
   </g>
  </g>
 </g>
</svg>
