<?xml version="1.0" encoding="UTF-8"?>
<!DOCTYPE svg PUBLIC "-//W3C//DTD SVG 1.1//EN" "http://www.w3.org/Graphics/SVG/1.1/DTD/svg11.dtd">
<!-- Creator: CorelDRAW 2021 (64-Bit) -->
<svg xmlns="http://www.w3.org/2000/svg" xml:space="preserve" width="35px" height="35px" version="1.1" style="shape-rendering:geometricPrecision; text-rendering:geometricPrecision; image-rendering:optimizeQuality; fill-rule:evenodd; clip-rule:evenodd"
viewBox="0 0 2.1 2.1"
 xmlns:xlink="http://www.w3.org/1999/xlink"
 xmlns:xodm="http://www.corel.com/coreldraw/odm/2003">
 <defs>
  <style type="text/css">
   <![CDATA[
    .fil0 {fill:none}
    .fil1 {fill:#EF7F1A}
    .fil2 {fill:#0092E0}
   ]]>
  </style>
 </defs>
 <g id="Layer_x0020_1">
  <metadata id="CorelCorpID_0Corel-Layer"/>
  <g id="_1995624571424">
   <rect class="fil0" width="2.1" height="2.1"/>
   <g>
    <path class="fil1" d="M0.82 0.38c0.02,-0.02 0.13,-0.09 0.16,-0.11 0.01,-0.01 0.03,-0.02 0.05,-0.03l0.2 -0.14c0.02,-0.01 0.03,0.01 0.06,0.02l0.1 0.06c0.02,0.01 0.04,0.02 0.05,0.03 0.04,0.02 0.08,0.04 0.11,0.06 0.02,0.01 0.1,0.05 0.11,0.07 -0.02,0 -0.04,0.02 -0.05,0.03l-0.1 0.06c-0.02,0.01 -0.04,0.02 -0.05,0.03 -0.03,0.02 -0.19,0.13 -0.2,0.13 -0.01,0 -0.38,-0.19 -0.44,-0.21zm0.48 0.28c0.07,-0.04 0.13,-0.08 0.2,-0.12 0.01,-0.01 0.02,-0.01 0.03,-0.02 0,0 0.01,-0.01 0.02,-0.02 0.02,-0.01 0.14,-0.09 0.15,-0.09l0 0.46c0,0.01 0,0.03 0.01,0.04 0.01,0.01 0.02,0.02 0.04,0.01 0.04,0 0.03,-0.05 0.03,-0.07l0 -0.45c0,-0.09 0.01,-0.09 -0.04,-0.12 -0.03,-0.01 -0.05,-0.03 -0.08,-0.04l-0.36 -0.21c-0.03,-0.02 -0.05,-0.04 -0.08,-0.03l-0.27 0.19c-0.05,0.03 -0.09,0.06 -0.14,0.09l-0.03 0.02c-0.1,0.06 -0.08,0.06 -0.09,0.19 0,0.03 0,0.06 0.02,0.07 0.02,0.02 0.05,0 0.06,-0.02 0.01,-0.01 0,-0.07 0,-0.09 0.03,0 0.43,0.21 0.45,0.21l0 0.13c0,0.08 0.07,0.07 0.08,0.03 0.01,-0.02 0,-0.13 0,-0.16zm-1.19 0.59l0.49 -0.02c0.01,0.01 0.04,0.08 0.05,0.1l0.14 0.28 -0.5 -0.02 -0.05 -0.08c-0.01,-0.03 -0.02,-0.06 -0.04,-0.09l-0.09 -0.17zm0.24 -0.54l0.49 0.03 -0.12 0.2c-0.02,0.04 -0.04,0.07 -0.06,0.11 -0.01,0.01 -0.02,0.03 -0.03,0.05 -0.01,0.01 -0.02,0.03 -0.03,0.05l-0.49 0.01 0.24 -0.45zm0.56 0.08c0.01,0.02 0.02,0.03 0.03,0.05l0.08 0.17c0.04,0.07 0.09,0.02 0.09,-0.01 -0.01,-0.02 -0.17,-0.33 -0.17,-0.33 -0.02,-0.02 -0.26,-0.02 -0.31,-0.03 -0.04,0 -0.3,-0.01 -0.32,-0.01 -0.02,0.01 -0.03,0.04 -0.04,0.05l-0.08 0.16c-0.04,0.07 -0.08,0.15 -0.12,0.22 -0.08,0.16 -0.09,0.13 -0.04,0.23l0.17 0.33c0.04,0.06 0.03,0.06 0.11,0.06 0.1,0.01 0.21,0.01 0.31,0.01 0.06,0.01 0.11,0.01 0.17,0.01 0.04,0 0.11,0.02 0.12,-0.04 0,-0.02 -0.04,-0.1 -0.05,-0.12 -0.06,-0.09 -0.12,-0.23 -0.17,-0.33 -0.02,-0.03 -0.01,-0.03 0,-0.05 0.05,-0.09 0.13,-0.21 0.17,-0.29l0.05 -0.08z"/>
    <g>
     <path class="fil2" d="M1.27 1.93c0,-0.01 0.08,-0.1 0.1,-0.13l0.16 -0.2c0.05,-0.06 0.02,-0.06 0.09,-0.04 0.04,0 0.08,0.01 0.12,0.02 0.03,0.01 0.23,0.05 0.24,0.06 -0.01,0.01 -0.15,0.16 -0.16,0.18l-0.05 0.05c-0.01,0.02 -0.02,0.03 -0.04,0.05l-0.04 0.05c-0.02,0.02 -0.02,0.02 -0.04,0.04 -0.02,0 -0.37,-0.07 -0.38,-0.08zm0.44 -1.02c0.01,0.01 0.02,0.02 0.04,0.01l-0.04 -0.01zm-0.38 0.14l0.02 0.03c0,0.01 0,0.02 0.01,0.03 0.04,0.11 0.09,0.24 0.13,0.35 0.01,0.03 0.02,0.03 0,0.05l-0.29 0.36c0,0 -0.01,-0.01 -0.01,-0.02 -0.05,-0.14 -0.12,-0.29 -0.18,-0.44l0.32 -0.36zm0.25 0.41l-0.16 -0.43 0.42 0.09 0.08 0.21c0.01,0.04 0.07,0.19 0.07,0.22l-0.41 -0.09zm-0.66 -0.04c0.01,0.03 0.03,0.07 0.05,0.1 0.05,0.14 0.11,0.28 0.17,0.42 0.02,0.06 0.01,0.06 0.08,0.07l0.36 0.08c0.04,0.01 0.09,0.03 0.12,0l0.13 -0.16c0.05,-0.05 0.09,-0.1 0.14,-0.15 0.02,-0.03 0.13,-0.14 0.13,-0.17 0.01,-0.02 -0.06,-0.19 -0.07,-0.22 -0.04,-0.1 -0.08,-0.22 -0.12,-0.32 -0.01,-0.03 -0.06,-0.04 -0.11,-0.05l-0.36 -0.08c-0.13,-0.03 -0.09,-0.03 -0.19,0.07l-0.31 0.35c-0.01,0.01 -0.03,0.03 -0.02,0.06z"/>
    </g>
   </g>
  </g>
 </g>
</svg>
