<?xml version="1.0" encoding="UTF-8"?>
<!DOCTYPE svg PUBLIC "-//W3C//DTD SVG 1.1//EN" "http://www.w3.org/Graphics/SVG/1.1/DTD/svg11.dtd">
<!-- Creator: CorelDRAW 2021 (64-Bit) -->
<svg xmlns="http://www.w3.org/2000/svg" xml:space="preserve" width="35px" height="35px" version="1.1" style="shape-rendering:geometricPrecision; text-rendering:geometricPrecision; image-rendering:optimizeQuality; fill-rule:evenodd; clip-rule:evenodd"
viewBox="0 0 9.33 9.33"
 xmlns:xlink="http://www.w3.org/1999/xlink"
 xmlns:xodm="http://www.corel.com/coreldraw/odm/2003">
 <defs>
  <style type="text/css">
   <![CDATA[
    .fil0 {fill:none}
    .fil1 {fill:#0085EB}
    .fil2 {fill:#FF6600}
   ]]>
  </style>
 </defs>
 <g id="Layer_x0020_1">
  <metadata id="CorelCorpID_0Corel-Layer"/>
  <g id="_2242601911392">
   <rect class="fil0" width="9.33" height="9.33"/>
   <g>
    <path class="fil1" d="M1.57 5.9c-0.33,0.03 -0.61,0.12 -0.84,0.27 -0.32,0.21 -0.79,-0.01 -0.72,0.38l-0.01 1.54c0.07,0.35 0.46,0.57 1.14,0.51 0.18,-0.02 0.74,0.11 0.95,0.15 0.6,0.11 1.24,0.23 1.84,0.37 0.35,0.09 0.59,0.15 0.95,0.04 0.42,-0.14 1.15,-0.43 1.61,-0.6 0.33,-0.12 0.68,-0.24 0.95,-0.44l0.47 -0.36c0.11,-0.09 0.21,-0.16 0.31,-0.24l0.94 -0.73c0.29,-0.28 0.2,-0.65 -0.19,-0.61 -0.17,0.02 -0.88,0.43 -1.1,0.55 -0.27,0.16 -0.54,0.17 -0.84,0.27 -0.21,0.07 -0.07,0.23 -0.09,0.42 -0.03,0.31 -0.3,0.46 -0.6,0.52 -0.62,0.13 -1.38,-0.13 -2.04,-0.11 -0.11,0.01 -0.41,0.1 -0.45,0.09 -0.06,-0.02 -0.23,-0.17 0.09,-0.28 0.31,-0.1 0.68,-0.06 1.02,-0.02 0.42,0.05 1.73,0.3 1.73,-0.27 -0.01,-0.33 -0.34,-0.43 -0.6,-0.5 -0.87,-0.21 -1.7,-0.05 -2,-0.18 -0.81,-0.34 -1.63,-0.85 -2.52,-0.77z"/>
    <path class="fil1" d="M5.17 2.38c0.09,0.5 -0.25,1.01 -0.79,1.11 -0.57,0.1 -1.03,-0.31 -1.12,-0.79 -0.1,-0.58 0.31,-1.04 0.79,-1.12 0.53,-0.09 1.02,0.24 1.12,0.8zm0.07 1.8c0.02,0.02 0.13,0.12 0.16,0.15 0.27,0.25 0.31,0.14 0.57,-0.13 0.12,-0.13 0.29,-0.25 0.25,-0.39 -0.02,-0.09 -0.29,-0.33 -0.31,-0.34 0.03,-0.07 0.08,-0.16 0.11,-0.24 0.04,-0.08 0.06,-0.17 0.09,-0.26 0.14,-0.01 0.37,0.02 0.47,-0.06 0.1,-0.08 0.06,-0.29 0.06,-0.45 -0.01,-0.16 0.02,-0.37 -0.09,-0.43 -0.1,-0.06 -0.33,-0.02 -0.47,-0.03 -0.08,-0.28 -0.18,-0.38 -0.22,-0.49 0.15,-0.21 0.46,-0.32 0.19,-0.57l-0.33 -0.31c-0.04,-0.05 -0.11,-0.12 -0.22,-0.1 -0.08,0.02 -0.3,0.26 -0.34,0.31 -0.06,-0.02 -0.17,-0.08 -0.25,-0.11 -0.08,-0.04 -0.19,-0.06 -0.26,-0.09 -0.02,-0.56 0.04,-0.54 -0.5,-0.53 -0.17,0.01 -0.36,-0.02 -0.43,0.09 -0.07,0.09 -0.04,0.34 -0.03,0.47 -0.09,0.02 -0.18,0.06 -0.26,0.1 -0.09,0.03 -0.16,0.09 -0.24,0.12 -0.23,-0.23 -0.36,-0.42 -0.57,-0.19 -0.51,0.54 -0.55,0.46 -0.1,0.89 -0.03,0.08 -0.07,0.16 -0.11,0.24 -0.03,0.09 -0.06,0.18 -0.08,0.27 -0.14,0 -0.39,-0.02 -0.48,0.06 -0.09,0.08 -0.06,0.28 -0.05,0.44 0.01,0.53 0,0.47 0.55,0.46 0.04,0.07 0.06,0.19 0.1,0.27 0.03,0.07 0.1,0.18 0.12,0.23 -0.05,0.05 -0.11,0.11 -0.16,0.16 -0.13,0.15 -0.21,0.23 -0.02,0.41l0.33 0.32c0.26,0.25 0.36,-0.07 0.56,-0.22 0.06,0.02 0.16,0.08 0.24,0.11 0.09,0.03 0.17,0.06 0.26,0.08 0.01,0.14 -0.02,0.38 0.06,0.47 0.07,0.1 0.29,0.07 0.44,0.06 0.16,0 0.36,0.03 0.44,-0.08 0.07,-0.1 0.02,-0.33 0.03,-0.47 0.09,-0.04 0.17,-0.06 0.26,-0.1 0.08,-0.04 0.16,-0.09 0.23,-0.12z"/>
    <path class="fil2" d="M7.97 5.06c0.06,0.32 -0.18,0.6 -0.46,0.65 -0.33,0.06 -0.6,-0.18 -0.65,-0.46 -0.06,-0.33 0.18,-0.61 0.46,-0.66 0.33,-0.06 0.6,0.18 0.65,0.47zm-1.68 0.27c-0.06,0.05 -0.19,0.07 -0.23,0.13 -0.05,0.08 0.03,0.19 0.06,0.26 0.03,0.08 0.06,0.2 0.14,0.22 0.08,0.02 0.19,-0.06 0.27,-0.08 0.03,0.03 0.07,0.08 0.1,0.11 0.04,0.04 0.09,0.07 0.12,0.11 -0.02,0.07 -0.09,0.19 -0.06,0.27 0.02,0.07 0.14,0.09 0.22,0.13 0.08,0.02 0.19,0.09 0.26,0.04 0.05,-0.03 0.08,-0.17 0.12,-0.24l0.31 -0.01c0.05,0.07 0.07,0.2 0.13,0.23 0.07,0.05 0.18,-0.02 0.26,-0.05 0.08,-0.04 0.19,-0.07 0.22,-0.14 0.02,-0.08 -0.07,-0.19 -0.09,-0.27 0.04,-0.04 0.08,-0.07 0.12,-0.11 0.03,-0.03 0.07,-0.09 0.1,-0.12 0.07,0.02 0.2,0.1 0.27,0.07 0.08,-0.03 0.1,-0.15 0.13,-0.23 0.03,-0.07 0.1,-0.19 0.05,-0.26 -0.04,-0.05 -0.18,-0.07 -0.24,-0.11l-0.01 -0.31c0.06,-0.05 0.19,-0.07 0.23,-0.13 0.05,-0.08 -0.02,-0.19 -0.06,-0.26 -0.03,-0.08 -0.06,-0.2 -0.13,-0.22 -0.08,-0.02 -0.2,0.06 -0.27,0.08 -0.04,-0.03 -0.08,-0.08 -0.11,-0.11 -0.04,-0.04 -0.08,-0.06 -0.12,-0.1 0.02,-0.08 0.09,-0.2 0.07,-0.28 -0.03,-0.07 -0.15,-0.09 -0.23,-0.12 -0.2,-0.08 -0.28,-0.15 -0.37,0.19l-0.32 0.01c-0.05,-0.06 -0.07,-0.2 -0.13,-0.23 -0.07,-0.05 -0.18,0.02 -0.25,0.05 -0.08,0.04 -0.2,0.07 -0.22,0.14 -0.03,0.08 0.06,0.19 0.08,0.27 -0.04,0.04 -0.08,0.07 -0.12,0.11 -0.03,0.04 -0.06,0.08 -0.1,0.12 -0.07,-0.02 -0.2,-0.1 -0.27,-0.07 -0.07,0.03 -0.1,0.15 -0.13,0.23 -0.03,0.07 -0.09,0.19 -0.04,0.26 0.03,0.05 0.17,0.08 0.23,0.11l0.01 0.31z"/>
   </g>
  </g>
 </g>
</svg>
